<svg width="41" height="32" viewBox="0 0 41 32" fill="none" xmlns="http://www.w3.org/2000/svg">
<path d="M1.48496 0.535889C0.912506 0.535889 0.447388 0.97565 0.447388 1.5169C0.447388 2.05814 0.912506 2.4979 1.48496 2.4979H5.81415C8.78376 9.53409 11.7176 16.5364 14.6514 23.5726C14.1147 23.7756 13.6496 24.0462 13.2561 24.4183C12.5047 25.1625 12.0396 26.1435 12.0396 27.2599C12.0396 28.3762 12.5047 29.391 13.2561 30.1014C14.0432 30.8118 15.0808 31.2854 16.2615 31.2854C17.4421 31.2854 18.4797 30.8118 19.2668 30.1014C20.0182 29.391 20.5191 28.3762 20.5191 27.2599C20.5191 26.448 20.2329 25.7038 19.8035 25.0611H30.0719C29.6426 25.7038 29.3921 26.448 29.3921 27.2599C29.3921 28.3762 29.8573 29.3572 30.6444 30.1014C31.3957 30.8118 32.4691 31.2854 33.614 31.2854C34.7947 31.2854 35.868 30.8118 36.6194 30.1014C37.4065 29.3572 37.8716 28.3762 37.8716 27.2599C37.8716 26.1435 37.4065 25.1625 36.6194 24.4183C35.9038 23.7418 34.2222 23.099 33.1846 23.099H16.6908L15.4028 19.9869H35.2598C35.7249 19.9869 36.1185 19.7163 36.2616 19.2765L38.2294 13.1198C38.2652 13.086 38.301 13.0184 38.301 12.9507L40.2688 6.89552C40.3046 6.76021 40.3403 6.62489 40.3403 6.48958C40.3403 5.94834 39.8752 5.50858 39.3028 5.50858H9.32044L7.53152 1.24627C7.42418 0.840339 6.99484 0.535889 6.52972 0.535889H1.48496ZM14.7588 25.8391C15.1523 25.467 15.689 25.2302 16.2615 25.2302C16.8697 25.2302 17.4064 25.467 17.7999 25.8391C18.1577 26.2112 18.4082 26.7186 18.4082 27.2599C18.4082 27.8349 18.1577 28.3424 17.7999 28.7145C17.4064 29.0527 16.8697 29.2895 16.2615 29.2895C15.689 29.2895 15.1523 29.0527 14.7588 28.7145C14.3652 28.3424 14.1147 27.8349 14.1147 27.2599C14.1147 26.7186 14.3652 26.2112 14.7588 25.8391ZM32.1113 25.8391C32.5049 25.467 33.0415 25.2302 33.614 25.2302C34.2222 25.2302 34.7589 25.467 35.1525 25.8391C35.546 26.2112 35.7607 26.7186 35.7607 27.2599C35.7607 27.8349 35.546 28.3424 35.1525 28.7145C34.7589 29.0527 34.2222 29.2895 33.614 29.2895C33.0415 29.2895 32.5049 29.0527 32.1113 28.7145C31.7177 28.3424 31.4673 27.8349 31.4673 27.2599C31.4673 26.7186 31.7177 26.2112 32.1113 25.8391ZM36.512 11.7667H29.7499L30.0719 7.50442H37.8716L36.512 11.7667ZM27.639 11.7667H21.5924L21.1989 7.50442H27.9968L27.639 11.7667ZM19.4815 11.7667H11.9323L10.1433 7.50442H19.1237L19.4815 11.7667ZM12.7909 13.7287H19.6604L20.0182 18.0249H14.5799L12.7909 13.7287ZM21.7355 13.7287H27.4959L27.1739 18.0249H22.1291L21.7355 13.7287ZM29.6068 13.7287H35.868L34.5084 18.0249H29.2848L29.6068 13.7287Z" fill="#363636"/>
</svg>
