<svg width="33" height="21" viewBox="0 0 33 21" fill="none" xmlns="http://www.w3.org/2000/svg">
<path fill-rule="evenodd" clip-rule="evenodd" d="M28.7787 8.45793V4.98096H26.3007V8.45793H22.8281V10.9359H26.3007V14.4085H28.7787V10.9359H32.2513V8.45793H28.7787Z" fill="#FEFEFE"/>
<path fill-rule="evenodd" clip-rule="evenodd" d="M10.8965 8.19173V12.166H16.2145C16.0531 12.9993 15.7172 13.7671 15.1239 14.4128C12.9906 16.7424 9.01626 16.7162 6.739 14.3735C4.46173 12.0308 4.48791 8.2528 6.79571 5.94064C8.99009 3.7419 12.5238 3.64592 14.6614 5.7356L14.6571 5.73996L17.5582 2.83884C13.6711 -0.694846 7.68131 -0.638132 3.8946 3.09187C-0.0186356 6.95712 -0.0622614 13.2654 3.80298 17.1786C7.66386 21.0919 14.3561 21.1311 17.977 17.2441C20.1627 14.897 20.7909 11.5291 20.2674 8.19173H10.8965Z" fill="#FEFEFE"/>
</svg>
