<svg width="29" height="29" viewBox="0 0 29 29" fill="none" xmlns="http://www.w3.org/2000/svg">
<path d="M9.29733 2.71122C5.74137 2.71122 2.88114 5.57145 2.88114 9.12741V19.8726C2.88114 23.4286 5.74137 26.2888 9.29733 26.2888H20.0425C23.5985 26.2888 26.4587 23.4286 26.4587 19.8726V9.12741C26.4587 5.57145 23.5985 2.71122 20.0425 2.71122H9.29733ZM24.2942 6.70523C24.2942 7.73594 23.4696 8.53475 22.4647 8.53475C21.4597 8.53475 20.6352 7.73594 20.6352 6.70523C20.6352 5.70029 21.4597 4.90148 22.4647 4.90148C23.4696 4.90148 24.2942 5.70029 24.2942 6.70523ZM14.6828 9.617C11.9772 9.617 9.78692 11.8073 9.78692 14.5129C9.78692 17.1927 11.9772 19.383 14.6828 19.383C17.3627 19.383 19.5529 17.1927 19.5529 14.5129C19.5529 11.8073 17.3627 9.617 14.6828 9.617ZM14.6828 21.5217C10.7919 21.5217 7.64819 18.3781 7.64819 14.5129C7.64819 10.6219 10.7919 7.47827 14.6828 7.47827C18.548 7.47827 21.6917 10.6219 21.6917 14.5129C21.6917 18.3781 18.548 21.5217 14.6828 21.5217ZM20.0425 28.376H9.29733C4.60758 28.376 0.793945 24.5623 0.793945 19.8726V9.12741C0.793945 4.43766 4.60758 0.624023 9.29733 0.624023H20.0425C24.7323 0.624023 28.5459 4.43766 28.5459 9.12741V19.8726C28.5459 24.5623 24.7323 28.376 20.0425 28.376Z" fill="white"/>
</svg>
