<svg width="31" height="23" viewBox="0 0 31 23" fill="none" xmlns="http://www.w3.org/2000/svg">
<path d="M3.14847 1.22314C10.1472 1.22314 17.1459 1.22314 24.1446 1.22314C24.9142 1.22314 25.2028 1.63375 25.2028 2.02154C25.2028 2.38652 24.8901 2.77431 24.1686 2.77431H3.14847C2.90796 2.77431 2.71556 2.86555 2.57125 3.00242C2.42695 3.13929 2.33075 3.32178 2.33075 3.54989V19.8827C2.33075 20.1108 2.42695 20.2933 2.57125 20.4302C2.71556 20.5671 2.90796 20.6583 3.14847 20.6583H27.8724C28.0889 20.6583 28.3053 20.5671 28.4496 20.4302C28.5939 20.2933 28.6901 20.1108 28.6901 19.8827C28.6901 15.503 28.6901 11.1232 28.6901 6.74346C28.6901 6.03631 29.099 5.73977 29.5078 5.73977C29.9167 5.73977 30.3256 6.0135 30.3256 6.69784V19.8827C30.3256 20.5214 30.037 21.1145 29.604 21.5251C29.1711 21.9585 28.5458 22.2095 27.8724 22.2095H3.14847C2.47505 22.2095 1.84974 21.9585 1.41683 21.5251C0.959868 21.1145 0.695312 20.5214 0.695312 19.8827V3.54989C0.695312 2.91118 0.959868 2.31808 1.41683 1.90748C1.84974 1.47407 2.47505 1.22314 3.14847 1.22314ZM4.15859 5.64852C3.82188 5.37479 3.77378 4.89575 4.06239 4.57639C4.35099 4.23423 4.8801 4.21142 5.21681 4.48515L15.4623 12.7428L25.3471 4.3939C25.6838 4.09736 26.2129 4.14298 26.5015 4.43953C26.7901 4.75888 26.7661 5.26073 26.4294 5.53447L19.1902 11.6707L26.0686 17.9666C26.4053 18.2631 26.4053 18.7422 26.0927 19.0615C25.78 19.3581 25.275 19.3809 24.9623 19.0843L17.9636 12.6972L15.4864 14.7958L12.913 12.72L5.48137 19.5406C5.14466 19.8371 4.6396 19.8143 4.32694 19.5177C4.01429 19.1984 4.01429 18.7194 4.35099 18.4228L11.6624 11.7163L4.15859 5.64852Z" fill="#F8CD4F" stroke="#F8CD4F" stroke-width="0.5"/>
</svg>
