<svg width="27" height="35" viewBox="0 0 27 35" fill="none" xmlns="http://www.w3.org/2000/svg">
<path d="M14.3509 34.374C14.0462 34.7659 13.4366 34.8094 13.0013 34.5046C12.6094 34.1563 12.5223 33.5468 12.8706 33.1114C16.4407 28.8447 19.4013 25.0134 21.4476 21.4868C23.4503 18.0474 24.5823 14.9562 24.4952 12.0391C24.4082 9.12211 23.2326 6.81461 21.404 5.16017C19.4013 3.37512 16.6149 2.37375 13.5237 2.33021C12.3917 2.33021 11.2162 2.50436 10.0842 2.89621C8.9087 3.33158 7.77672 3.94111 6.64473 4.85541C-1.10499 12.5616 4.46784 19.8324 10.0407 27.1032L10.4761 27.7127C10.8244 28.1481 10.7373 28.7577 10.3019 29.0624C9.86653 29.4107 9.257 29.3236 8.95224 28.8883L8.47332 28.2787C2.42157 20.3113 -3.67372 12.3439 5.3386 3.4622L5.38214 3.37512C6.73181 2.33021 8.08148 1.59007 9.43115 1.11116C10.7808 0.588702 12.174 0.414551 13.5672 0.414551C17.0938 0.458089 20.3156 1.63361 22.6666 3.72342C24.8871 5.68262 26.3238 8.51258 26.4109 11.9956C26.498 15.3045 25.2789 18.744 23.1456 22.4447C21.0122 26.1019 17.9646 30.0203 14.3509 34.374ZM13.9591 7.51121C15.3523 7.51121 16.6149 8.12074 17.5292 9.03503C18.4435 9.94933 19.0095 11.2119 19.0095 12.6051C19.0095 13.9983 18.4435 15.2609 17.5292 16.1752C16.6149 17.0895 15.3523 17.6555 13.9591 17.6555C12.5659 17.6555 11.2597 17.0895 10.3454 16.1752C9.43115 15.2609 8.86516 13.9983 8.86516 12.6051C8.86516 11.2119 9.43115 9.94933 10.3454 9.03503C11.2597 8.12074 12.5659 7.51121 13.9591 7.51121ZM16.1795 10.3847C15.6135 9.81871 14.8298 9.47041 13.9591 9.47041C13.0883 9.47041 12.3046 9.81871 11.7387 10.3847C11.1727 10.9507 10.8244 11.7344 10.8244 12.6051C10.8244 13.4759 11.1727 14.2596 11.7387 14.8256C12.3046 15.3916 13.0883 15.7399 13.9591 15.7399C14.8298 15.7399 15.6135 15.3916 16.1795 14.8256C16.7455 14.2596 17.0938 13.4759 17.0938 12.6051C17.0938 11.7344 16.7455 10.9507 16.1795 10.3847Z" fill="#363636"/>
</svg>
