<svg width="26" height="29" viewBox="0 0 26 29" fill="none" xmlns="http://www.w3.org/2000/svg">
<path d="M20.0167 18.6247C19.5196 19.7497 18.6707 20.4918 17.4813 20.8287C17.0505 20.9502 16.6306 20.8453 16.2385 20.6777C10.8142 18.3688 6.89416 14.5593 4.67547 9.05949C4.51528 8.66363 4.42138 8.24935 4.43611 7.87189C4.43979 6.45598 5.68079 5.14686 7.04331 5.07137C7.41892 5.04927 7.74482 5.17816 8.01732 5.43225C8.97477 6.32893 9.74441 7.36924 10.306 8.55315C10.6116 9.19575 10.4827 9.64869 9.93406 10.109C9.84568 10.1827 9.75177 10.2471 9.65787 10.3152C8.92874 10.8492 8.76671 11.3942 9.1147 12.2356C9.68733 13.6129 10.619 14.6955 11.8747 15.4965C12.3498 15.8003 12.834 16.0857 13.3809 16.2459C13.8798 16.3913 14.2831 16.2348 14.6034 15.8389C14.6403 15.7948 14.6734 15.7487 14.7066 15.7027C15.4062 14.7342 16.1538 14.5666 17.1683 15.1945C18.0374 15.734 18.8567 16.349 19.6337 17.0137C20.1603 17.4629 20.2966 17.9932 20.0167 18.6247ZM16.2514 11.0278C16.2329 11.1788 16.2329 11.2837 16.209 11.3831C16.1611 11.582 16.0378 11.7035 15.8205 11.7054C15.6014 11.709 15.4836 11.5783 15.4246 11.3905C15.386 11.2598 15.3749 11.1198 15.3491 10.9836C15.2092 10.2637 14.7986 9.79231 14.0805 9.59898C13.994 9.57504 13.9019 9.56215 13.8136 9.53822C13.5871 9.47562 13.3072 9.47009 13.2962 9.14051C13.2888 8.86616 13.4969 8.70229 13.8743 8.6802C14.1284 8.66363 14.5243 8.79067 14.7544 8.90115C15.6953 9.36146 16.1354 10.0077 16.2514 11.0278ZM14.736 8.00999C14.2149 7.8277 13.6883 7.68041 13.1397 7.60123C12.8745 7.56257 12.6849 7.42263 12.7346 7.1133C12.7806 6.82055 12.9703 6.70455 13.252 6.73033C15.0398 6.90156 16.4373 7.55152 17.4003 9.10184C17.8496 9.82545 18.1147 10.8529 18.0742 11.6225C18.0466 12.1694 17.9637 12.3093 17.6507 12.3001C17.1978 12.289 17.264 11.9153 17.2291 11.6409C17.1757 11.2174 17.0836 10.805 16.9694 10.3962C16.638 9.21416 15.8978 8.4169 14.736 8.00999ZM12.1509 5.28863C12.1675 4.96826 12.3516 4.84489 12.6517 4.85962C15.2166 4.98115 17.1462 5.74342 18.6302 7.74117C19.4993 8.9122 19.9688 10.492 20.0149 11.9613C20.0149 12.1786 20.0259 12.3977 20.013 12.6149C20.0001 12.858 19.8933 13.0439 19.6208 13.0458C19.3446 13.0495 19.2102 12.9003 19.19 12.6205C19.1182 11.5378 18.9101 10.4846 18.4958 9.47746C17.6949 7.52758 16.1593 6.47808 14.1873 5.96989C13.6644 5.83732 13.1378 5.72685 12.5983 5.68266C12.3553 5.66241 12.1325 5.61085 12.1509 5.28863ZM22.4103 3.27432C21.3939 2.40525 20.2027 1.88234 18.9212 1.54723C15.7063 0.705784 12.4473 0.495883 9.15337 0.943304C7.4852 1.16978 5.87228 1.61167 4.38824 2.44392C2.64458 3.42161 1.44593 4.82832 0.915653 6.78372C0.538199 8.1757 0.354075 9.59346 0.282266 11.0296C0.177316 13.1489 0.245441 15.2534 0.788608 17.3211C1.41647 19.7129 2.78083 21.4768 5.11921 22.414C5.3733 22.5153 5.61266 22.6571 5.86675 22.762C6.10059 22.8596 6.1724 23.0143 6.1724 23.2684C6.15951 24.9236 6.16503 26.5771 6.16503 28.306C6.78001 27.7131 7.20349 27.2767 7.51282 26.9287C8.43344 25.8866 9.30435 25.0212 10.2636 24.0306C10.7516 23.5298 10.5472 23.5537 11.3021 23.5666C12.1896 23.5814 13.5852 23.6163 14.469 23.5464C16.1519 23.4138 17.8238 23.2002 19.4478 22.7123C21.5136 22.0918 23.1671 20.9871 24.0048 18.8991C24.2276 18.3449 24.4412 17.7888 24.583 17.2088C25.3894 13.8872 25.2808 10.5583 24.6069 7.23483C24.2939 5.69187 23.6347 4.32014 22.4103 3.27432Z" fill="#363636"/>
</svg>
