<svg width="28" height="27" viewBox="0 0 28 27" fill="none" xmlns="http://www.w3.org/2000/svg">
<path fill-rule="evenodd" clip-rule="evenodd" d="M20.5556 16.1429C20.2261 15.9625 18.6131 15.0916 18.3093 14.9682C18.0074 14.8448 17.7864 14.7822 17.5507 15.1081C17.3151 15.434 16.6448 16.1632 16.4423 16.3804C16.2379 16.5959 16.0409 16.6161 15.7132 16.4357C15.3854 16.2571 14.3194 15.863 13.0839 14.6736C12.1228 13.7511 11.4912 12.6298 11.3089 12.2874C11.1248 11.9449 11.3071 11.77 11.4802 11.6098C11.6367 11.4662 11.83 11.2323 12.0049 11.0427C12.1798 10.853 12.2406 10.7168 12.3603 10.4977C12.48 10.2786 12.4321 10.0797 12.3548 9.91031C12.2774 9.73908 11.6698 8.06723 11.4157 7.38781C11.1616 6.70655 10.8799 6.80782 10.6847 6.80046C10.4896 6.79309 10.2668 6.75627 10.044 6.7489C9.82121 6.7397 9.4548 6.80966 9.13626 7.13372C8.81589 7.45594 7.92105 8.23478 7.86028 9.88085C7.79768 11.5269 8.93741 13.1638 9.09576 13.3921C9.25595 13.6223 11.2721 17.1924 14.6232 18.6599C17.9761 20.1274 17.9945 19.6799 18.6095 19.6468C19.2244 19.6155 20.6182 18.9121 20.9276 18.1407C21.2351 17.371 21.2608 16.7008 21.1817 16.5572C21.1043 16.4154 20.8834 16.3215 20.5556 16.1429ZM14.4077 24.0787C12.1909 24.0787 10.1269 23.414 8.40345 22.2743L4.2091 23.6165L5.57162 19.5639C4.26618 17.7632 3.49286 15.5519 3.49286 13.1638C3.49286 7.14477 8.39056 2.24891 14.4077 2.24891C20.4268 2.24891 25.3226 7.14477 25.3226 13.1638C25.3226 19.1828 20.4268 24.0787 14.4077 24.0787ZM14.4077 0.0523071C7.16798 0.0523071 1.29626 5.92218 1.29626 13.1638C1.29626 15.6403 1.98488 17.9584 3.17801 19.934L0.812012 26.9676L8.07019 24.6439C9.95009 25.6824 12.1099 26.2753 14.4077 26.2753C21.6493 26.2753 27.5192 20.4054 27.5192 13.1638C27.5192 5.92218 21.6493 0.0523071 14.4077 0.0523071Z" fill="#363636"/>
</svg>
