<svg width="29" height="25" viewBox="0 0 29 25" fill="none" xmlns="http://www.w3.org/2000/svg">
<path d="M8.84889 13.9448L23.0743 5.02029C23.774 4.54893 23.9949 5.07368 23.6782 5.43641L11.8722 16.0567L11.2664 21.3576L8.84889 13.9448ZM26.8931 0.918001L1.92214 10.3728C0.555938 10.7668 0.600128 12.1164 1.60913 12.4405L7.86751 14.394L10.2611 21.7332C10.552 22.5379 10.7896 22.8398 11.2867 22.8472C11.8096 22.8546 12.0085 22.6631 12.5516 22.1825C13.1869 21.5878 14.1535 20.6487 15.6836 19.161L22.1905 23.9703C23.3892 24.6313 24.2546 24.2889 24.5528 22.8582L28.633 2.67455C29.0694 0.919842 28.0401 0.39693 26.8931 0.918001Z" fill="#363636"/>
</svg>
