<svg width="34" height="21" viewBox="0 0 34 21" fill="none" xmlns="http://www.w3.org/2000/svg">
<path fill-rule="evenodd" clip-rule="evenodd" d="M16.9225 19.9415H18.9147C18.9147 19.9415 19.5168 19.8752 19.8261 19.5438C20.1078 19.24 20.0986 18.6692 20.0986 18.6692C20.0986 18.6692 20.0599 15.9957 21.3009 15.5999C22.5254 15.2132 24.0959 18.185 25.7623 19.3284C27.0198 20.1938 27.9773 20.0041 27.9773 20.0041L32.4312 19.9415C32.4312 19.9415 34.7604 19.7979 33.6557 17.9677C33.5654 17.8167 33.0131 16.6125 30.3451 14.1361C27.552 11.5436 27.9257 11.9634 31.2897 7.47999C33.339 4.74943 34.1565 3.08311 33.9006 2.37055C33.6575 1.68929 32.1514 1.86973 32.1514 1.86973L27.1377 1.90103C27.1377 1.90103 26.7657 1.84948 26.4896 2.01519C26.2207 2.17537 26.0477 2.55283 26.0477 2.55283C26.0477 2.55283 25.2541 4.66473 24.1954 6.46178C21.9619 10.2529 21.0689 10.4536 20.7044 10.2179C19.8556 9.66923 20.0673 8.01395 20.0673 6.8374C20.0673 3.16412 20.6252 1.63221 18.9828 1.2345C18.4378 1.10377 18.0364 1.01723 16.6426 1.0025C14.8529 0.984092 13.3394 1.00803 12.4814 1.42783C11.9106 1.7077 11.4706 2.33004 11.7394 2.36502C12.0708 2.40921 12.822 2.56756 13.2197 3.10888C13.7334 3.80856 13.715 5.37914 13.715 5.37914C13.715 5.37914 14.0096 9.70421 13.0264 10.24C12.3488 10.6083 11.4227 9.85703 9.4323 6.4176C8.41225 4.65553 7.64261 2.70749 7.64261 2.70749C7.64261 2.70749 7.49347 2.34293 7.22833 2.1496C6.90795 1.91392 6.45869 1.83843 6.45869 1.83843L1.69356 1.86973C1.69356 1.86973 0.979157 1.88998 0.71586 2.20115C0.482022 2.47734 0.697447 3.04812 0.697447 3.04812C0.697447 3.04812 4.4278 11.7756 8.65161 16.1743C12.5256 20.2067 16.9225 19.9415 16.9225 19.9415Z" fill="#363636"/>
</svg>
