<svg width="32" height="27" viewBox="0 0 32 27" fill="none" xmlns="http://www.w3.org/2000/svg">
<path fill-rule="evenodd" clip-rule="evenodd" d="M0.821617 0.91945C0.821617 0.936176 0.800501 0.949862 0.774677 0.949862C0.713882 0.949862 0.57856 1.08532 0.57856 1.14617C0.57856 1.17202 0.564888 1.19316 0.548178 1.19316C0.531467 1.19316 0.517796 1.22053 0.517796 1.25398C0.517796 1.28743 0.504124 1.3148 0.487413 1.3148C0.467209 1.3148 0.457031 4.64998 0.457031 11.2595C0.457031 17.869 0.467209 21.2041 0.487413 21.2041C0.504124 21.2041 0.517796 21.225 0.517796 21.2505C0.517796 21.3109 0.77571 21.5691 0.836018 21.5691C0.861509 21.5691 0.882381 21.5828 0.882381 21.5995C0.882381 21.6196 2.81672 21.6299 6.62461 21.6299C10.4325 21.6299 12.3668 21.6196 12.3668 21.5995C12.3668 21.5828 12.4015 21.5691 12.4438 21.5691C12.5294 21.5691 12.7314 21.3882 12.7314 21.3116C12.7314 21.2859 12.7451 21.265 12.7618 21.265C12.7785 21.265 12.7922 21.2376 12.7922 21.2041C12.7922 21.1707 12.8059 21.1433 12.8226 21.1433C12.8393 21.1433 12.8529 21.0749 12.8529 20.9912C12.8529 20.9076 12.8393 20.8392 12.8226 20.8392C12.8059 20.8392 12.7922 20.8046 12.7922 20.7624C12.7922 20.6765 12.5523 20.4134 12.474 20.4134C12.4485 20.4134 12.4276 20.3997 12.4276 20.383C12.4276 20.3628 10.6394 20.3526 7.12375 20.3526C2.56759 20.3526 1.81378 20.3465 1.7765 20.3091C1.73907 20.2717 1.73308 19.0631 1.73308 11.5505C1.73308 6.75721 1.74375 2.83539 1.75675 2.83539C1.76978 2.83539 1.80013 2.86276 1.82423 2.89622C1.84832 2.92967 1.88657 2.95704 1.90927 2.95704C1.93196 2.95704 2.00306 3.01178 2.06728 3.07869C2.13151 3.14559 2.20015 3.20034 2.2198 3.20034C2.23949 3.20034 2.29391 3.24139 2.34072 3.29157C2.38754 3.34175 2.44196 3.38281 2.46165 3.38281C2.4813 3.38281 2.54994 3.43755 2.61416 3.50445C2.67839 3.57136 2.74702 3.6261 2.76668 3.6261C2.78637 3.6261 2.84078 3.66716 2.8876 3.71734C2.93442 3.76752 2.98911 3.80857 3.00913 3.80857C3.02915 3.80857 3.08384 3.84963 3.13066 3.89981C3.17748 3.94999 3.23189 3.99104 3.25158 3.99104C3.27124 3.99104 3.33987 4.04578 3.4041 4.11269C3.46833 4.1796 3.53696 4.23434 3.55662 4.23434C3.57631 4.23434 3.63072 4.27539 3.67754 4.32557C3.72436 4.37575 3.77905 4.41681 3.79907 4.41681C3.81909 4.41681 3.87378 4.45786 3.9206 4.50804C3.96741 4.55822 4.02183 4.59928 4.04152 4.59928C4.06117 4.59928 4.12981 4.65402 4.19403 4.72093C4.25826 4.78783 4.3269 4.84257 4.34655 4.84257C4.36624 4.84257 4.42066 4.88363 4.46747 4.93381C4.51429 4.98399 4.56898 5.02504 4.589 5.02504C4.60902 5.02504 4.66371 5.0661 4.71053 5.11628C4.75735 5.16646 4.81176 5.20752 4.83145 5.20752C4.85111 5.20752 4.91974 5.26226 4.98397 5.32916C5.0482 5.39607 5.11683 5.45081 5.13649 5.45081C5.15618 5.45081 5.21059 5.49187 5.25741 5.54205C5.30423 5.59223 5.35892 5.63328 5.37894 5.63328C5.39896 5.63328 5.45365 5.67434 5.50047 5.72452C5.54729 5.7747 5.6017 5.81575 5.62139 5.81575C5.64105 5.81575 5.70968 5.87049 5.77391 5.9374C5.83813 6.00431 5.90677 6.05905 5.92642 6.05905C5.94611 6.05905 6.00053 6.1001 6.04735 6.15028C6.09416 6.20046 6.14885 6.24152 6.16887 6.24152C6.1889 6.24152 6.24358 6.28257 6.2904 6.33275C6.33722 6.38293 6.39164 6.42399 6.41132 6.42399C6.43098 6.42399 6.49961 6.47873 6.56384 6.54564C6.62807 6.61254 6.6967 6.66728 6.71636 6.66728C6.73605 6.66728 6.79046 6.70834 6.83728 6.75852C6.8841 6.8087 6.93879 6.84975 6.95881 6.84975C6.97883 6.84975 7.03352 6.89081 7.08034 6.94099C7.12716 6.99117 7.18157 7.03222 7.20126 7.03222C7.22092 7.03222 7.28955 7.08697 7.35378 7.15387C7.41801 7.22078 7.48664 7.27552 7.5063 7.27552C7.52598 7.27552 7.5804 7.31658 7.62722 7.36675C7.67404 7.41693 7.72872 7.45799 7.74875 7.45799C7.76877 7.45799 7.82346 7.49905 7.87027 7.54923C7.91709 7.59941 7.97151 7.64046 7.9912 7.64046C8.01085 7.64046 8.07949 7.6952 8.14371 7.76211C8.20794 7.82901 8.27657 7.88376 8.29623 7.88376C8.31592 7.88376 8.37033 7.92481 8.41715 7.97499C8.46397 8.02517 8.51866 8.06623 8.53868 8.06623C8.5587 8.06623 8.61339 8.10728 8.66021 8.15746C8.70703 8.20764 8.76144 8.2487 8.78113 8.2487C8.80079 8.2487 8.86942 8.30344 8.93365 8.37034C8.99788 8.43725 9.06651 8.49199 9.08617 8.49199C9.10585 8.49199 9.16027 8.53305 9.20709 8.58323C9.25391 8.63341 9.3086 8.67446 9.32862 8.67446C9.34864 8.67446 9.40333 8.71552 9.45015 8.7657C9.49696 8.81588 9.55138 8.85693 9.57107 8.85693C9.59072 8.85693 9.65936 8.91167 9.72359 8.97858C9.78781 9.04549 9.85645 9.10023 9.8761 9.10023C9.89579 9.10023 9.95021 9.14128 9.99702 9.19146C10.0438 9.24164 10.0985 9.2827 10.1186 9.2827C10.1386 9.2827 10.1933 9.32376 10.2401 9.37393C10.2869 9.42411 10.3413 9.46517 10.361 9.46517C10.3807 9.46517 10.4493 9.51991 10.5135 9.58682C10.5777 9.65372 10.6464 9.70846 10.666 9.70846C10.6857 9.70846 10.7401 9.74952 10.787 9.7997C10.8338 9.84988 10.8885 9.89093 10.9085 9.89093C10.9285 9.89093 10.9832 9.93199 11.03 9.98217C11.0768 10.0324 11.1313 10.0734 11.1509 10.0734C11.1706 10.0734 11.2392 10.1281 11.3035 10.1951C11.3677 10.262 11.4363 10.3167 11.456 10.3167C11.4757 10.3167 11.5301 10.3578 11.5769 10.4079C11.6237 10.4581 11.6784 10.4992 11.6984 10.4992C11.7184 10.4992 11.7731 10.5402 11.82 10.5904C11.8668 10.6406 11.9212 10.6816 11.9409 10.6816C11.9605 10.6816 12.0292 10.7364 12.0934 10.8033C12.1576 10.8702 12.2263 10.9249 12.2459 10.9249C12.2656 10.9249 12.32 10.966 12.3668 11.0162C12.4137 11.0664 12.4683 11.1074 12.4884 11.1074C12.5084 11.1074 12.5631 11.1485 12.6099 11.1986C12.6567 11.2488 12.7111 11.2899 12.7308 11.2899C12.7505 11.2899 12.8191 11.3446 12.8833 11.4115C12.9476 11.4784 13.0162 11.5332 13.0358 11.5332C13.0555 11.5332 13.1099 11.5742 13.1568 11.6244C13.2036 11.6746 13.258 11.7156 13.2777 11.7156C13.2973 11.7156 13.366 11.7704 13.4302 11.8373C13.4944 11.9042 13.5631 11.9589 13.5827 11.9589C13.6024 11.9589 13.6568 12 13.7036 12.0502C13.7505 12.1004 13.8052 12.1414 13.8252 12.1414C13.8452 12.1414 13.8999 12.1825 13.9467 12.2326C13.9935 12.2828 14.0482 12.3239 14.0682 12.3239C14.0883 12.3239 14.1429 12.3649 14.1898 12.4151C14.2366 12.4653 14.291 12.5064 14.3107 12.5064C14.3303 12.5064 14.399 12.5611 14.4632 12.628C14.5274 12.6949 14.5961 12.7496 14.6157 12.7496C14.6354 12.7496 14.6898 12.7907 14.7366 12.8409C14.7835 12.8911 14.8379 12.9321 14.8576 12.9321C14.8772 12.9321 14.9459 12.9869 15.0101 13.0538C15.0743 13.1207 15.1429 13.1754 15.1626 13.1754C15.1823 13.1754 15.2367 13.2165 15.2835 13.2666C15.3303 13.3168 15.385 13.3579 15.405 13.3579C15.4251 13.3579 15.4798 13.3989 15.5266 13.4491C15.5734 13.4993 15.6336 13.5404 15.6603 13.5404C15.687 13.5404 15.7089 13.554 15.7089 13.5708C15.7089 13.5875 15.7362 13.6012 15.7696 13.6012C15.8031 13.6012 15.8304 13.6149 15.8304 13.6316C15.8304 13.6485 15.9114 13.662 16.0127 13.662C16.114 13.662 16.195 13.6485 16.195 13.6316C16.195 13.6149 16.2223 13.6012 16.2557 13.6012C16.2892 13.6012 16.3165 13.5875 16.3165 13.5708C16.3165 13.554 16.3384 13.5404 16.3651 13.5404C16.3918 13.5404 16.452 13.4993 16.4988 13.4491C16.5456 13.3989 16.6 13.3579 16.6197 13.3579C16.6394 13.3579 16.708 13.3031 16.7722 13.2362C16.8365 13.1693 16.9051 13.1146 16.9248 13.1146C16.9444 13.1146 16.9989 13.0735 17.0457 13.0234C17.0925 12.9732 17.1472 12.9321 17.1672 12.9321C17.1872 12.9321 17.2419 12.8911 17.2887 12.8409C17.3356 12.7907 17.39 12.7496 17.4097 12.7496C17.4293 12.7496 17.4979 12.6949 17.5622 12.628C17.6264 12.5611 17.695 12.5064 17.7147 12.5064C17.7344 12.5064 17.7888 12.4653 17.8356 12.4151C17.8824 12.3649 17.9371 12.3239 17.9571 12.3239C17.9772 12.3239 18.0319 12.2828 18.0787 12.2326C18.1255 12.1825 18.1799 12.1414 18.1996 12.1414C18.2193 12.1414 18.2879 12.0867 18.3521 12.0198C18.4163 11.9529 18.485 11.8981 18.5046 11.8981C18.5243 11.8981 18.5787 11.8571 18.6256 11.8069C18.6724 11.7567 18.7271 11.7156 18.7471 11.7156C18.7671 11.7156 18.8218 11.6746 18.8686 11.6244C18.9154 11.5742 18.9698 11.5332 18.9895 11.5332C19.0092 11.5332 19.0778 11.4784 19.142 11.4115C19.2063 11.3446 19.2749 11.2899 19.2946 11.2899C19.3143 11.2899 19.3687 11.2488 19.4155 11.1986C19.4623 11.1485 19.517 11.1074 19.537 11.1074C19.557 11.1074 19.6117 11.0664 19.6585 11.0162C19.7054 10.966 19.7598 10.9249 19.7795 10.9249C19.7991 10.9249 19.8678 10.8702 19.932 10.8033C19.9962 10.7364 20.0648 10.6816 20.0845 10.6816C20.1042 10.6816 20.1586 10.6406 20.2054 10.5904C20.2522 10.5402 20.3069 10.4992 20.327 10.4992C20.347 10.4992 20.4017 10.4581 20.4485 10.4079C20.4953 10.3578 20.5497 10.3167 20.5694 10.3167C20.5891 10.3167 20.6577 10.262 20.7219 10.1951C20.7861 10.1281 20.8548 10.0734 20.8744 10.0734C20.8941 10.0734 20.9485 10.0324 20.9954 9.98217C21.0422 9.93199 21.0969 9.89093 21.1169 9.89093C21.1369 9.89093 21.1916 9.84988 21.2384 9.7997C21.2852 9.74952 21.3396 9.70846 21.3593 9.70846C21.379 9.70846 21.4476 9.65372 21.5119 9.58682C21.5761 9.51991 21.6447 9.46517 21.6644 9.46517C21.6841 9.46517 21.7385 9.42411 21.7853 9.37393C21.8321 9.32376 21.8868 9.2827 21.9068 9.2827C21.9268 9.2827 21.9815 9.24164 22.0284 9.19146C22.0752 9.14128 22.1296 9.10023 22.1493 9.10023C22.1689 9.10023 22.2376 9.04549 22.3018 8.97858C22.366 8.91167 22.4347 8.85693 22.4543 8.85693C22.474 8.85693 22.5284 8.81588 22.5752 8.7657C22.6221 8.71552 22.6767 8.67446 22.6968 8.67446C22.7168 8.67446 22.7715 8.63341 22.8183 8.58323C22.8651 8.53305 22.9195 8.49199 22.9392 8.49199C22.9589 8.49199 23.0275 8.43725 23.0917 8.37034C23.156 8.30344 23.2246 8.2487 23.2442 8.2487C23.2639 8.2487 23.3183 8.20764 23.3652 8.15746C23.412 8.10728 23.4667 8.06623 23.4867 8.06623C23.5067 8.06623 23.5614 8.02517 23.6082 7.97499C23.655 7.92481 23.7095 7.88376 23.7291 7.88376C23.7488 7.88376 23.8174 7.82901 23.8817 7.76211C23.9459 7.6952 24.0145 7.64046 24.0342 7.64046C24.0539 7.64046 24.1083 7.59941 24.1551 7.54923C24.2019 7.49905 24.2566 7.45799 24.2766 7.45799C24.2967 7.45799 24.3513 7.41693 24.3982 7.36675C24.445 7.31658 24.4994 7.27552 24.5191 7.27552C24.5387 7.27552 24.6074 7.22078 24.6716 7.15387C24.7358 7.08697 24.8045 7.03222 24.8241 7.03222C24.8438 7.03222 24.8982 6.99117 24.945 6.94099C24.9919 6.89081 25.0465 6.84975 25.0666 6.84975C25.0866 6.84975 25.1413 6.8087 25.1881 6.75852C25.2349 6.70834 25.2893 6.66728 25.309 6.66728C25.3287 6.66728 25.3973 6.61254 25.4615 6.54564C25.5258 6.47873 25.5944 6.42399 25.6141 6.42399C25.6337 6.42399 25.6882 6.38293 25.735 6.33275C25.7818 6.28257 25.8365 6.24152 25.8565 6.24152C25.8765 6.24152 25.9312 6.20046 25.978 6.15028C26.0249 6.1001 26.0793 6.05905 26.099 6.05905C26.1186 6.05905 26.1872 6.00431 26.2515 5.9374C26.3157 5.87049 26.3843 5.81575 26.404 5.81575C26.4237 5.81575 26.4781 5.7747 26.5249 5.72452C26.5717 5.67434 26.6264 5.63328 26.6464 5.63328C26.6665 5.63328 26.7211 5.59223 26.768 5.54205C26.8148 5.49187 26.8692 5.45081 26.8889 5.45081C26.9085 5.45081 26.9772 5.39607 27.0414 5.32916C27.1056 5.26226 27.1743 5.20752 27.1939 5.20752C27.2136 5.20752 27.268 5.16646 27.3148 5.11628C27.3617 5.0661 27.4161 5.02504 27.4358 5.02504C27.4554 5.02504 27.5241 4.9703 27.5883 4.9034C27.6525 4.83649 27.7211 4.78175 27.7408 4.78175C27.7605 4.78175 27.8149 4.74069 27.8617 4.69052C27.9085 4.64034 27.9632 4.59928 27.9833 4.59928C28.0033 4.59928 28.058 4.55822 28.1048 4.50804C28.1516 4.45786 28.2063 4.41681 28.2263 4.41681C28.2463 4.41681 28.301 4.37575 28.3478 4.32557C28.3947 4.27539 28.4491 4.23434 28.4688 4.23434C28.4884 4.23434 28.5571 4.1796 28.6213 4.11269C28.6855 4.04578 28.7541 3.99104 28.7738 3.99104C28.7935 3.99104 28.8479 3.94999 28.8947 3.89981C28.9415 3.84963 28.996 3.80857 29.0156 3.80857C29.0353 3.80857 29.1039 3.75383 29.1682 3.68693C29.2324 3.62002 29.301 3.56528 29.3207 3.56528C29.3404 3.56528 29.3948 3.52422 29.4416 3.47404C29.4884 3.42386 29.5431 3.38281 29.5631 3.38281C29.5831 3.38281 29.6378 3.34175 29.6847 3.29157C29.7315 3.24139 29.7859 3.20034 29.8056 3.20034C29.8252 3.20034 29.8939 3.14559 29.9581 3.07869C30.0223 3.01178 30.0934 2.95704 30.1161 2.95704C30.1388 2.95704 30.1771 2.92967 30.2011 2.89622C30.2252 2.86276 30.2556 2.83539 30.2686 2.83539C30.2816 2.83539 30.2923 6.97903 30.2923 12.0435C30.2923 21.2166 30.2925 21.2517 30.3531 21.2954C30.3865 21.3195 30.4138 21.3577 30.4138 21.3803C30.4138 21.436 30.4898 21.5082 30.5484 21.5082C30.5746 21.5082 30.5961 21.5219 30.5961 21.5387C30.5961 21.5554 30.6235 21.5691 30.6569 21.5691C30.6903 21.5691 30.7176 21.5828 30.7176 21.5995C30.7176 21.6168 30.8088 21.6299 30.9303 21.6299C31.0518 21.6299 31.143 21.6168 31.143 21.5995C31.143 21.5828 31.1639 21.5691 31.1894 21.5691C31.2497 21.5691 31.5076 21.3109 31.5076 21.2505C31.5076 21.225 31.5213 21.2041 31.538 21.2041C31.5582 21.2041 31.5683 17.869 31.5683 11.2595C31.5683 4.64998 31.5582 1.3148 31.538 1.3148C31.5213 1.3148 31.5076 1.28743 31.5076 1.25398C31.5076 1.22053 31.4939 1.19316 31.4772 1.19316C31.4605 1.19316 31.4468 1.17202 31.4468 1.14617C31.4468 1.08532 31.3115 0.949862 31.2507 0.949862C31.2249 0.949862 31.2038 0.936176 31.2038 0.91945C31.2038 0.899226 26.1198 0.889038 16.0127 0.889038C5.90555 0.889038 0.821617 0.899226 0.821617 0.91945ZM28.9555 2.18291C28.9555 2.21396 28.8065 2.34881 28.7722 2.34881C28.7534 2.34881 28.6855 2.40355 28.6213 2.47045C28.5571 2.53736 28.4884 2.5921 28.4688 2.5921C28.4491 2.5921 28.3947 2.63316 28.3478 2.68334C28.301 2.73351 28.2463 2.77457 28.2263 2.77457C28.2063 2.77457 28.1516 2.81563 28.1048 2.86581C28.058 2.91599 28.0035 2.95704 27.9839 2.95704C27.9642 2.95704 27.8956 3.01178 27.8313 3.07869C27.7671 3.14559 27.6985 3.20034 27.6788 3.20034C27.6591 3.20034 27.6047 3.24139 27.5579 3.29157C27.5111 3.34175 27.4564 3.38281 27.4364 3.38281C27.4164 3.38281 27.3617 3.42386 27.3148 3.47404C27.268 3.52422 27.2136 3.56528 27.1939 3.56528C27.1743 3.56528 27.1056 3.62002 27.0414 3.68693C26.9772 3.75383 26.9085 3.80857 26.8889 3.80857C26.8692 3.80857 26.8148 3.84963 26.768 3.89981C26.7211 3.94999 26.6667 3.99104 26.647 3.99104C26.6274 3.99104 26.5588 4.04578 26.4945 4.11269C26.4303 4.1796 26.3617 4.23434 26.342 4.23434C26.3223 4.23434 26.2679 4.27539 26.2211 4.32557C26.1743 4.37575 26.1196 4.41681 26.0996 4.41681C26.0795 4.41681 26.0249 4.45786 25.978 4.50804C25.9312 4.55822 25.8765 4.59928 25.8565 4.59928C25.8365 4.59928 25.7818 4.64034 25.735 4.69052C25.6882 4.74069 25.6337 4.78175 25.6141 4.78175C25.5944 4.78175 25.5258 4.83649 25.4615 4.9034C25.3973 4.9703 25.3287 5.02504 25.309 5.02504C25.2893 5.02504 25.2349 5.0661 25.1881 5.11628C25.1413 5.16646 25.0866 5.20752 25.0666 5.20752C25.0465 5.20752 24.9919 5.24857 24.945 5.29875C24.8982 5.34893 24.8438 5.38999 24.8241 5.38999C24.8045 5.38999 24.7358 5.44473 24.6716 5.51163C24.6074 5.57854 24.5387 5.63328 24.5191 5.63328C24.4994 5.63328 24.445 5.67434 24.3982 5.72452C24.3513 5.7747 24.2969 5.81575 24.2772 5.81575C24.2576 5.81575 24.1889 5.87049 24.1247 5.9374C24.0605 6.00431 23.9919 6.05905 23.9722 6.05905C23.9525 6.05905 23.8981 6.1001 23.8513 6.15028C23.8045 6.20046 23.7498 6.24152 23.7298 6.24152C23.7097 6.24152 23.655 6.28257 23.6082 6.33275C23.5614 6.38293 23.507 6.42399 23.4873 6.42399C23.4676 6.42399 23.399 6.47873 23.3348 6.54564C23.2706 6.61254 23.2019 6.66728 23.1823 6.66728C23.1626 6.66728 23.1082 6.70834 23.0613 6.75852C23.0145 6.8087 22.9598 6.84975 22.9398 6.84975C22.9198 6.84975 22.8651 6.89081 22.8183 6.94099C22.7715 6.99117 22.7171 7.03222 22.6974 7.03222C22.6777 7.03222 22.6091 7.08697 22.5448 7.15387C22.4806 7.22078 22.412 7.27552 22.3923 7.27552C22.3726 7.27552 22.3182 7.31658 22.2714 7.36675C22.2246 7.41693 22.1699 7.45799 22.1499 7.45799C22.1299 7.45799 22.0752 7.49905 22.0284 7.54923C21.9815 7.59941 21.9271 7.64046 21.9074 7.64046C21.8878 7.64046 21.8191 7.6952 21.7549 7.76211C21.6907 7.82901 21.6221 7.88376 21.6024 7.88376C21.5827 7.88376 21.5283 7.92481 21.4815 7.97499C21.4347 8.02517 21.38 8.06623 21.3599 8.06623C21.3399 8.06623 21.2852 8.10728 21.2384 8.15746C21.1916 8.20764 21.1372 8.2487 21.1175 8.2487C21.0978 8.2487 21.0292 8.30344 20.965 8.37034C20.9007 8.43725 20.8321 8.49199 20.8125 8.49199C20.7928 8.49199 20.7384 8.53305 20.6915 8.58323C20.6447 8.63341 20.59 8.67446 20.57 8.67446C20.55 8.67446 20.4953 8.71552 20.4485 8.7657C20.4017 8.81588 20.3472 8.85693 20.3276 8.85693C20.3079 8.85693 20.2393 8.91167 20.175 8.97858C20.1108 9.04549 20.0422 9.10023 20.0225 9.10023C20.0028 9.10023 19.9484 9.14128 19.9016 9.19146C19.8548 9.24164 19.8001 9.2827 19.7801 9.2827C19.7601 9.2827 19.7054 9.32376 19.6585 9.37393C19.6117 9.42411 19.5573 9.46517 19.5376 9.46517C19.518 9.46517 19.4493 9.51991 19.3851 9.58682C19.3209 9.65372 19.2522 9.70846 19.2326 9.70846C19.2129 9.70846 19.1585 9.74952 19.1117 9.7997C19.0648 9.84988 19.0102 9.89093 18.9901 9.89093C18.9701 9.89093 18.9154 9.93199 18.8686 9.98217C18.8218 10.0324 18.7674 10.0734 18.7477 10.0734C18.728 10.0734 18.6594 10.1281 18.5952 10.1951C18.5309 10.262 18.4623 10.3167 18.4427 10.3167C18.423 10.3167 18.3686 10.3578 18.3217 10.4079C18.2749 10.4581 18.2202 10.4992 18.2002 10.4992C18.1802 10.4992 18.1255 10.5402 18.0787 10.5904C18.0319 10.6406 17.9774 10.6816 17.9578 10.6816C17.9381 10.6816 17.8695 10.7364 17.8052 10.8033C17.741 10.8702 17.6724 10.9249 17.6527 10.9249C17.633 10.9249 17.5786 10.966 17.5318 11.0162C17.485 11.0664 17.4303 11.1074 17.4103 11.1074C17.3902 11.1074 17.3356 11.1485 17.2887 11.1986C17.2419 11.2488 17.1875 11.2899 17.1678 11.2899C17.1482 11.2899 17.0795 11.3446 17.0153 11.4115C16.9511 11.4784 16.8824 11.5332 16.8628 11.5332C16.8431 11.5332 16.7887 11.5742 16.7419 11.6244C16.695 11.6746 16.6404 11.7156 16.6203 11.7156C16.6003 11.7156 16.5456 11.7567 16.4988 11.8069C16.452 11.8571 16.3976 11.8981 16.3779 11.8981C16.3582 11.8981 16.2896 11.9529 16.2254 12.0198C16.066 12.1858 15.9593 12.1858 15.8 12.0198C15.7358 11.9529 15.6672 11.8981 15.6475 11.8981C15.6278 11.8981 15.5734 11.8571 15.5266 11.8069C15.4798 11.7567 15.4251 11.7156 15.405 11.7156C15.385 11.7156 15.3303 11.6746 15.2835 11.6244C15.2367 11.5742 15.1823 11.5332 15.1626 11.5332C15.1429 11.5332 15.0743 11.4784 15.0101 11.4115C14.9459 11.3446 14.8772 11.2899 14.8576 11.2899C14.8379 11.2899 14.7835 11.2488 14.7366 11.1986C14.6898 11.1485 14.6351 11.1074 14.6151 11.1074C14.5951 11.1074 14.5404 11.0664 14.4936 11.0162C14.4468 10.966 14.3923 10.9249 14.3727 10.9249C14.353 10.9249 14.2844 10.8702 14.2201 10.8033C14.1559 10.7364 14.0873 10.6816 14.0676 10.6816C14.0479 10.6816 13.9935 10.6406 13.9467 10.5904C13.8999 10.5402 13.8452 10.4992 13.8252 10.4992C13.8052 10.4992 13.7505 10.4581 13.7036 10.4079C13.6568 10.3578 13.6024 10.3167 13.5827 10.3167C13.5631 10.3167 13.4944 10.262 13.4302 10.1951C13.366 10.1281 13.2973 10.0734 13.2777 10.0734C13.258 10.0734 13.2036 10.0324 13.1568 9.98217C13.1099 9.93199 13.0553 9.89093 13.0352 9.89093C13.0152 9.89093 12.9605 9.84988 12.9137 9.7997C12.8669 9.74952 12.8125 9.70846 12.7928 9.70846C12.7731 9.70846 12.7045 9.65372 12.6403 9.58682C12.576 9.51991 12.5074 9.46517 12.4878 9.46517C12.4681 9.46517 12.4137 9.42411 12.3668 9.37393C12.32 9.32376 12.2653 9.2827 12.2453 9.2827C12.2253 9.2827 12.1706 9.24164 12.1238 9.19146C12.077 9.14128 12.0225 9.10023 12.0029 9.10023C11.9832 9.10023 11.9146 9.04549 11.8503 8.97858C11.7861 8.91167 11.7175 8.85693 11.6978 8.85693C11.6781 8.85693 11.6237 8.81588 11.5769 8.7657C11.5301 8.71552 11.4754 8.67446 11.4554 8.67446C11.4353 8.67446 11.3807 8.63341 11.3338 8.58323C11.287 8.53305 11.2326 8.49199 11.2129 8.49199C11.1933 8.49199 11.1246 8.43725 11.0604 8.37034C10.9962 8.30344 10.9275 8.2487 10.9079 8.2487C10.8882 8.2487 10.8338 8.20764 10.787 8.15746C10.7401 8.10728 10.6855 8.06623 10.6654 8.06623C10.6454 8.06623 10.5907 8.02517 10.5439 7.97499C10.4971 7.92481 10.4427 7.88376 10.423 7.88376C10.4033 7.88376 10.3347 7.82901 10.2705 7.76211C10.2062 7.6952 10.1376 7.64046 10.1179 7.64046C10.0983 7.64046 10.0438 7.59941 9.99702 7.54923C9.95021 7.49905 9.89552 7.45799 9.8755 7.45799C9.85547 7.45799 9.80079 7.41693 9.75397 7.36675C9.70715 7.31658 9.65273 7.27552 9.63305 7.27552C9.61339 7.27552 9.54476 7.22078 9.48053 7.15387C9.4163 7.08697 9.34767 7.03222 9.32801 7.03222C9.30832 7.03222 9.25391 6.99117 9.20709 6.94099C9.16027 6.89081 9.10558 6.84975 9.08556 6.84975C9.06554 6.84975 9.01085 6.8087 8.96403 6.75852C8.91721 6.70834 8.8628 6.66728 8.84311 6.66728C8.82345 6.66728 8.75482 6.61254 8.69059 6.54564C8.62636 6.47873 8.55773 6.42399 8.53807 6.42399C8.51839 6.42399 8.46397 6.38293 8.41715 6.33275C8.37033 6.28257 8.31565 6.24152 8.29562 6.24152C8.2756 6.24152 8.22091 6.20046 8.1741 6.15028C8.12728 6.1001 8.07286 6.05905 8.05317 6.05905C8.03352 6.05905 7.96488 6.00431 7.90066 5.9374C7.83643 5.87049 7.7678 5.81575 7.74814 5.81575C7.72845 5.81575 7.67404 5.7747 7.62722 5.72452C7.5804 5.67434 7.52571 5.63328 7.50569 5.63328C7.48567 5.63328 7.43098 5.59223 7.38416 5.54205C7.33734 5.49187 7.28293 5.45081 7.26324 5.45081C7.24358 5.45081 7.17495 5.39607 7.11072 5.32916C7.04649 5.26226 6.97786 5.20752 6.9582 5.20752C6.93851 5.20752 6.8841 5.16646 6.83728 5.11628C6.79046 5.0661 6.73577 5.02504 6.71575 5.02504C6.69573 5.02504 6.64104 4.98399 6.59422 4.93381C6.54741 4.88363 6.49299 4.84257 6.4733 4.84257C6.45365 4.84257 6.38501 4.78783 6.32079 4.72093C6.25656 4.65402 6.18792 4.59928 6.16827 4.59928C6.14858 4.59928 6.09416 4.55822 6.04735 4.50804C6.00053 4.45786 5.94584 4.41681 5.92582 4.41681C5.9058 4.41681 5.85111 4.37575 5.80429 4.32557C5.75747 4.27539 5.70306 4.23434 5.68337 4.23434C5.66371 4.23434 5.59508 4.1796 5.53085 4.11269C5.46662 4.04578 5.39799 3.99104 5.37833 3.99104C5.35864 3.99104 5.30423 3.94999 5.25741 3.89981C5.21059 3.84963 5.15618 3.80857 5.13649 3.80857C5.11683 3.80857 5.0482 3.75383 4.98397 3.68693C4.91974 3.62002 4.85111 3.56528 4.83145 3.56528C4.81176 3.56528 4.75735 3.52422 4.71053 3.47404C4.66371 3.42386 4.60902 3.38281 4.589 3.38281C4.56898 3.38281 4.51429 3.34175 4.46747 3.29157C4.42066 3.24139 4.36624 3.20034 4.34655 3.20034C4.3269 3.20034 4.25826 3.14559 4.19403 3.07869C4.12981 3.01178 4.06117 2.95704 4.04152 2.95704C4.02183 2.95704 3.96741 2.91599 3.9206 2.86581C3.87378 2.81563 3.81909 2.77457 3.79907 2.77457C3.77905 2.77457 3.72436 2.73351 3.67754 2.68334C3.63072 2.63316 3.57603 2.5921 3.55601 2.5921C3.53599 2.5921 3.4813 2.55104 3.43448 2.50086C3.38766 2.45068 3.33386 2.40963 3.31493 2.40963C3.28099 2.40963 3.0699 2.21402 3.0699 2.18254C3.0699 2.17363 8.89415 2.16633 16.0127 2.16633C23.1312 2.16633 28.9555 2.17379 28.9555 2.18291ZM21.9068 12.8409C21.9068 12.8589 21.7954 12.8713 21.6334 12.8713C21.4714 12.8713 21.3599 12.8837 21.3599 12.9017C21.3599 12.9184 21.2916 12.9321 21.208 12.9321C21.1245 12.9321 21.0561 12.9458 21.0561 12.9625C21.0561 12.9793 21.0014 12.9929 20.9346 12.9929C20.8678 12.9929 20.8131 13.0066 20.8131 13.0234C20.8131 13.0401 20.7584 13.0538 20.6915 13.0538C20.6247 13.0538 20.57 13.0674 20.57 13.0842C20.57 13.1009 20.529 13.1146 20.4789 13.1146C20.4287 13.1146 20.3877 13.1283 20.3877 13.145C20.3877 13.1617 20.3467 13.1754 20.2966 13.1754C20.2464 13.1754 20.2054 13.1891 20.2054 13.2058C20.2054 13.2225 20.1644 13.2362 20.1143 13.2362C20.0641 13.2362 20.0231 13.2499 20.0231 13.2666C20.0231 13.2834 19.9821 13.2971 19.932 13.2971C19.8819 13.2971 19.8408 13.3107 19.8408 13.3275C19.8408 13.3442 19.8135 13.3579 19.7801 13.3579C19.7467 13.3579 19.7193 13.3716 19.7193 13.3883C19.7193 13.405 19.692 13.4187 19.6585 13.4187C19.6251 13.4187 19.5978 13.4324 19.5978 13.4491C19.5978 13.4658 19.5704 13.4795 19.537 13.4795C19.5036 13.4795 19.4763 13.4932 19.4763 13.5099C19.4763 13.5267 19.4489 13.5404 19.4155 13.5404C19.3821 13.5404 19.3547 13.554 19.3547 13.5708C19.3547 13.5875 19.3274 13.6012 19.294 13.6012C19.2605 13.6012 19.2332 13.6149 19.2332 13.6316C19.2332 13.6483 19.2059 13.662 19.1724 13.662C19.139 13.662 19.1117 13.6757 19.1117 13.6924C19.1117 13.7091 19.0873 13.7228 19.0576 13.7228C19.0279 13.7228 18.9839 13.7502 18.9598 13.7836C18.9357 13.8171 18.8946 13.8445 18.8686 13.8445C18.8426 13.8445 18.8016 13.8718 18.7775 13.9053C18.7534 13.9387 18.7124 13.9661 18.6863 13.9661C18.6603 13.9661 18.6193 13.9935 18.5952 14.0269C18.5711 14.0604 18.5328 14.0878 18.5101 14.0878C18.4874 14.0878 18.4163 14.1425 18.3521 14.2094C18.2879 14.2763 18.2205 14.3311 18.2023 14.3311C18.1841 14.3311 17.9848 14.5157 17.7594 14.7413C17.534 14.967 17.3495 15.1665 17.3495 15.1847C17.3495 15.2029 17.2948 15.2704 17.228 15.3347C17.1611 15.3989 17.1064 15.4676 17.1064 15.4873C17.1064 15.507 17.0654 15.5615 17.0153 15.6084C16.9652 15.6552 16.9242 15.7125 16.9242 15.7355C16.9242 15.7585 16.8968 15.7971 16.8634 15.8212C16.83 15.8454 16.8026 15.8894 16.8026 15.9192C16.8026 15.9489 16.789 15.9733 16.7722 15.9733C16.7555 15.9733 16.7419 15.9977 16.7419 16.0274C16.7419 16.0572 16.7145 16.1012 16.6811 16.1254C16.6477 16.1495 16.6203 16.1935 16.6203 16.2233C16.6203 16.2531 16.6067 16.2774 16.5899 16.2774C16.5732 16.2774 16.5596 16.3048 16.5596 16.3382C16.5596 16.3717 16.5459 16.3991 16.5292 16.3991C16.5125 16.3991 16.4988 16.4264 16.4988 16.4599C16.4988 16.4933 16.4851 16.5207 16.4684 16.5207C16.4517 16.5207 16.438 16.5481 16.438 16.5815C16.438 16.615 16.4244 16.6424 16.4077 16.6424C16.3909 16.6424 16.3773 16.6697 16.3773 16.7032C16.3773 16.7366 16.3636 16.764 16.3469 16.764C16.3302 16.764 16.3165 16.7914 16.3165 16.8248C16.3165 16.8583 16.3028 16.8857 16.2861 16.8857C16.2694 16.8857 16.2557 16.9267 16.2557 16.9769C16.2557 17.0271 16.2421 17.0681 16.2254 17.0681C16.2087 17.0681 16.195 17.0955 16.195 17.1289C16.195 17.1624 16.1813 17.1898 16.1646 17.1898C16.1479 17.1898 16.1342 17.2308 16.1342 17.281C16.1342 17.3312 16.1205 17.3722 16.1038 17.3722C16.0871 17.3722 16.0735 17.4133 16.0735 17.4635C16.0735 17.5137 16.0598 17.5547 16.0431 17.5547C16.0264 17.5547 16.0127 17.5958 16.0127 17.6459C16.0127 17.6961 15.999 17.7372 15.9823 17.7372C15.9656 17.7372 15.9519 17.7782 15.9519 17.8284C15.9519 17.8786 15.9383 17.9197 15.9215 17.9197C15.9048 17.9197 15.8912 17.9744 15.8912 18.0413C15.8912 18.1082 15.8775 18.1629 15.8608 18.1629C15.8441 18.1629 15.8304 18.2177 15.8304 18.2846C15.8304 18.3515 15.8167 18.4062 15.8 18.4062C15.7831 18.4062 15.7696 18.4874 15.7696 18.5887C15.7696 18.6901 15.7561 18.7712 15.7392 18.7712C15.7219 18.7712 15.7089 18.8624 15.7089 18.9841C15.7089 19.1057 15.6958 19.197 15.6785 19.197C15.6589 19.197 15.6481 19.5214 15.6481 20.1093C15.6481 20.6973 15.6589 21.0217 15.6785 21.0217C15.6958 21.0217 15.7089 21.1129 15.7089 21.2345C15.7089 21.3562 15.7219 21.4474 15.7392 21.4474C15.756 21.4474 15.7696 21.5159 15.7696 21.5995C15.7696 21.6831 15.7833 21.7515 15.8 21.7515C15.8167 21.7515 15.8304 21.7926 15.8304 21.8428C15.8304 21.893 15.8441 21.934 15.8608 21.934C15.8775 21.934 15.8912 21.9888 15.8912 22.0557C15.8912 22.1226 15.9048 22.1773 15.9215 22.1773C15.9383 22.1773 15.9519 22.2184 15.9519 22.2685C15.9519 22.3187 15.9656 22.3598 15.9823 22.3598C15.999 22.3598 16.0127 22.4008 16.0127 22.451C16.0127 22.5012 16.0264 22.5422 16.0431 22.5422C16.0598 22.5422 16.0735 22.5696 16.0735 22.6031C16.0735 22.6365 16.0871 22.6639 16.1038 22.6639C16.1205 22.6639 16.1342 22.6913 16.1342 22.7247C16.1342 22.7582 16.1479 22.7855 16.1646 22.7855C16.1813 22.7855 16.195 22.8266 16.195 22.8768C16.195 22.927 16.2087 22.968 16.2254 22.968C16.2421 22.968 16.2557 22.9954 16.2557 23.0288C16.2557 23.0623 16.2694 23.0897 16.2861 23.0897C16.3028 23.0897 16.3165 23.114 16.3165 23.1438C16.3165 23.1735 16.3439 23.2176 16.3773 23.2417C16.4107 23.2658 16.438 23.3099 16.438 23.3397C16.438 23.3694 16.4517 23.3938 16.4684 23.3938C16.4851 23.3938 16.4988 23.4181 16.4988 23.4479C16.4988 23.4777 16.5261 23.5217 16.5596 23.5458C16.593 23.57 16.6203 23.611 16.6203 23.6371C16.6203 23.6631 16.6477 23.7042 16.6811 23.7283C16.7145 23.7524 16.7419 23.7907 16.7419 23.8134C16.7419 23.8362 16.7965 23.9073 16.8634 23.9716C16.9302 24.0359 16.9849 24.1034 16.9849 24.1216C16.9849 24.1399 17.1283 24.2983 17.3036 24.4738C17.4788 24.6492 17.6371 24.7927 17.6554 24.7927C17.6736 24.7927 17.741 24.8475 17.8052 24.9144C17.8695 24.9813 17.9406 25.036 17.9633 25.036C17.9859 25.036 18.0242 25.0634 18.0483 25.0968C18.0724 25.1303 18.1134 25.1577 18.1394 25.1577C18.1655 25.1577 18.2065 25.185 18.2306 25.2185C18.2547 25.2519 18.2987 25.2793 18.3284 25.2793C18.3582 25.2793 18.3825 25.293 18.3825 25.3097C18.3825 25.3265 18.4098 25.3401 18.4433 25.3401C18.4767 25.3401 18.504 25.3538 18.504 25.3706C18.504 25.3873 18.5314 25.401 18.5648 25.401C18.5982 25.401 18.6256 25.4146 18.6256 25.4314C18.6256 25.4481 18.6529 25.4618 18.6863 25.4618C18.7197 25.4618 18.7471 25.4755 18.7471 25.4922C18.7471 25.5089 18.7744 25.5226 18.8078 25.5226C18.8413 25.5226 18.8686 25.5363 18.8686 25.553C18.8686 25.5697 18.896 25.5834 18.9294 25.5834C18.9628 25.5834 18.9901 25.5971 18.9901 25.6138C18.9901 25.6306 19.0175 25.6443 19.0509 25.6443C19.0843 25.6443 19.1117 25.6579 19.1117 25.6747C19.1117 25.6914 19.1527 25.7051 19.2028 25.7051C19.2529 25.7051 19.294 25.7188 19.294 25.7355C19.294 25.7522 19.335 25.7659 19.3851 25.7659C19.4352 25.7659 19.4763 25.7796 19.4763 25.7963C19.4763 25.813 19.5173 25.8267 19.5674 25.8267C19.6175 25.8267 19.6585 25.8404 19.6585 25.8571C19.6585 25.8739 19.6996 25.8876 19.7497 25.8876C19.7998 25.8876 19.8408 25.9012 19.8408 25.918C19.8408 25.9347 19.9092 25.9484 19.9928 25.9484C20.0763 25.9484 20.1447 25.9621 20.1447 25.9788C20.1447 25.9955 20.213 26.0092 20.2966 26.0092C20.3801 26.0092 20.4485 26.0229 20.4485 26.0396C20.4485 26.0579 20.57 26.07 20.7523 26.07C20.9346 26.07 21.0561 26.0822 21.0561 26.1004C21.0561 26.1191 21.208 26.1308 21.4511 26.1308C21.6941 26.1308 21.8461 26.1191 21.8461 26.1004C21.8461 26.0819 21.9879 26.07 22.2106 26.07C22.4334 26.07 22.5752 26.0582 22.5752 26.0396C22.5752 26.0227 22.6563 26.0092 22.7575 26.0092C22.8588 26.0092 22.9398 25.9957 22.9398 25.9788C22.9398 25.9621 23.0082 25.9484 23.0917 25.9484C23.1753 25.9484 23.2436 25.9347 23.2436 25.918C23.2436 25.9012 23.2983 25.8876 23.3652 25.8876C23.432 25.8876 23.4867 25.8739 23.4867 25.8571C23.4867 25.8404 23.5277 25.8267 23.5778 25.8267C23.628 25.8267 23.669 25.813 23.669 25.7963C23.669 25.7796 23.71 25.7659 23.7601 25.7659C23.8103 25.7659 23.8513 25.7522 23.8513 25.7355C23.8513 25.7188 23.8923 25.7051 23.9424 25.7051C23.9926 25.7051 24.0336 25.6914 24.0336 25.6747C24.0336 25.6579 24.0746 25.6443 24.1247 25.6443C24.1749 25.6443 24.2159 25.6306 24.2159 25.6138C24.2159 25.5971 24.2432 25.5834 24.2766 25.5834C24.3101 25.5834 24.3374 25.5697 24.3374 25.553C24.3374 25.5363 24.3647 25.5226 24.3982 25.5226C24.4316 25.5226 24.4589 25.5089 24.4589 25.4922C24.4589 25.4755 24.4863 25.4618 24.5197 25.4618C24.5531 25.4618 24.5805 25.4481 24.5805 25.4314C24.5805 25.4146 24.6019 25.401 24.6282 25.401C24.6947 25.401 24.7899 25.3036 24.7397 25.2868C24.7189 25.2799 24.702 25.2343 24.702 25.1856C24.702 25.1368 24.6883 25.0968 24.6716 25.0968C24.6549 25.0968 24.6412 25.0558 24.6412 25.0056C24.6412 24.9554 24.6275 24.9144 24.6108 24.9144C24.5941 24.9144 24.5805 24.887 24.5805 24.8535C24.5805 24.8201 24.5668 24.7927 24.5501 24.7927C24.5334 24.7927 24.5197 24.7517 24.5197 24.7015C24.5197 24.6513 24.506 24.6103 24.4893 24.6103C24.4726 24.6103 24.4589 24.5829 24.4589 24.5494C24.4589 24.516 24.4453 24.4886 24.4285 24.4886C24.4118 24.4886 24.3982 24.5023 24.3982 24.519C24.3982 24.5357 24.3571 24.5494 24.307 24.5494C24.2569 24.5494 24.2159 24.5631 24.2159 24.5798C24.2159 24.5966 24.1885 24.6103 24.1551 24.6103C24.1217 24.6103 24.0943 24.6239 24.0943 24.6407C24.0943 24.6574 24.067 24.6711 24.0336 24.6711C24.0002 24.6711 23.9728 24.6848 23.9728 24.7015C23.9728 24.7182 23.9318 24.7319 23.8817 24.7319C23.8315 24.7319 23.7905 24.7456 23.7905 24.7623C23.7905 24.779 23.7495 24.7927 23.6994 24.7927C23.6492 24.7927 23.6082 24.8064 23.6082 24.8231C23.6082 24.8399 23.5672 24.8535 23.5171 24.8535C23.4669 24.8535 23.4259 24.8672 23.4259 24.884C23.4259 24.9007 23.3712 24.9144 23.3044 24.9144C23.2376 24.9144 23.1829 24.9281 23.1829 24.9448C23.1829 24.9615 23.1282 24.9752 23.0613 24.9752C22.9945 24.9752 22.9398 24.9889 22.9398 25.0056C22.9398 25.0225 22.8588 25.036 22.7575 25.036C22.6563 25.036 22.5752 25.0495 22.5752 25.0664C22.5752 25.0849 22.4436 25.0968 22.241 25.0968C22.0385 25.0968 21.9068 25.1088 21.9068 25.1273C21.9068 25.1455 21.7853 25.1577 21.603 25.1577C21.4207 25.1577 21.2992 25.1455 21.2992 25.1273C21.2992 25.109 21.1777 25.0968 20.9954 25.0968C20.8131 25.0968 20.6915 25.0847 20.6915 25.0664C20.6915 25.0497 20.6232 25.036 20.5396 25.036C20.4561 25.036 20.3877 25.0223 20.3877 25.0056C20.3877 24.9889 20.333 24.9752 20.2662 24.9752C20.1993 24.9752 20.1447 24.9615 20.1447 24.9448C20.1447 24.9281 20.1036 24.9144 20.0535 24.9144C20.0034 24.9144 19.9624 24.9007 19.9624 24.884C19.9624 24.8672 19.9214 24.8535 19.8712 24.8535C19.8211 24.8535 19.7801 24.8399 19.7801 24.8231C19.7801 24.8064 19.7391 24.7927 19.6889 24.7927C19.6388 24.7927 19.5978 24.779 19.5978 24.7623C19.5978 24.7456 19.5704 24.7319 19.537 24.7319C19.5036 24.7319 19.4763 24.7182 19.4763 24.7015C19.4763 24.6848 19.4489 24.6711 19.4155 24.6711C19.3821 24.6711 19.3547 24.6574 19.3547 24.6407C19.3547 24.6239 19.3274 24.6103 19.294 24.6103C19.2605 24.6103 19.2332 24.5966 19.2332 24.5798C19.2332 24.5631 19.2059 24.5494 19.1724 24.5494C19.139 24.5494 19.1117 24.5357 19.1117 24.519C19.1117 24.5023 19.0843 24.4886 19.0509 24.4886C19.0175 24.4886 18.9901 24.4749 18.9901 24.4582C18.9901 24.4415 18.9658 24.4278 18.9361 24.4278C18.9063 24.4278 18.8623 24.4004 18.8382 24.367C18.8141 24.3335 18.7756 24.3061 18.7526 24.3061C18.7296 24.3061 18.6724 24.2651 18.6256 24.2149C18.5787 24.1647 18.5252 24.1237 18.5067 24.1237C18.4626 24.1237 17.8356 23.496 17.8356 23.452C17.8356 23.4334 17.7946 23.3798 17.7445 23.333C17.6943 23.2861 17.6533 23.2289 17.6533 23.2058C17.6533 23.1828 17.626 23.1442 17.5926 23.1201C17.5591 23.096 17.5318 23.0549 17.5318 23.0288C17.5318 23.0028 17.5045 22.9617 17.471 22.9376C17.4376 22.9135 17.4103 22.8694 17.4103 22.8396C17.4103 22.8099 17.3966 22.7855 17.3799 22.7855C17.3632 22.7855 17.3495 22.7582 17.3495 22.7247C17.3495 22.6913 17.3358 22.6639 17.3191 22.6639C17.3024 22.6639 17.2887 22.6365 17.2887 22.6031C17.2887 22.5696 17.2751 22.5422 17.2584 22.5422C17.2416 22.5422 17.228 22.5149 17.228 22.4814C17.228 22.448 17.2143 22.4206 17.1976 22.4206C17.1809 22.4206 17.1672 22.3795 17.1672 22.3294C17.1672 22.2792 17.1535 22.2381 17.1368 22.2381C17.1201 22.2381 17.1064 22.2108 17.1064 22.1773C17.1064 22.1439 17.0928 22.1165 17.0761 22.1165C17.0594 22.1165 17.0457 22.0754 17.0457 22.0252C17.0457 21.9751 17.032 21.934 17.0153 21.934C16.9986 21.934 16.9849 21.893 16.9849 21.8428C16.9849 21.7926 16.9712 21.7515 16.9545 21.7515C16.9378 21.7515 16.9242 21.6968 16.9242 21.6299C16.9242 21.563 16.9105 21.5082 16.8938 21.5082C16.8771 21.5082 16.8634 21.4398 16.8634 21.3562C16.8634 21.2726 16.8497 21.2041 16.833 21.2041C16.8157 21.2041 16.8026 21.1129 16.8026 20.9912C16.8026 20.8696 16.7896 20.7784 16.7722 20.7784C16.7527 20.7784 16.7419 20.4844 16.7419 19.9572C16.7419 19.4301 16.7527 19.1361 16.7722 19.1361C16.7896 19.1361 16.8026 19.0449 16.8026 18.9232C16.8026 18.8016 16.8157 18.7104 16.833 18.7104C16.8499 18.7104 16.8634 18.6293 16.8634 18.5279C16.8634 18.4265 16.8769 18.3454 16.8938 18.3454C16.9105 18.3454 16.9242 18.2907 16.9242 18.2238C16.9242 18.1569 16.9378 18.1021 16.9545 18.1021C16.9712 18.1021 16.9849 18.0474 16.9849 17.9805C16.9849 17.9136 16.9986 17.8588 17.0153 17.8588C17.032 17.8588 17.0457 17.8178 17.0457 17.7676C17.0457 17.7174 17.0594 17.6764 17.0761 17.6764C17.0928 17.6764 17.1064 17.6353 17.1064 17.5851C17.1064 17.5349 17.1201 17.4939 17.1368 17.4939C17.1535 17.4939 17.1672 17.4528 17.1672 17.4027C17.1672 17.3525 17.1809 17.3114 17.1976 17.3114C17.2143 17.3114 17.228 17.284 17.228 17.2506C17.228 17.2171 17.2416 17.1898 17.2584 17.1898C17.2751 17.1898 17.2887 17.1487 17.2887 17.0985C17.2887 17.0484 17.3024 17.0073 17.3191 17.0073C17.3358 17.0073 17.3495 16.9799 17.3495 16.9465C17.3495 16.913 17.3632 16.8857 17.3799 16.8857C17.3966 16.8857 17.4103 16.8583 17.4103 16.8248C17.4103 16.7914 17.4239 16.764 17.4406 16.764C17.4574 16.764 17.471 16.7366 17.471 16.7032C17.471 16.6697 17.4847 16.6424 17.5014 16.6424C17.5181 16.6424 17.5318 16.618 17.5318 16.5883C17.5318 16.5585 17.5591 16.5144 17.5926 16.4903C17.626 16.4662 17.6533 16.4221 17.6533 16.3923C17.6533 16.3626 17.667 16.3382 17.6837 16.3382C17.7004 16.3382 17.7141 16.3139 17.7141 16.2841C17.7141 16.2544 17.7414 16.2103 17.7749 16.1862C17.8083 16.1621 17.8356 16.121 17.8356 16.0949C17.8356 16.0689 17.863 16.0278 17.8964 16.0037C17.9298 15.9796 17.9571 15.9413 17.9571 15.9186C17.9571 15.8959 18.0118 15.8247 18.0787 15.7604C18.1455 15.6961 18.2002 15.6286 18.2002 15.6104C18.2002 15.5921 18.3436 15.4337 18.5189 15.2583C18.6941 15.0828 18.8524 14.9393 18.8706 14.9393C18.8888 14.9393 18.9563 14.8846 19.0205 14.8176C19.0847 14.7507 19.1558 14.696 19.1785 14.696C19.2012 14.696 19.2395 14.6686 19.2636 14.6352C19.2877 14.6017 19.3287 14.5744 19.3547 14.5744C19.3808 14.5744 19.4218 14.547 19.4459 14.5135C19.47 14.4801 19.514 14.4527 19.5437 14.4527C19.5734 14.4527 19.5978 14.439 19.5978 14.4223C19.5978 14.4056 19.6221 14.3919 19.6518 14.3919C19.6816 14.3919 19.7256 14.3645 19.7497 14.3311C19.7738 14.2976 19.8178 14.2702 19.8476 14.2702C19.8773 14.2702 19.9016 14.2566 19.9016 14.2398C19.9016 14.2231 19.9289 14.2094 19.9624 14.2094C19.9958 14.2094 20.0231 14.1957 20.0231 14.179C20.0231 14.1623 20.0641 14.1486 20.1143 14.1486C20.1644 14.1486 20.2054 14.1349 20.2054 14.1182C20.2054 14.1015 20.2328 14.0878 20.2662 14.0878C20.2996 14.0878 20.327 14.0741 20.327 14.0574C20.327 14.0406 20.368 14.0269 20.4181 14.0269C20.4682 14.0269 20.5092 14.0133 20.5092 13.9965C20.5092 13.9798 20.5366 13.9661 20.57 13.9661C20.6034 13.9661 20.6308 13.9524 20.6308 13.9357C20.6308 13.919 20.6855 13.9053 20.7523 13.9053C20.8191 13.9053 20.8738 13.8916 20.8738 13.8749C20.8738 13.8582 20.9148 13.8445 20.965 13.8445C21.0151 13.8445 21.0561 13.8308 21.0561 13.8141C21.0561 13.7973 21.1245 13.7836 21.208 13.7836C21.2916 13.7836 21.3599 13.77 21.3599 13.7532C21.3599 13.7359 21.4511 13.7228 21.5726 13.7228C21.6941 13.7228 21.7853 13.7098 21.7853 13.6924C21.7853 13.6731 22.0284 13.662 22.4537 13.662C22.8791 13.662 23.1221 13.6731 23.1221 13.6924C23.1221 13.7098 23.2133 13.7228 23.3348 13.7228C23.4563 13.7228 23.5475 13.7359 23.5475 13.7532C23.5475 13.77 23.6021 13.7836 23.669 13.7836C23.7358 13.7836 23.7905 13.7973 23.7905 13.8141C23.7905 13.8308 23.8452 13.8445 23.912 13.8445C23.9789 13.8445 24.0336 13.8582 24.0336 13.8749C24.0336 13.8916 24.0746 13.9053 24.1247 13.9053C24.1749 13.9053 24.2159 13.919 24.2159 13.9357C24.2159 13.9524 24.2432 13.9661 24.2766 13.9661C24.3101 13.9661 24.3374 13.9798 24.3374 13.9965C24.3374 14.0133 24.3784 14.0269 24.4285 14.0269C24.4787 14.0269 24.5197 14.0406 24.5197 14.0574C24.5197 14.0741 24.547 14.0878 24.5805 14.0878C24.6139 14.0878 24.6412 14.1015 24.6412 14.1182C24.6412 14.1349 24.6686 14.1486 24.702 14.1486C24.7354 14.1486 24.7627 14.1623 24.7627 14.179C24.7627 14.1957 24.7901 14.2094 24.8235 14.2094C24.8569 14.2094 24.8843 14.2231 24.8843 14.2398C24.8843 14.2566 24.9086 14.2702 24.9383 14.2702C24.9681 14.2702 25.0121 14.2976 25.0362 14.3311C25.0603 14.3645 25.1013 14.3919 25.1273 14.3919C25.1534 14.3919 25.1944 14.4193 25.2185 14.4527C25.2426 14.4862 25.2799 14.5135 25.3015 14.5135C25.3526 14.5135 26.0996 15.2613 26.0996 15.3124C26.0996 15.334 26.1269 15.3714 26.1603 15.3955C26.1937 15.4196 26.2211 15.4606 26.2211 15.4867C26.2211 15.5128 26.2484 15.5538 26.2819 15.5779C26.3153 15.6021 26.3426 15.6461 26.3426 15.6759C26.3426 15.7056 26.3563 15.73 26.373 15.73C26.3897 15.73 26.4034 15.7574 26.4034 15.7908C26.4034 15.8243 26.4171 15.8517 26.4338 15.8517C26.4505 15.8517 26.4641 15.879 26.4641 15.9125C26.4641 15.9459 26.4778 15.9733 26.4945 15.9733C26.5112 15.9733 26.5249 16.0007 26.5249 16.0341C26.5249 16.0676 26.5386 16.0949 26.5553 16.0949C26.572 16.0949 26.5857 16.1223 26.5857 16.1558C26.5857 16.1892 26.5993 16.2166 26.6161 16.2166C26.6328 16.2166 26.6464 16.244 26.6464 16.2774C26.6464 16.3109 26.6601 16.3382 26.6768 16.3382C26.6935 16.3382 26.7072 16.3793 26.7072 16.4295C26.7072 16.4797 26.7209 16.5207 26.7376 16.5207C26.7543 16.5207 26.768 16.5618 26.768 16.6119C26.768 16.6621 26.7816 16.7032 26.7983 16.7032C26.8151 16.7032 26.8287 16.7579 26.8287 16.8248C26.8287 16.8917 26.8424 16.9465 26.8591 16.9465C26.8758 16.9465 26.8895 17.0012 26.8895 17.0681C26.8895 17.135 26.9032 17.1898 26.9199 17.1898C26.9372 17.1898 26.9503 17.281 26.9503 17.4027C26.9503 17.5243 26.9633 17.6155 26.9806 17.6155C27.0001 17.6155 27.011 17.8994 27.011 18.4062C27.011 18.9131 27.0001 19.197 26.9806 19.197C26.9638 19.197 26.9503 19.2781 26.9503 19.3794C26.9503 19.4808 26.9368 19.5619 26.9199 19.5619C26.9032 19.5619 26.8895 19.6166 26.8895 19.6835C26.8895 19.7504 26.8758 19.8052 26.8591 19.8052C26.8424 19.8052 26.8287 19.8462 26.8287 19.8964C26.8287 19.9466 26.8151 19.9877 26.7983 19.9877C26.7816 19.9877 26.768 20.0287 26.768 20.0789C26.768 20.1291 26.7543 20.1701 26.7376 20.1701C26.7209 20.1701 26.7072 20.2112 26.7072 20.2614C26.7072 20.3115 26.6935 20.3526 26.6768 20.3526C26.6601 20.3526 26.6464 20.38 26.6464 20.4134C26.6464 20.4469 26.6328 20.4742 26.6161 20.4742C26.5993 20.4742 26.5857 20.5016 26.5857 20.5351C26.5857 20.5685 26.572 20.5959 26.5553 20.5959C26.5386 20.5959 26.5249 20.6233 26.5249 20.6567C26.5249 20.6902 26.5112 20.7175 26.4945 20.7175C26.4778 20.7175 26.4641 20.7449 26.4641 20.7784C26.4641 20.8118 26.4505 20.8392 26.4338 20.8392C26.4171 20.8392 26.4034 20.8635 26.4034 20.8933C26.4034 20.9231 26.376 20.9671 26.3426 20.9912C26.3092 21.0154 26.2819 21.0528 26.2819 21.0744C26.2819 21.1297 25.7761 21.6299 25.7202 21.6299C25.6949 21.6299 25.6742 21.6436 25.6742 21.6603C25.6742 21.677 25.6469 21.6907 25.6134 21.6907C25.58 21.6907 25.5527 21.7044 25.5527 21.7211C25.5527 21.7379 25.5253 21.7515 25.4919 21.7515C25.4585 21.7515 25.4312 21.7652 25.4312 21.782C25.4312 21.7987 25.4038 21.8124 25.3704 21.8124C25.337 21.8124 25.3096 21.8261 25.3096 21.8428C25.3096 21.861 25.1881 21.8732 25.0058 21.8732C24.8235 21.8732 24.702 21.861 24.702 21.8428C24.702 21.8261 24.681 21.8124 24.6554 21.8124C24.5949 21.8124 24.3982 21.6154 24.3982 21.5549C24.3982 21.5292 24.3845 21.5082 24.3678 21.5082C24.3511 21.5082 24.3374 21.4535 24.3374 21.3866C24.3374 21.3197 24.3237 21.265 24.307 21.265C24.2879 21.265 24.2766 21.0622 24.2766 20.7175C24.2766 20.3729 24.2879 20.1701 24.307 20.1701C24.3239 20.1701 24.3374 20.089 24.3374 19.9877C24.3374 19.8863 24.3509 19.8052 24.3678 19.8052C24.3847 19.8052 24.3982 19.7241 24.3982 19.6227C24.3982 19.5214 24.4116 19.4402 24.4285 19.4402C24.4453 19.4402 24.4589 19.3718 24.4589 19.2882C24.4589 19.2046 24.4726 19.1361 24.4893 19.1361C24.506 19.1361 24.5197 19.0677 24.5197 18.9841C24.5197 18.9004 24.5334 18.832 24.5501 18.832C24.567 18.832 24.5805 18.7509 24.5805 18.6495C24.5805 18.5482 24.5939 18.4671 24.6108 18.4671C24.6275 18.4671 24.6412 18.3986 24.6412 18.315C24.6412 18.2314 24.6549 18.1629 24.6716 18.1629C24.6883 18.1629 24.702 18.0945 24.702 18.0109C24.702 17.9273 24.7157 17.8588 24.7324 17.8588C24.7491 17.8588 24.7627 17.7904 24.7627 17.7068C24.7627 17.6231 24.7764 17.5547 24.7931 17.5547C24.81 17.5547 24.8235 17.4736 24.8235 17.3722C24.8235 17.2709 24.837 17.1898 24.8539 17.1898C24.8706 17.1898 24.8843 17.1213 24.8843 17.0377C24.8843 16.9541 24.8979 16.8857 24.9147 16.8857C24.9314 16.8857 24.945 16.8172 24.945 16.7336C24.945 16.65 24.9587 16.5815 24.9754 16.5815C24.9921 16.5815 25.0058 16.5131 25.0058 16.4295C25.0058 16.2977 24.9977 16.2774 24.945 16.2774C24.9116 16.2774 24.8843 16.2637 24.8843 16.247C24.8843 16.2303 24.8433 16.2166 24.7931 16.2166C24.743 16.2166 24.702 16.2029 24.702 16.1862C24.702 16.1695 24.6473 16.1558 24.5805 16.1558C24.5136 16.1558 24.4589 16.1421 24.4589 16.1254C24.4589 16.1086 24.4179 16.0949 24.3678 16.0949C24.3176 16.0949 24.2766 16.0813 24.2766 16.0645C24.2766 16.0478 24.2083 16.0341 24.1247 16.0341C24.0412 16.0341 23.9728 16.0204 23.9728 16.0037C23.9728 15.986 23.8715 15.9733 23.7298 15.9733C23.588 15.9733 23.4867 15.9606 23.4867 15.9429C23.4867 15.924 23.3145 15.9125 23.031 15.9125C22.7474 15.9125 22.5752 15.924 22.5752 15.9429C22.5752 15.9603 22.4841 15.9733 22.3626 15.9733C22.241 15.9733 22.1499 15.9863 22.1499 16.0037C22.1499 16.0204 22.0952 16.0341 22.0284 16.0341C21.9615 16.0341 21.9068 16.0478 21.9068 16.0645C21.9068 16.0813 21.8521 16.0949 21.7853 16.0949C21.7185 16.0949 21.6638 16.1086 21.6638 16.1254C21.6638 16.1421 21.6228 16.1558 21.5726 16.1558C21.5225 16.1558 21.4815 16.1695 21.4815 16.1862C21.4815 16.2029 21.4405 16.2166 21.3903 16.2166C21.3402 16.2166 21.2992 16.2303 21.2992 16.247C21.2992 16.2637 21.2718 16.2774 21.2384 16.2774C21.205 16.2774 21.1777 16.2911 21.1777 16.3078C21.1777 16.3246 21.1503 16.3382 21.1169 16.3382C21.0835 16.3382 21.0561 16.3519 21.0561 16.3687C21.0561 16.3854 21.0288 16.3991 20.9954 16.3991C20.9619 16.3991 20.9346 16.4127 20.9346 16.4295C20.9346 16.4462 20.9073 16.4599 20.8738 16.4599C20.8404 16.4599 20.8131 16.4736 20.8131 16.4903C20.8131 16.507 20.7887 16.5207 20.759 16.5207C20.7293 16.5207 20.6852 16.5481 20.6612 16.5815C20.6371 16.615 20.596 16.6424 20.57 16.6424C20.544 16.6424 20.503 16.6697 20.4789 16.7032C20.4548 16.7366 20.4162 16.764 20.3932 16.764C20.3702 16.764 20.313 16.8051 20.2662 16.8552C20.2194 16.9054 20.1658 16.9465 20.1473 16.9465C20.1032 16.9465 19.537 17.5132 19.537 17.5573C19.537 17.5759 19.496 17.6295 19.4459 17.6764C19.3957 17.7232 19.3547 17.7805 19.3547 17.8035C19.3547 17.8265 19.3274 17.8651 19.294 17.8892C19.2605 17.9134 19.2332 17.9544 19.2332 17.9805C19.2332 18.0065 19.2059 18.0476 19.1724 18.0717C19.139 18.0958 19.1117 18.1399 19.1117 18.1697C19.1117 18.1994 19.098 18.2238 19.0813 18.2238C19.0646 18.2238 19.0509 18.2511 19.0509 18.2846C19.0509 18.318 19.0372 18.3454 19.0205 18.3454C19.0038 18.3454 18.9901 18.3728 18.9901 18.4062C18.9901 18.4397 18.9765 18.4671 18.9598 18.4671C18.943 18.4671 18.9294 18.4944 18.9294 18.5279C18.9294 18.5613 18.9157 18.5887 18.899 18.5887C18.8823 18.5887 18.8686 18.6161 18.8686 18.6495C18.8686 18.683 18.8549 18.7104 18.8382 18.7104C18.8215 18.7104 18.8078 18.7377 18.8078 18.7712C18.8078 18.8046 18.7942 18.832 18.7775 18.832C18.7608 18.832 18.7471 18.8731 18.7471 18.9232C18.7471 18.9734 18.7334 19.0145 18.7167 19.0145C18.7 19.0145 18.6863 19.0555 18.6863 19.1057C18.6863 19.1559 18.6726 19.197 18.6559 19.197C18.6392 19.197 18.6256 19.2517 18.6256 19.3186C18.6256 19.3855 18.6119 19.4402 18.5952 19.4402C18.5785 19.4402 18.5648 19.5087 18.5648 19.5923C18.5648 19.6759 18.5511 19.7444 18.5344 19.7444C18.5151 19.7444 18.504 19.9877 18.504 20.4134C18.504 20.8392 18.5151 21.0825 18.5344 21.0825C18.5511 21.0825 18.5648 21.1372 18.5648 21.2041C18.5648 21.271 18.5785 21.3258 18.5952 21.3258C18.6119 21.3258 18.6256 21.3668 18.6256 21.417C18.6256 21.4672 18.6392 21.5082 18.6559 21.5082C18.6726 21.5082 18.6863 21.5356 18.6863 21.5691C18.6863 21.6025 18.7 21.6299 18.7167 21.6299C18.7334 21.6299 18.7471 21.6573 18.7471 21.6907C18.7471 21.7242 18.7608 21.7515 18.7775 21.7515C18.7942 21.7515 18.8078 21.7789 18.8078 21.8124C18.8078 21.8458 18.8215 21.8732 18.8382 21.8732C18.8549 21.8732 18.8686 21.8948 18.8686 21.9212C18.8686 21.9476 18.9233 22.0218 18.9901 22.0861C19.057 22.1504 19.1117 22.2187 19.1117 22.2379C19.1117 22.2834 19.1884 22.3598 19.234 22.3598C19.2536 22.3598 19.3079 22.4008 19.3547 22.451C19.4015 22.5012 19.4587 22.5422 19.4817 22.5422C19.5048 22.5422 19.5433 22.5696 19.5674 22.6031C19.5915 22.6365 19.6355 22.6639 19.6653 22.6639C19.695 22.6639 19.7193 22.6776 19.7193 22.6943C19.7193 22.711 19.7603 22.7247 19.8105 22.7247C19.8606 22.7247 19.9016 22.7384 19.9016 22.7551C19.9016 22.7719 19.9426 22.7855 19.9928 22.7855C20.0429 22.7855 20.0839 22.7992 20.0839 22.816C20.0839 22.835 20.2763 22.8464 20.6004 22.8464C20.9245 22.8464 21.1169 22.835 21.1169 22.816C21.1169 22.7992 21.1716 22.7855 21.2384 22.7855C21.3053 22.7855 21.3599 22.7719 21.3599 22.7551C21.3599 22.7384 21.401 22.7247 21.4511 22.7247C21.5012 22.7247 21.5422 22.711 21.5422 22.6943C21.5422 22.6776 21.5696 22.6639 21.603 22.6639C21.6364 22.6639 21.6638 22.6502 21.6638 22.6335C21.6638 22.6168 21.6911 22.6031 21.7245 22.6031C21.758 22.6031 21.7853 22.5894 21.7853 22.5727C21.7853 22.5559 21.8126 22.5422 21.8461 22.5422C21.8795 22.5422 21.9068 22.5286 21.9068 22.5118C21.9068 22.4951 21.9312 22.4814 21.9609 22.4814C21.9906 22.4814 22.0346 22.4541 22.0587 22.4206C22.0828 22.3871 22.1214 22.3598 22.1444 22.3598C22.1674 22.3598 22.2246 22.3187 22.2714 22.2685C22.3182 22.2184 22.3719 22.1773 22.3906 22.1773C22.4346 22.1773 22.7575 21.8546 22.7575 21.8106C22.7575 21.7922 22.8122 21.7246 22.8791 21.6603C22.9459 21.596 23.0006 21.5249 23.0006 21.5021C23.0006 21.4794 23.0279 21.4411 23.0613 21.417C23.0948 21.3929 23.1221 21.3547 23.1221 21.3321C23.1221 21.2913 23.1931 21.2041 23.2263 21.2041C23.2358 21.2041 23.2436 21.2726 23.2436 21.3562C23.2436 21.4398 23.2573 21.5082 23.274 21.5082C23.2909 21.5082 23.3044 21.5894 23.3044 21.6907C23.3044 21.7921 23.3179 21.8732 23.3348 21.8732C23.3515 21.8732 23.3652 21.9142 23.3652 21.9644C23.3652 22.0146 23.3788 22.0557 23.3955 22.0557C23.4123 22.0557 23.4259 22.083 23.4259 22.1165C23.4259 22.1499 23.4396 22.1773 23.4563 22.1773C23.473 22.1773 23.4867 22.1981 23.4867 22.2235C23.4867 22.2836 23.8666 22.6639 23.9267 22.6639C23.9521 22.6639 23.9728 22.6776 23.9728 22.6943C23.9728 22.711 24.0002 22.7247 24.0336 22.7247C24.067 22.7247 24.0943 22.7384 24.0943 22.7551C24.0943 22.7719 24.1354 22.7855 24.1855 22.7855C24.2356 22.7855 24.2766 22.7992 24.2766 22.816C24.2766 22.8349 24.4488 22.8464 24.7324 22.8464C25.0159 22.8464 25.1881 22.8349 25.1881 22.816C25.1881 22.7992 25.2565 22.7855 25.34 22.7855C25.4236 22.7855 25.4919 22.7719 25.4919 22.7551C25.4919 22.7384 25.5329 22.7247 25.5831 22.7247C25.6332 22.7247 25.6742 22.711 25.6742 22.6943C25.6742 22.6776 25.7016 22.6639 25.735 22.6639C25.7684 22.6639 25.7957 22.6502 25.7957 22.6335C25.7957 22.6168 25.8231 22.6031 25.8565 22.6031C25.8899 22.6031 25.9173 22.5894 25.9173 22.5727C25.9173 22.5559 25.9446 22.5422 25.978 22.5422C26.0115 22.5422 26.0388 22.5286 26.0388 22.5118C26.0388 22.4951 26.0631 22.4814 26.0928 22.4814C26.1226 22.4814 26.1666 22.4541 26.1907 22.4206C26.2148 22.3871 26.2558 22.3598 26.2819 22.3598C26.3079 22.3598 26.3489 22.3324 26.373 22.299C26.3971 22.2655 26.4345 22.2381 26.4561 22.2381C26.5073 22.2381 27.0718 21.673 27.0718 21.6218C27.0718 21.6002 27.0991 21.5628 27.1326 21.5387C27.166 21.5145 27.1933 21.4735 27.1933 21.4474C27.1933 21.4214 27.2207 21.3803 27.2541 21.3562C27.2875 21.3321 27.3148 21.291 27.3148 21.265C27.3148 21.2389 27.3422 21.1978 27.3756 21.1737C27.409 21.1496 27.4364 21.1055 27.4364 21.0758C27.4364 21.046 27.45 21.0217 27.4668 21.0217C27.4835 21.0217 27.4971 20.9943 27.4971 20.9608C27.4971 20.9274 27.5108 20.9 27.5275 20.9C27.5442 20.9 27.5579 20.8726 27.5579 20.8392C27.5579 20.8057 27.5716 20.7784 27.5883 20.7784C27.605 20.7784 27.6187 20.7373 27.6187 20.6871C27.6187 20.6369 27.6323 20.5959 27.649 20.5959C27.6658 20.5959 27.6794 20.5685 27.6794 20.5351C27.6794 20.5016 27.6931 20.4742 27.7098 20.4742C27.7265 20.4742 27.7402 20.4332 27.7402 20.383C27.7402 20.3328 27.7539 20.2918 27.7706 20.2918C27.7873 20.2918 27.801 20.2507 27.801 20.2005C27.801 20.1504 27.8146 20.1093 27.8313 20.1093C27.8481 20.1093 27.8617 20.0546 27.8617 19.9877C27.8617 19.9208 27.8754 19.866 27.8921 19.866C27.9088 19.866 27.9225 19.7976 27.9225 19.714C27.9225 19.6303 27.9362 19.5619 27.9529 19.5619C27.9698 19.5619 27.9833 19.4808 27.9833 19.3794C27.9833 19.2781 27.9967 19.197 28.0136 19.197C28.0332 19.197 28.044 18.8928 28.044 18.3454C28.044 17.798 28.0332 17.4939 28.0136 17.4939C27.9967 17.4939 27.9833 17.4128 27.9833 17.3114C27.9833 17.2101 27.9698 17.1289 27.9529 17.1289C27.9362 17.1289 27.9225 17.0605 27.9225 16.9769C27.9225 16.8933 27.9088 16.8248 27.8921 16.8248C27.8754 16.8248 27.8617 16.7701 27.8617 16.7032C27.8617 16.6363 27.8481 16.5815 27.8313 16.5815C27.8146 16.5815 27.801 16.5405 27.801 16.4903C27.801 16.4401 27.7873 16.3991 27.7706 16.3991C27.7539 16.3991 27.7402 16.358 27.7402 16.3078C27.7402 16.2576 27.7265 16.2166 27.7098 16.2166C27.6931 16.2166 27.6794 16.1892 27.6794 16.1558C27.6794 16.1223 27.6658 16.0949 27.649 16.0949C27.6323 16.0949 27.6187 16.0539 27.6187 16.0037C27.6187 15.9535 27.605 15.9125 27.5883 15.9125C27.5716 15.9125 27.5579 15.8851 27.5579 15.8517C27.5579 15.8182 27.5442 15.7908 27.5275 15.7908C27.5108 15.7908 27.4971 15.7635 27.4971 15.73C27.4971 15.6966 27.4835 15.6692 27.4668 15.6692C27.45 15.6692 27.4364 15.6418 27.4364 15.6084C27.4364 15.5749 27.4227 15.5475 27.406 15.5475C27.3893 15.5475 27.3756 15.5202 27.3756 15.4867C27.3756 15.4533 27.3619 15.4259 27.3452 15.4259C27.3285 15.4259 27.3148 15.4015 27.3148 15.3718C27.3148 15.342 27.2875 15.2979 27.2541 15.2738C27.2207 15.2497 27.1933 15.2087 27.1933 15.1826C27.1933 15.1565 27.166 15.1155 27.1326 15.0914C27.0991 15.0672 27.0718 15.0286 27.0718 15.0056C27.0718 14.9826 27.0308 14.9253 26.9806 14.8785C26.9305 14.8316 26.8895 14.7781 26.8895 14.7595C26.8895 14.7155 26.1408 13.9661 26.0969 13.9661C26.0783 13.9661 26.0249 13.9251 25.978 13.8749C25.9312 13.8247 25.874 13.7836 25.851 13.7836C25.828 13.7836 25.7894 13.7563 25.7654 13.7228C25.7413 13.6894 25.6972 13.662 25.6675 13.662C25.6378 13.662 25.6134 13.6483 25.6134 13.6316C25.6134 13.6149 25.5891 13.6012 25.5594 13.6012C25.5297 13.6012 25.4856 13.5738 25.4615 13.5404C25.4374 13.5069 25.3934 13.4795 25.3637 13.4795C25.334 13.4795 25.3096 13.4658 25.3096 13.4491C25.3096 13.4324 25.2823 13.4187 25.2489 13.4187C25.2154 13.4187 25.1881 13.405 25.1881 13.3883C25.1881 13.3716 25.1608 13.3579 25.1273 13.3579C25.0939 13.3579 25.0666 13.3442 25.0666 13.3275C25.0666 13.3107 25.0256 13.2971 24.9754 13.2971C24.9253 13.2971 24.8843 13.2834 24.8843 13.2666C24.8843 13.2499 24.8569 13.2362 24.8235 13.2362C24.7901 13.2362 24.7627 13.2225 24.7627 13.2058C24.7627 13.1891 24.7217 13.1754 24.6716 13.1754C24.6215 13.1754 24.5805 13.1617 24.5805 13.145C24.5805 13.1283 24.5394 13.1146 24.4893 13.1146C24.4392 13.1146 24.3982 13.1009 24.3982 13.0842C24.3982 13.0674 24.3571 13.0538 24.307 13.0538C24.2569 13.0538 24.2159 13.0401 24.2159 13.0234C24.2159 13.0066 24.1612 12.9929 24.0943 12.9929C24.0275 12.9929 23.9728 12.9793 23.9728 12.9625C23.9728 12.9458 23.9044 12.9321 23.8209 12.9321C23.7373 12.9321 23.669 12.9184 23.669 12.9017C23.669 12.884 23.5677 12.8713 23.4259 12.8713C23.2841 12.8713 23.1829 12.8586 23.1829 12.8409C23.1829 12.8216 22.9499 12.8105 22.5448 12.8105C22.1398 12.8105 21.9068 12.8216 21.9068 12.8409ZM23.0613 16.9769C23.0613 16.9943 23.1525 17.0073 23.274 17.0073C23.3955 17.0073 23.4867 17.0203 23.4867 17.0377C23.4867 17.0544 23.5277 17.0681 23.5778 17.0681C23.6487 17.0681 23.669 17.0816 23.669 17.1289C23.669 17.1624 23.6553 17.1898 23.6386 17.1898C23.6219 17.1898 23.6082 17.2582 23.6082 17.3418C23.6082 17.4255 23.5946 17.4939 23.5778 17.4939C23.5611 17.4939 23.5475 17.5486 23.5475 17.6155C23.5475 17.6824 23.5338 17.7372 23.5171 17.7372C23.5004 17.7372 23.4867 17.8056 23.4867 17.8892C23.4867 17.9729 23.473 18.0413 23.4563 18.0413C23.4396 18.0413 23.4259 18.1097 23.4259 18.1934C23.4259 18.277 23.4123 18.3454 23.3955 18.3454C23.3788 18.3454 23.3652 18.4138 23.3652 18.4975C23.3652 18.5811 23.3515 18.6495 23.3348 18.6495C23.3181 18.6495 23.3044 18.7043 23.3044 18.7712C23.3044 18.8381 23.2907 18.8928 23.274 18.8928C23.2573 18.8928 23.2436 18.9613 23.2436 19.0449C23.2436 19.1285 23.23 19.197 23.2133 19.197C23.1965 19.197 23.1829 19.2654 23.1829 19.349C23.1829 19.4326 23.1692 19.5011 23.1525 19.5011C23.1358 19.5011 23.1221 19.5421 23.1221 19.5923C23.1221 19.6425 23.1084 19.6835 23.0917 19.6835C23.075 19.6835 23.0613 19.7246 23.0613 19.7748C23.0613 19.825 23.0477 19.866 23.031 19.866C23.0143 19.866 23.0006 19.8934 23.0006 19.9268C23.0006 19.9603 22.9869 19.9877 22.9702 19.9877C22.9535 19.9877 22.9398 20.0287 22.9398 20.0789C22.9398 20.1291 22.9261 20.1701 22.9094 20.1701C22.8927 20.1701 22.8791 20.1945 22.8791 20.2242C22.8791 20.254 22.8517 20.2981 22.8183 20.3222C22.7849 20.3463 22.7575 20.3904 22.7575 20.4201C22.7575 20.4499 22.7439 20.4742 22.7271 20.4742C22.7104 20.4742 22.6968 20.4986 22.6968 20.5283C22.6968 20.5581 22.6694 20.6022 22.636 20.6263C22.6026 20.6504 22.5752 20.6887 22.5752 20.7114C22.5752 20.7341 22.5205 20.8053 22.4537 20.8696C22.3869 20.9339 22.3322 21.0016 22.3322 21.0201C22.3322 21.0642 22.0703 21.3258 22.0262 21.3258C22.0074 21.3258 21.9536 21.3668 21.9068 21.417C21.86 21.4672 21.8028 21.5082 21.7798 21.5082C21.7568 21.5082 21.7182 21.5356 21.6941 21.5691C21.6701 21.6025 21.626 21.6299 21.5963 21.6299C21.5666 21.6299 21.5422 21.6436 21.5422 21.6603C21.5422 21.677 21.5149 21.6907 21.4815 21.6907C21.4481 21.6907 21.4207 21.7044 21.4207 21.7211C21.4207 21.7379 21.3797 21.7515 21.3296 21.7515C21.2794 21.7515 21.2384 21.7652 21.2384 21.782C21.2384 21.8005 21.0966 21.8124 20.8738 21.8124C20.651 21.8124 20.5092 21.8005 20.5092 21.782C20.5092 21.7652 20.4682 21.7515 20.4181 21.7515C20.368 21.7515 20.327 21.7379 20.327 21.7211C20.327 21.7044 20.3026 21.6907 20.2729 21.6907C20.2432 21.6907 20.1991 21.6633 20.175 21.6299C20.1509 21.5964 20.1131 21.5691 20.091 21.5691C20.0356 21.5691 19.9016 21.4302 19.9016 21.3728C19.9016 21.3469 19.8879 21.3258 19.8712 21.3258C19.8545 21.3258 19.8408 21.2984 19.8408 21.265C19.8408 21.2315 19.8272 21.2041 19.8105 21.2041C19.7937 21.2041 19.7801 21.1768 19.7801 21.1433C19.7801 21.1099 19.7664 21.0825 19.7497 21.0825C19.733 21.0825 19.7193 21.0414 19.7193 20.9912C19.7193 20.9411 19.7056 20.9 19.6889 20.9C19.6698 20.9 19.6585 20.6973 19.6585 20.3526C19.6585 20.0079 19.6698 19.8052 19.6889 19.8052C19.7056 19.8052 19.7193 19.7368 19.7193 19.6531C19.7193 19.5695 19.733 19.5011 19.7497 19.5011C19.7664 19.5011 19.7801 19.4463 19.7801 19.3794C19.7801 19.3125 19.7937 19.2578 19.8105 19.2578C19.8272 19.2578 19.8408 19.2167 19.8408 19.1665C19.8408 19.1164 19.8545 19.0753 19.8712 19.0753C19.8879 19.0753 19.9016 19.0479 19.9016 19.0145C19.9016 18.981 19.9153 18.9537 19.932 18.9537C19.9487 18.9537 19.9624 18.9263 19.9624 18.8928C19.9624 18.8594 19.976 18.832 19.9928 18.832C20.0095 18.832 20.0231 18.8046 20.0231 18.7712C20.0231 18.7377 20.0368 18.7104 20.0535 18.7104C20.0702 18.7104 20.0839 18.683 20.0839 18.6495C20.0839 18.6161 20.0976 18.5887 20.1143 18.5887C20.131 18.5887 20.1447 18.5613 20.1447 18.5279C20.1447 18.4944 20.1583 18.4671 20.175 18.4671C20.1918 18.4671 20.2054 18.4427 20.2054 18.413C20.2054 18.3832 20.2328 18.3391 20.2662 18.315C20.2996 18.2909 20.327 18.2535 20.327 18.232C20.327 18.2104 20.484 18.0355 20.676 17.8433C20.868 17.6511 21.0427 17.4939 21.0643 17.4939C21.0858 17.4939 21.1232 17.4665 21.1473 17.4331C21.1714 17.3996 21.2154 17.3722 21.2451 17.3722C21.2748 17.3722 21.2992 17.3586 21.2992 17.3418C21.2992 17.3251 21.3265 17.3114 21.3599 17.3114C21.3934 17.3114 21.4207 17.2977 21.4207 17.281C21.4207 17.2643 21.4481 17.2506 21.4815 17.2506C21.5149 17.2506 21.5422 17.2369 21.5422 17.2202C21.5422 17.2035 21.5696 17.1898 21.603 17.1898C21.6364 17.1898 21.6638 17.1761 21.6638 17.1594C21.6638 17.1426 21.7048 17.1289 21.7549 17.1289C21.805 17.1289 21.8461 17.1153 21.8461 17.0985C21.8461 17.0818 21.8871 17.0681 21.9372 17.0681C21.9873 17.0681 22.0284 17.0544 22.0284 17.0377C22.0284 17.0208 22.1094 17.0073 22.2106 17.0073C22.3119 17.0073 22.3929 16.9938 22.3929 16.9769C22.3929 16.9585 22.5246 16.9465 22.7271 16.9465C22.9297 16.9465 23.0613 16.9585 23.0613 16.9769Z" fill="#363636" stroke="#363636" stroke-width="0.5"/>
</svg>
