<svg width="32" height="19" viewBox="0 0 32 19" fill="none" xmlns="http://www.w3.org/2000/svg">
<path fill-rule="evenodd" clip-rule="evenodd" d="M30.4983 1.69214C30.7161 0.983654 30.4983 0.463135 29.4963 0.463135H26.1418C25.2995 0.463135 24.9074 0.91136 24.6896 1.40296C24.6896 1.40296 22.9905 5.5382 20.5799 8.21309C19.8103 8.99387 19.4472 9.23967 19.0261 9.23967C18.8083 9.23967 18.5033 8.99387 18.5033 8.28538V1.69214C18.5033 0.839065 18.2565 0.463135 17.5449 0.463135H12.3026C11.7652 0.463135 11.4458 0.853524 11.4458 1.22945C11.4458 2.02469 12.6511 2.21266 12.7672 4.46824V9.3698C12.7672 10.4542 12.5785 10.6422 12.1573 10.6422C11.0246 10.6422 8.26551 6.50694 6.62455 1.76443C6.30508 0.839065 5.9856 0.463135 5.12882 0.463135H1.78882C0.830384 0.463135 0.641602 0.91136 0.641602 1.40296C0.641602 2.28495 1.7743 6.66599 5.91299 12.4495C8.68664 16.3968 12.5785 18.5367 16.1218 18.5367C18.2419 18.5367 18.5033 18.0596 18.5033 17.2354V14.2569C18.5033 13.3026 18.7066 13.1146 19.3746 13.1146C19.8829 13.1146 20.7252 13.3604 22.7146 15.269C24.98 17.5246 25.3576 18.5367 26.621 18.5367H29.9755C30.9194 18.5367 31.3986 18.0596 31.1227 17.1198C30.8323 16.1799 29.7431 14.8352 28.3055 13.2159C27.5213 12.3049 26.3596 11.3217 26.0111 10.8157C25.5028 10.194 25.648 9.90478 26.0111 9.34088C26.0111 9.34088 30.0771 3.62963 30.4983 1.69214Z" fill="white"/>
</svg>
