<svg width="46" height="46" viewBox="0 0 46 46" fill="none" xmlns="http://www.w3.org/2000/svg">
<path d="M45.999 11.0007C45.999 10.8717 45.971 10.7457 45.924 10.6287C45.905 10.5817 45.872 10.5457 45.846 10.5017C45.812 10.4448 45.787 10.3828 45.742 10.3328L36.7412 0.332969C36.5522 0.121974 36.2822 0.000976562 35.9982 0.000976562H34.0423C34.0133 0.000976562 33.9833 0.000976562 33.9543 0.000976562H18.9986C17.3446 0.000976562 15.9987 1.34695 15.9987 3.00091V8.0008H2.99993C1.34597 8.0008 0 9.34677 0 11.0007V43C0 44.654 1.34597 46 2.99993 46H26.9994C28.6534 46 29.9993 44.654 29.9993 43V38.0002H42.9991C44.653 38.0002 45.999 36.6542 45.999 35.0002V13.0057C45.999 13.0037 46 13.0027 46 13.0007L45.999 11.0007ZM27.9994 43C27.9994 43.551 27.5504 44 26.9994 44H2.99993C2.44895 44 1.99996 43.551 1.99996 43V11.0007C1.99996 10.4498 2.44895 10.0008 2.99993 10.0008H15.9997V21.0005C15.9997 21.5525 16.4476 22.0005 16.9996 22.0005H27.9994V43ZM27.9994 20.0005H17.9996V10.0008H18.5856L27.9994 19.4156V20.0005ZM43.999 35.0002C43.999 35.5522 43.5501 36.0002 42.9991 36.0002H29.9993V21.0455C29.9993 21.0305 30.0003 21.0155 30.0003 21.0005L29.9993 19.0006C29.9993 19.0006 29.9993 18.9996 29.9993 18.9976C29.9983 18.7326 29.8953 18.4926 29.7264 18.3146C29.7264 18.3126 29.7234 18.3126 29.7244 18.3126C29.7244 18.3126 29.7234 18.3116 29.7234 18.3106C29.7224 18.3106 29.7214 18.3096 29.7214 18.3086C29.7174 18.3046 29.7124 18.2996 29.7074 18.2946L19.7076 8.2948C19.5196 8.1068 19.2646 8.0008 18.9996 8.0008H17.9986V3.00091C17.9986 2.44992 18.4476 2.00093 18.9986 2.00093H32.9983V13.0007C32.9983 13.5527 33.4463 14.0007 33.9983 14.0007H43.999V35.0002ZM43.999 12.0007H34.9982V2.00093H35.5532L43.999 11.3847V12.0007Z" fill="#363636"/>
</svg>
