<svg width="32" height="34" viewBox="0 0 32 34" fill="none" xmlns="http://www.w3.org/2000/svg">
<path d="M30.9418 19.3486H30.4475V14.8959C30.4475 14.191 30.0966 13.5668 29.5608 13.1876V12.5813C29.5608 11.7019 28.8454 10.9864 27.9659 10.9864H27.5968L29.0091 8.91409C29.4824 8.21949 29.3024 7.2692 28.6078 6.79576L19.0248 0.265218C18.6884 0.0358558 18.2828 -0.0487923 17.8825 0.0271458C17.4825 0.102955 17.1358 0.329995 16.9065 0.666523L8.6352 12.8039H6.33351L6.88882 7.18242C6.89507 7.11907 6.93624 7.06416 6.99366 7.04255C7.7091 6.7728 8.32912 6.26904 8.73946 5.62411C8.77178 5.57334 8.83276 5.5443 8.89585 5.55069L12.506 5.90735C12.7648 5.93245 12.9951 5.74392 13.0206 5.4852C13.0462 5.22649 12.8572 4.99609 12.5985 4.97054L8.98837 4.61388C8.56933 4.57285 8.1697 4.76595 7.94518 5.11874C7.64349 5.59295 7.1876 5.96328 6.66158 6.16161C6.26563 6.31091 5.99375 6.66653 5.95195 7.08984L5.38754 12.8038H4.78732L5.66555 3.91296C5.69716 3.59295 5.98279 3.35784 6.30318 3.38991L13.5985 4.11058C13.8572 4.13554 14.0876 3.94715 14.1132 3.68843C14.1387 3.42971 13.9498 3.19932 13.6911 3.17377L6.3957 2.4531C5.55929 2.37058 4.81133 2.98383 4.72868 3.82037L4.02078 10.9864H2.81526C1.93587 10.9864 1.22036 11.7019 1.22036 12.5813V12.9949C0.50092 13.3261 0 14.0534 0 14.8959V30.9413C0 32.0949 0.938484 33.0334 2.09214 33.0334H28.3554C29.509 33.0334 30.4475 32.0949 30.4475 30.9413V26.4886H30.9418C31.5253 26.4886 32 26.014 32 25.4305V20.4068C32.0001 19.8233 31.5253 19.3486 30.9418 19.3486ZM27.9659 11.9279C28.3263 11.9278 28.6194 12.221 28.6194 12.5814V12.8212C28.5328 12.8102 28.4449 12.804 28.3554 12.804H26.3583L26.9552 11.9279H27.9659ZM17.6844 1.19661C17.7722 1.06789 17.9047 0.981049 18.0578 0.952016C18.0944 0.945113 18.1311 0.941629 18.1675 0.941629C18.2835 0.941629 18.3968 0.97634 18.4947 1.04305L28.0777 7.5736C28.3434 7.7547 28.4123 8.1182 28.2312 8.38388L25.2191 12.8038H24.4963L25.973 10.6368C26.2125 10.2854 26.2323 9.83813 26.0244 9.46953C25.7481 8.97984 25.6361 8.40324 25.709 7.84587C25.7632 7.43121 25.5807 7.02642 25.2329 6.78938L20.2651 3.40397C19.9171 3.16687 19.4736 3.14512 19.1076 3.34726C18.6156 3.61888 18.038 3.72553 17.4812 3.64759C17.0683 3.58965 16.6495 3.77611 16.4135 4.12225L10.4973 12.8038H9.7744L17.6844 1.19661ZM17.8917 9.18985C15.8419 9.18985 14.1593 10.7882 14.0222 12.8038H11.6363L17.1913 4.6524C17.1914 4.6524 17.1914 4.6524 17.1914 4.6524C17.2229 4.60601 17.2752 4.5784 17.329 4.5784C17.3361 4.5784 17.3433 4.57891 17.3505 4.57988C18.1078 4.68582 18.8933 4.54091 19.5625 4.17142C19.6151 4.14225 19.6827 4.14645 19.7349 4.18193L24.7027 7.5674C24.7547 7.60289 24.7833 7.66431 24.7756 7.72393C24.6764 8.48195 24.8288 9.26611 25.2045 9.93207C25.2346 9.98555 25.2309 10.0541 25.1952 10.1067L23.3572 12.8038H21.7615C21.6242 10.7882 19.9417 9.18985 17.8917 9.18985ZM20.8175 12.8039H14.966C15.1008 11.3078 16.3611 10.1313 17.8917 10.1313C19.4223 10.1312 20.6827 11.3078 20.8175 12.8039ZM2.16175 12.5813C2.16175 12.2209 2.45486 11.9277 2.81526 11.9277H3.92781L3.84129 12.8038H2.16175V12.5813ZM0.941387 14.8959C0.941387 14.2614 1.4576 13.7452 2.09214 13.7452H28.3554C28.99 13.7452 29.5061 14.2614 29.5061 14.8959V16.202H0.941387V14.8959ZM29.5061 30.9413C29.5061 31.5758 28.99 32.092 28.3554 32.092H2.09214C1.4576 32.092 0.941387 31.5758 0.941387 30.9413V29.6352H3.47967C3.73968 29.6352 3.95033 29.4245 3.95033 29.1645C3.95033 28.9046 3.73961 28.6939 3.47967 28.6939H0.941387V17.1434H29.5061V19.3486H25.0307H25.0307C23.6206 19.3486 22.3991 20.1706 21.8194 21.3604C21.8175 21.3644 21.8153 21.3683 21.8133 21.3723C21.8084 21.3824 21.8041 21.3929 21.7993 21.4031C21.7303 21.5498 21.6703 21.7016 21.6215 21.8582C21.6213 21.8587 21.6212 21.8591 21.6211 21.8595C21.5169 22.1943 21.4607 22.55 21.4607 22.9186C21.4607 24.8872 23.0621 26.4886 25.0306 26.4886H25.0307H29.506V28.6939H6.49358C6.23357 28.6939 6.02292 28.9046 6.02292 29.1645C6.02292 29.4245 6.23363 29.6352 6.49358 29.6352H29.5061V30.9413ZM31.0587 25.4305C31.0587 25.4949 31.0063 25.5472 30.9418 25.5472H25.0308C24.0343 25.5472 23.1655 24.9899 22.7199 24.1706C22.6996 24.1333 22.6803 24.0955 22.6617 24.0573C22.6248 23.9807 22.5914 23.902 22.5619 23.8215C22.4586 23.5398 22.4022 23.2357 22.4022 22.9186C22.4022 22.6016 22.4586 22.2975 22.5619 22.0158C22.5915 21.9353 22.6248 21.8567 22.6617 21.78C22.6803 21.7418 22.6996 21.704 22.7199 21.6667C23.1655 20.8474 24.0343 20.29 25.0308 20.29H30.9418C31.0062 20.29 31.0587 20.3424 31.0587 20.4068V25.4305Z" fill="#363636"/>
<path d="M25.1412 21.009C24.0881 21.009 23.2314 21.8658 23.2314 22.9188C23.2314 23.9718 24.0881 24.8285 25.1412 24.8285C26.1943 24.8285 27.0509 23.9718 27.0509 22.9188C27.0509 21.8658 26.1943 21.009 25.1412 21.009ZM25.1412 23.8871C24.6072 23.8871 24.1728 23.4527 24.1728 22.9188C24.1728 22.3849 24.6072 21.9504 25.1412 21.9504C25.6751 21.9504 26.1095 22.3848 26.1095 22.9188C26.1095 23.4527 25.6751 23.8871 25.1412 23.8871Z" fill="#363636"/>
</svg>
