<svg width="45" height="38" viewBox="0 0 45 38" fill="none" xmlns="http://www.w3.org/2000/svg">
<g clip-path="url(#clip0)">
<path d="M46.7698 13.4885L43.083 2.82186C42.3843 0.805422 40.349 -0.198973 38.5369 0.578436C38.5106 0.589748 38.4843 0.601364 38.4582 0.613363L20.0341 9.11198C18.2797 9.91277 17.4175 12.1225 18.0896 14.0956L18.5962 15.6003H17.4341C15.5384 15.6026 14.0021 17.3121 14 19.4216V33.1783C14.0021 35.2878 15.5384 36.9973 17.4341 36.9997H40.7857C42.6814 36.9973 44.2177 35.2878 44.2198 33.1783V19.4216C44.2187 19.2142 44.2021 19.0072 44.1703 18.8028L44.8082 18.5155C46.5782 17.7082 47.4481 15.4788 46.7698 13.4885ZM17.4341 16.8232H40.7857C42.019 16.8271 43.0363 17.8988 43.1071 19.2688H15.1126C15.1835 17.8987 16.2008 16.827 17.4341 16.8232ZM22.9566 13.14L26.6291 11.0961L27.3841 13.1975L23.7115 15.2408L22.9566 13.14ZM43.1209 33.1784C43.1194 34.6129 42.0748 35.7752 40.7857 35.7769H17.4341C16.145 35.7752 15.1004 34.6129 15.0989 33.1784V25.3829H43.1209V33.1784ZM43.1209 24.1601H15.0989V20.4916H43.1209V24.1601ZM44.3962 17.3857L43.822 17.6443C43.2289 16.3891 42.0602 15.6023 40.7857 15.6003H25.5231L28.328 14.0394C28.5838 13.8973 28.699 13.5608 28.5929 13.2654L27.4275 10.0249C27.3148 9.71139 26.9951 9.55884 26.7133 9.68418C26.6991 9.69052 26.6852 9.69748 26.6715 9.70512L22.0127 12.2987C21.7571 12.441 21.6422 12.7775 21.7484 13.0728L22.6572 15.6003H19.7692L19.1187 13.6695C18.6575 12.3139 19.2499 10.796 20.4549 10.2456L38.8786 1.747C40.1102 1.17869 41.5227 1.829 42.0335 3.19956C42.0415 3.22088 42.0492 3.24235 42.0566 3.26391L45.7434 13.9306C46.2098 15.2982 45.6124 16.8304 44.3962 17.3857Z" fill="#363636"/>
<path d="M21.9014 10.0371L28.9014 8.92432V15.6009H21.4014L21.9014 10.0371Z" fill="white"/>
<path d="M16.9014 -0.53418H47.9014L48.4014 16.7137L44.4014 19.4956L43.9014 17.8265L42.4014 15.0446H31V19.4956L29 21.7212H13L16.9014 -0.53418Z" fill="white"/>
<path d="M33.7698 -0.977288L30.083 -11.644C29.3843 -13.6604 27.349 -14.6648 25.5369 -13.8874C25.5106 -13.8761 25.4843 -13.8645 25.4582 -13.8525L7.03407 -5.35384C5.27974 -4.55305 4.41751 -2.34333 5.08956 -0.370234L5.59615 1.13445H4.43407C2.53839 1.13682 1.00213 2.84632 1 4.95577V18.7125C1.00213 20.822 2.53839 22.5315 4.43407 22.5338H27.7857C29.6814 22.5315 31.2177 20.822 31.2198 18.7125V4.95577C31.2187 4.74835 31.2021 4.54138 31.1703 4.33702L31.8082 4.04966C33.5782 3.24236 34.4481 1.01301 33.7698 -0.977288ZM4.43407 2.35735H27.7857C29.019 2.36125 30.0363 3.43297 30.1071 4.80299H2.11264C2.18352 3.4329 3.20082 2.36117 4.43407 2.35735ZM9.95659 -1.32579L13.6291 -3.36974L14.3841 -1.26832L10.7115 0.775015L9.95659 -1.32579ZM30.1209 18.7126C30.1194 20.147 29.0748 21.3094 27.7857 21.3111H4.43407C3.14499 21.3094 2.10041 20.147 2.0989 18.7126V10.9171H30.1209V18.7126ZM30.1209 9.69428H2.0989V6.02581H30.1209V9.69428ZM31.3962 2.91985L30.822 3.17847C30.2289 1.92325 29.0602 1.13651 27.7857 1.13453H12.5231L15.328 -0.426407C15.5838 -0.568484 15.699 -0.905065 15.5929 -1.20045L14.4275 -4.44093C14.3148 -4.75443 13.9951 -4.90698 13.7133 -4.78164C13.6991 -4.7753 13.6852 -4.76834 13.6715 -4.7607L9.01271 -2.16709C8.75714 -2.02479 8.64224 -1.68828 8.74842 -1.39305L9.65721 1.13453H6.76923L6.11868 -0.796311C5.65749 -2.15196 6.24986 -3.66979 7.45495 -4.22021L25.8786 -12.7188C27.1102 -13.2871 28.5227 -12.6368 29.0335 -11.2663C29.0415 -11.2449 29.0492 -11.2235 29.0566 -11.2019L32.7434 -0.535238C33.2098 0.832412 32.6124 2.36461 31.3962 2.91985Z" fill="#363636"/>
<path d="M8.90137 -4.42874L15.9014 -5.5415V1.13511H8.40137L8.90137 -4.42874Z" fill="white"/>
<path d="M3.90137 -15H34.9014L35.4014 2.24791L31.4014 5.02983L30.9014 3.36067L29.4014 0.578754L16.4014 1.13514H3.90137V-15Z" fill="white"/>
</g>
<defs>
<clipPath id="clip0">
<rect width="45" height="38" fill="white"/>
</clipPath>
</defs>
</svg>
