<svg width="79" height="26" viewBox="0 0 79 26" fill="none" xmlns="http://www.w3.org/2000/svg">
<path fill-rule="evenodd" clip-rule="evenodd" d="M50.256 0.553807C50.256 0.599979 49.992 0.633005 49.6224 0.633005C49.2528 0.633005 48.9888 0.66603 48.9888 0.712202C48.9888 0.756236 48.7776 0.7914 48.5136 0.7914C48.2496 0.7914 48.0384 0.826564 48.0384 0.870598C48.0384 0.914156 47.9315 0.949795 47.8008 0.949795C47.6702 0.949795 47.5632 0.985434 47.5632 1.02899C47.5632 1.07255 47.4207 1.10819 47.2465 1.10819C47.0722 1.10819 46.9297 1.14383 46.9297 1.18739C46.9297 1.23095 46.8227 1.26659 46.6921 1.26659C46.5614 1.26659 46.4545 1.30222 46.4545 1.34578C46.4545 1.38934 46.3832 1.42498 46.2961 1.42498C46.209 1.42498 46.1377 1.46062 46.1377 1.50418C46.1377 1.54774 46.0664 1.58338 45.9793 1.58338C45.8922 1.58338 45.8209 1.61902 45.8209 1.66257C45.8209 1.70613 45.7218 1.74177 45.6008 1.74177C45.4716 1.74177 45.3336 1.80719 45.2665 1.90017C45.2037 1.98728 45.0889 2.05856 45.0114 2.05856C44.934 2.05856 44.8705 2.0942 44.8705 2.13776C44.8705 2.18132 44.8071 2.21696 44.7296 2.21696C44.6521 2.21696 44.5373 2.28824 44.4745 2.37535C44.4117 2.46247 44.3048 2.53375 44.2369 2.53375C44.1691 2.53375 44.0622 2.60503 43.9993 2.69214C43.9365 2.77926 43.8391 2.85054 43.7827 2.85054C43.6491 2.85054 42.3362 4.16348 42.3362 4.29708C42.3362 4.35339 42.2649 4.45089 42.1778 4.51369C42.0907 4.57649 42.0194 4.68341 42.0194 4.75128C42.0194 4.81916 41.9481 4.92607 41.861 4.98888C41.7739 5.05168 41.7026 5.16644 41.7026 5.24397C41.7026 5.32143 41.667 5.38486 41.6234 5.38486C41.5799 5.38486 41.5442 5.45614 41.5442 5.54326C41.5442 5.63038 41.5086 5.70166 41.465 5.70166C41.4215 5.70166 41.3858 5.80857 41.3858 5.93925C41.3858 6.06992 41.3502 6.17684 41.3066 6.17684C41.2631 6.17684 41.2274 6.28376 41.2274 6.41443C41.2274 6.54511 41.1918 6.65203 41.1482 6.65203C41.1047 6.65203 41.069 6.79458 41.069 6.96882C41.069 7.14305 41.0334 7.28561 40.9898 7.28561C40.9402 7.28561 40.9106 7.78717 40.9106 8.63197C40.9106 9.47677 40.9402 9.97833 40.9898 9.97833C41.0334 9.97833 41.069 10.0852 41.069 10.2159C41.069 10.3466 41.1047 10.4535 41.1482 10.4535C41.1918 10.4535 41.2274 10.5604 41.2274 10.6911C41.2274 10.8218 41.2631 10.9287 41.3066 10.9287C41.3502 10.9287 41.3858 10.9921 41.3858 11.0696C41.3858 11.1471 41.4571 11.2619 41.5442 11.3247C41.6313 11.3875 41.7026 11.4944 41.7026 11.5623C41.7026 11.6302 41.7739 11.7371 41.861 11.7999C41.9481 11.8627 42.0194 11.9601 42.0194 12.0164C42.0194 12.1411 43.4865 13.6214 43.6102 13.6214C43.6586 13.6214 43.7981 13.7283 43.9202 13.859C44.0422 13.9897 44.1991 14.0966 44.2687 14.0966C44.3384 14.0966 44.3953 14.1322 44.3953 14.1758C44.3953 14.2194 44.4588 14.255 44.5362 14.255C44.6138 14.255 44.7285 14.3263 44.7913 14.4134C44.8541 14.5005 44.9689 14.5718 45.0464 14.5718C45.1239 14.5718 45.1873 14.6074 45.1873 14.651C45.1873 14.6946 45.2586 14.7302 45.3457 14.7302C45.4328 14.7302 45.5041 14.7658 45.5041 14.8094C45.5041 14.8529 45.5754 14.8886 45.6625 14.8886C45.7496 14.8886 45.8209 14.9242 45.8209 14.9678C45.8209 15.0113 45.8843 15.047 45.9618 15.047C46.0393 15.047 46.1541 15.1183 46.2169 15.2054C46.2797 15.2925 46.3944 15.3638 46.472 15.3638C46.5494 15.3638 46.6129 15.3994 46.6129 15.443C46.6129 15.4865 46.6841 15.5222 46.7713 15.5222C46.8584 15.5222 46.9297 15.5578 46.9297 15.6014C46.9297 15.6449 47.0009 15.6806 47.0881 15.6806C47.1752 15.6806 47.2465 15.7162 47.2465 15.7598C47.2465 15.8033 47.3177 15.839 47.4048 15.839C47.492 15.839 47.5632 15.8746 47.5632 15.9182C47.5632 15.9617 47.6345 15.9974 47.7216 15.9974C47.8088 15.9974 47.88 16.033 47.88 16.0765C47.88 16.1201 47.937 16.1557 48.0067 16.1557C48.0763 16.1557 48.2332 16.2627 48.3552 16.3933C48.4773 16.524 48.6173 16.6309 48.6663 16.6309C48.8 16.6309 49.464 17.3214 49.464 17.4604C49.464 17.5269 49.4996 17.5813 49.5432 17.5813C49.5867 17.5813 49.6224 17.6882 49.6224 17.8189C49.6224 17.9496 49.658 18.0565 49.7016 18.0565C49.7451 18.0565 49.7808 18.199 49.7808 18.3733C49.7808 18.5475 49.7451 18.6901 49.7016 18.6901C49.658 18.6901 49.6224 18.797 49.6224 18.9277C49.6224 19.0583 49.5867 19.1653 49.5432 19.1653C49.4996 19.1653 49.464 19.2197 49.464 19.2861C49.464 19.4433 48.7917 20.1156 48.6345 20.1156C48.568 20.1156 48.5136 20.1513 48.5136 20.1948C48.5136 20.2384 48.4423 20.274 48.3552 20.274C48.2681 20.274 48.1968 20.3097 48.1968 20.3532C48.1968 20.3968 48.0899 20.4324 47.9592 20.4324C47.8286 20.4324 47.7216 20.4681 47.7216 20.5116C47.7216 20.5552 47.6147 20.5908 47.484 20.5908C47.3534 20.5908 47.2465 20.6265 47.2465 20.67C47.2465 20.7205 46.5865 20.7492 45.4249 20.7492C44.2633 20.7492 43.6034 20.7205 43.6034 20.67C43.6034 20.6265 43.4252 20.5908 43.2074 20.5908C42.9896 20.5908 42.8114 20.5552 42.8114 20.5116C42.8114 20.4681 42.6688 20.4324 42.4946 20.4324C42.3204 20.4324 42.1778 20.3968 42.1778 20.3532C42.1778 20.3097 42.0709 20.274 41.9402 20.274C41.8095 20.274 41.7026 20.2384 41.7026 20.1948C41.7026 20.1513 41.5957 20.1156 41.465 20.1156C41.3343 20.1156 41.2274 20.08 41.2274 20.0364C41.2274 19.9929 41.1205 19.9572 40.9898 19.9572C40.8592 19.9572 40.7522 19.9216 40.7522 19.878C40.7522 19.8345 40.681 19.7988 40.5938 19.7988C40.5067 19.7988 40.4355 19.7632 40.4355 19.7196C40.4355 19.6761 40.3642 19.6404 40.2771 19.6404C40.1899 19.6404 40.1187 19.6048 40.1187 19.5612C40.1187 19.5177 40.0117 19.482 39.8811 19.482C39.7504 19.482 39.6435 19.4464 39.6435 19.4029C39.6435 19.3593 39.5722 19.3237 39.4851 19.3237C39.3618 19.3237 39.3267 19.3765 39.3267 19.5612C39.3267 19.6919 39.291 19.7988 39.2475 19.7988C39.2039 19.7988 39.1683 19.977 39.1683 20.1948C39.1683 20.4126 39.1327 20.5908 39.0891 20.5908C39.0455 20.5908 39.0099 20.769 39.0099 20.9868C39.0099 21.2046 38.9743 21.3828 38.9307 21.3828C38.8871 21.3828 38.8515 21.5253 38.8515 21.6996C38.8515 21.8738 38.8159 22.0164 38.7723 22.0164C38.7287 22.0164 38.6931 22.1946 38.6931 22.4124C38.6931 22.6302 38.6575 22.8084 38.6139 22.8084C38.5703 22.8084 38.5347 22.9865 38.5347 23.2043C38.5347 23.4221 38.4991 23.6003 38.4555 23.6003C38.412 23.6003 38.3763 23.7429 38.3763 23.9171C38.3763 24.0914 38.3407 24.2339 38.2971 24.2339C38.2536 24.2339 38.2179 24.3408 38.2179 24.4715C38.2179 24.6827 38.2443 24.7091 38.4555 24.7091C38.5862 24.7091 38.6931 24.7447 38.6931 24.7883C38.6931 24.8319 38.7644 24.8675 38.8515 24.8675C38.9386 24.8675 39.0099 24.9031 39.0099 24.9467C39.0099 24.9902 39.1168 25.0259 39.2475 25.0259C39.3782 25.0259 39.4851 25.0615 39.4851 25.1051C39.4851 25.1486 39.6276 25.1843 39.8019 25.1843C39.9761 25.1843 40.1187 25.2199 40.1187 25.2635C40.1187 25.307 40.2612 25.3427 40.4355 25.3427C40.6097 25.3427 40.7522 25.3783 40.7522 25.4219C40.7522 25.4654 40.9304 25.5011 41.1482 25.5011C41.366 25.5011 41.5442 25.5367 41.5442 25.5803C41.5442 25.6255 41.7818 25.6595 42.0986 25.6595C42.4154 25.6595 42.653 25.6934 42.653 25.7387C42.653 25.7862 42.9698 25.8179 43.445 25.8179C43.9202 25.8179 44.2369 25.8495 44.2369 25.8971C44.2369 25.9461 44.6593 25.9763 45.3457 25.9763C46.0321 25.9763 46.4545 25.9461 46.4545 25.8971C46.4545 25.8501 46.7449 25.8179 47.1673 25.8179C47.5896 25.8179 47.88 25.7856 47.88 25.7387C47.88 25.6946 48.0913 25.6595 48.3552 25.6595C48.6192 25.6595 48.8304 25.6243 48.8304 25.5803C48.8304 25.5367 48.973 25.5011 49.1472 25.5011C49.3214 25.5011 49.464 25.4654 49.464 25.4219C49.464 25.3783 49.6065 25.3427 49.7808 25.3427C49.955 25.3427 50.0976 25.307 50.0976 25.2635C50.0976 25.2199 50.2045 25.1843 50.3352 25.1843C50.4658 25.1843 50.5728 25.1486 50.5728 25.1051C50.5728 25.0615 50.6797 25.0259 50.8103 25.0259C50.941 25.0259 51.0479 24.9902 51.0479 24.9467C51.0479 24.9031 51.1192 24.8675 51.2063 24.8675C51.2935 24.8675 51.3647 24.8319 51.3647 24.7883C51.3647 24.7447 51.436 24.7091 51.5231 24.7091C51.6102 24.7091 51.6815 24.6735 51.6815 24.6299C51.6815 24.5863 51.7528 24.5507 51.8399 24.5507C51.927 24.5507 51.9983 24.5151 51.9983 24.4715C51.9983 24.4279 52.0696 24.3923 52.1567 24.3923C52.2438 24.3923 52.3151 24.3567 52.3151 24.3131C52.3151 24.2695 52.3785 24.2339 52.456 24.2339C52.5335 24.2339 52.6483 24.1626 52.7111 24.0755C52.7739 23.9884 52.8744 23.9171 52.9344 23.9171C52.9944 23.9171 53.1434 23.8102 53.2655 23.6795C53.3875 23.5488 53.5272 23.4419 53.5759 23.4419C53.6912 23.4419 54.691 22.4421 54.691 22.3268C54.691 22.2781 54.798 22.1384 54.9286 22.0164C55.0593 21.8943 55.1662 21.7453 55.1662 21.6853C55.1662 21.6253 55.2375 21.5248 55.3246 21.462C55.4117 21.3992 55.483 21.2844 55.483 21.2069C55.483 21.1294 55.5186 21.066 55.5622 21.066C55.6058 21.066 55.6414 20.9947 55.6414 20.9076C55.6414 20.8205 55.677 20.7492 55.7206 20.7492C55.7642 20.7492 55.7998 20.6423 55.7998 20.5116C55.7998 20.3809 55.8354 20.274 55.879 20.274C55.9226 20.274 55.9582 20.1671 55.9582 20.0364C55.9582 19.9058 55.9938 19.7988 56.0374 19.7988C56.081 19.7988 56.1166 19.6563 56.1166 19.482C56.1166 19.3078 56.1522 19.1653 56.1958 19.1653C56.241 19.1653 56.275 18.9277 56.275 18.6109C56.275 18.2941 56.309 18.0565 56.3542 18.0565C56.3994 18.0565 56.4334 17.8189 56.4334 17.5021C56.4334 17.1853 56.3994 16.9477 56.3542 16.9477C56.3102 16.9477 56.275 16.7365 56.275 16.4725C56.275 16.2086 56.2398 15.9974 56.1958 15.9974C56.1522 15.9974 56.1166 15.8904 56.1166 15.7598C56.1166 15.6291 56.081 15.5222 56.0374 15.5222C55.9938 15.5222 55.9582 15.4152 55.9582 15.2846C55.9582 15.1539 55.9226 15.047 55.879 15.047C55.8354 15.047 55.7998 14.9757 55.7998 14.8886C55.7998 14.8015 55.7642 14.7302 55.7206 14.7302C55.677 14.7302 55.6414 14.6668 55.6414 14.5893C55.6414 14.5118 55.5701 14.397 55.483 14.3342C55.3959 14.2714 55.3246 14.1741 55.3246 14.1178C55.3246 13.9844 53.6945 12.3543 53.561 12.3543C53.5048 12.3543 53.4075 12.283 53.3447 12.1959C53.2819 12.1087 53.1749 12.0375 53.1071 12.0375C53.0392 12.0375 52.9323 11.9662 52.8695 11.8791C52.8067 11.792 52.6919 11.7207 52.6144 11.7207C52.5369 11.7207 52.4735 11.685 52.4735 11.6415C52.4735 11.5979 52.4101 11.5623 52.3326 11.5623C52.2551 11.5623 52.1403 11.491 52.0775 11.4039C52.0147 11.3168 51.8999 11.2455 51.8224 11.2455C51.745 11.2455 51.6815 11.2099 51.6815 11.1663C51.6815 11.1227 51.6102 11.0871 51.5231 11.0871C51.436 11.0871 51.3647 11.0515 51.3647 11.0079C51.3647 10.9643 51.2935 10.9287 51.2063 10.9287C51.1192 10.9287 51.0479 10.8931 51.0479 10.8495C51.0479 10.8059 50.9845 10.7703 50.907 10.7703C50.8295 10.7703 50.7148 10.699 50.652 10.6119C50.5891 10.5248 50.4744 10.4535 50.3969 10.4535C50.3194 10.4535 50.256 10.4179 50.256 10.3743C50.256 10.3308 50.1847 10.2951 50.0976 10.2951C50.0104 10.2951 49.9392 10.2595 49.9392 10.2159C49.9392 10.1724 49.8679 10.1367 49.7808 10.1367C49.6937 10.1367 49.6224 10.1011 49.6224 10.0575C49.6224 10.014 49.5589 9.97833 49.4815 9.97833C49.404 9.97833 49.2892 9.90705 49.2264 9.81993C49.1636 9.73282 49.0567 9.66154 48.9888 9.66154C48.9209 9.66154 48.814 9.59026 48.7512 9.50314C48.6884 9.41603 48.5907 9.34475 48.534 9.34475C48.3399 9.34475 47.5632 8.49076 47.5632 8.27732C47.5632 8.16748 47.5276 8.07759 47.484 8.07759C47.4405 8.07759 47.4048 7.93503 47.4048 7.76079C47.4048 7.58656 47.4405 7.444 47.484 7.444C47.5276 7.444 47.5632 7.37273 47.5632 7.28561C47.5632 7.19849 47.5989 7.12721 47.6424 7.12721C47.686 7.12721 47.7216 7.0728 47.7216 7.00636C47.7216 6.84915 48.3939 6.17684 48.5512 6.17684C48.6176 6.17684 48.672 6.1412 48.672 6.09764C48.672 6.05409 48.7789 6.01845 48.9096 6.01845C49.0403 6.01845 49.1472 5.98281 49.1472 5.93925C49.1472 5.89569 49.2541 5.86005 49.3848 5.86005C49.5155 5.86005 49.6224 5.82441 49.6224 5.78085C49.6224 5.73468 49.8863 5.70166 50.256 5.70166C50.6256 5.70166 50.8895 5.66863 50.8895 5.62246C50.8895 5.5789 51.0321 5.54326 51.2063 5.54326C51.3806 5.54326 51.5231 5.5789 51.5231 5.62246C51.5231 5.67045 51.8663 5.70166 52.3943 5.70166C52.9223 5.70166 53.2655 5.73286 53.2655 5.78085C53.2655 5.82441 53.4437 5.86005 53.6615 5.86005C53.8793 5.86005 54.0574 5.89569 54.0574 5.93925C54.0574 5.98281 54.1644 6.01845 54.295 6.01845C54.4257 6.01845 54.5326 6.05409 54.5326 6.09764C54.5326 6.1412 54.6752 6.17684 54.8494 6.17684C55.0237 6.17684 55.1662 6.21248 55.1662 6.25604C55.1662 6.2996 55.2731 6.33524 55.4038 6.33524C55.5345 6.33524 55.6414 6.37088 55.6414 6.41443C55.6414 6.45799 55.7127 6.49363 55.7998 6.49363C55.8869 6.49363 55.9582 6.52927 55.9582 6.57283C55.9582 6.61639 56.0295 6.65203 56.1166 6.65203C56.2037 6.65203 56.275 6.68767 56.275 6.73123C56.275 6.77478 56.3106 6.81042 56.3542 6.81042C56.3977 6.81042 56.4334 6.73914 56.4334 6.65203C56.4334 6.56491 56.469 6.49363 56.5126 6.49363C56.5561 6.49363 56.5918 6.31544 56.5918 6.09764C56.5918 5.87985 56.6274 5.70166 56.671 5.70166C56.7145 5.70166 56.7502 5.52346 56.7502 5.30567C56.7502 5.08787 56.7858 4.90968 56.8294 4.90968C56.8729 4.90968 56.9086 4.76712 56.9086 4.59289C56.9086 4.41865 56.9442 4.2761 56.9878 4.2761C57.0313 4.2761 57.067 4.0979 57.067 3.88011C57.067 3.66232 57.1026 3.48412 57.1462 3.48412C57.1897 3.48412 57.2254 3.30593 57.2254 3.08813C57.2254 2.87034 57.261 2.69214 57.3046 2.69214C57.3481 2.69214 57.3838 2.54959 57.3838 2.37535C57.3838 2.20112 57.4194 2.05856 57.463 2.05856C57.5832 2.05856 57.5576 1.66669 57.429 1.53815C57.3668 1.47591 57.2242 1.42498 57.1122 1.42498C57.0002 1.42498 56.9086 1.38934 56.9086 1.34578C56.9086 1.30222 56.8017 1.26659 56.671 1.26659C56.5403 1.26659 56.4334 1.23095 56.4334 1.18739C56.4334 1.14383 56.2908 1.10819 56.1166 1.10819C55.9424 1.10819 55.7998 1.07255 55.7998 1.02899C55.7998 0.985434 55.6572 0.949795 55.483 0.949795C55.3088 0.949795 55.1662 0.914156 55.1662 0.870598C55.1662 0.827039 54.988 0.7914 54.7702 0.7914C54.5524 0.7914 54.3742 0.755761 54.3742 0.712202C54.3742 0.665238 54.0838 0.633005 53.6615 0.633005C53.2391 0.633005 52.9487 0.600771 52.9487 0.553807C52.9487 0.50415 52.4471 0.474609 51.6023 0.474609C50.7575 0.474609 50.256 0.50415 50.256 0.553807ZM0.203037 1.10819C0.203037 1.19531 0.167398 1.26659 0.12384 1.26659C0.00623101 1.26659 0.0280104 1.49887 0.157815 1.6286C0.219986 1.69085 0.39818 1.74177 0.553804 1.74177C0.709348 1.74177 0.836619 1.77741 0.836619 1.82097C0.836619 1.86453 0.979174 1.90017 1.15341 1.90017C1.32764 1.90017 1.4702 1.93581 1.4702 1.97937C1.4702 2.02292 1.61276 2.05856 1.78699 2.05856C1.96123 2.05856 2.10378 2.0942 2.10378 2.13776C2.10378 2.18132 2.2107 2.21696 2.34137 2.21696C2.47205 2.21696 2.57897 2.2526 2.57897 2.29616C2.57897 2.33971 2.72152 2.37535 2.89576 2.37535C3.06999 2.37535 3.21255 2.41099 3.21255 2.45455C3.21255 2.49811 3.31947 2.53375 3.45014 2.53375C3.58082 2.53375 3.68773 2.56939 3.68773 2.61295C3.68773 2.65651 3.79465 2.69214 3.92533 2.69214C4.056 2.69214 4.16292 2.72778 4.16292 2.77134C4.16292 2.8149 4.2342 2.85054 4.32132 2.85054C4.40843 2.85054 4.47971 2.88618 4.47971 2.92974C4.47971 2.9733 4.58663 3.00893 4.7173 3.00893C4.84798 3.00893 4.9549 3.04457 4.9549 3.08813C4.9549 3.13169 5.02618 3.16733 5.11329 3.16733C5.20041 3.16733 5.27169 3.20297 5.27169 3.24653C5.27169 3.29009 5.3786 3.32573 5.50928 3.32573C5.63996 3.32573 5.74687 3.36136 5.74687 3.40492C5.74687 3.44848 5.81815 3.48412 5.90527 3.48412C5.99239 3.48412 6.06366 3.51976 6.06366 3.56332C6.06366 3.60688 6.1271 3.64252 6.20456 3.64252C6.28209 3.64252 6.39685 3.71379 6.45965 3.80091C6.52246 3.88803 6.62058 3.95931 6.67776 3.95931C6.82214 3.95931 7.33083 4.48162 7.33083 4.62987C7.33083 4.69664 7.36647 4.75128 7.41002 4.75128C7.45358 4.75128 7.48922 4.82256 7.48922 4.90968C7.48922 4.9968 7.52486 5.06807 7.56842 5.06807C7.61198 5.06807 7.64762 5.17499 7.64762 5.30567C7.64762 5.43634 7.68326 5.54326 7.72682 5.54326C7.77037 5.54326 7.80601 5.65018 7.80601 5.78085C7.80601 5.91153 7.84165 6.01845 7.88521 6.01845C7.92877 6.01845 7.96441 6.161 7.96441 6.33524C7.96441 6.50947 8.00005 6.65203 8.04361 6.65203C8.08716 6.65203 8.1228 6.79458 8.1228 6.96882C8.1228 7.14305 8.15844 7.28561 8.202 7.28561C8.24556 7.28561 8.2812 7.42816 8.2812 7.6024C8.2812 7.77663 8.31684 7.91919 8.3604 7.91919C8.40396 7.91919 8.43959 8.02611 8.43959 8.15678C8.43959 8.28746 8.47523 8.39438 8.51879 8.39438C8.56235 8.39438 8.59799 8.53693 8.59799 8.71117C8.59799 8.8854 8.63363 9.02796 8.67719 9.02796C8.72075 9.02796 8.75638 9.17051 8.75638 9.34475C8.75638 9.51898 8.79202 9.66154 8.83558 9.66154C8.87914 9.66154 8.91478 9.80409 8.91478 9.97833C8.91478 10.1526 8.95042 10.2951 8.99398 10.2951C9.03754 10.2951 9.07318 10.4377 9.07318 10.6119C9.07318 10.7861 9.10882 10.9287 9.15237 10.9287C9.19593 10.9287 9.23157 11.0713 9.23157 11.2455C9.23157 11.4197 9.26721 11.5623 9.31077 11.5623C9.35433 11.5623 9.38997 11.7048 9.38997 11.8791C9.38997 12.0533 9.42561 12.1959 9.46916 12.1959C9.51272 12.1959 9.54836 12.3384 9.54836 12.5127C9.54836 12.6869 9.584 12.8294 9.62756 12.8294C9.67112 12.8294 9.70676 12.9364 9.70676 13.067C9.70676 13.1977 9.7424 13.3046 9.78595 13.3046C9.82951 13.3046 9.86515 13.4472 9.86515 13.6214C9.86515 13.7957 9.90079 13.9382 9.94435 13.9382C9.98791 13.9382 10.0235 14.0808 10.0235 14.255C10.0235 14.4292 10.0592 14.5718 10.1027 14.5718C10.1463 14.5718 10.1819 14.7143 10.1819 14.8886C10.1819 15.0628 10.2176 15.2054 10.2611 15.2054C10.3047 15.2054 10.3403 15.3479 10.3403 15.5222C10.3403 15.6964 10.376 15.839 10.4195 15.839C10.4631 15.839 10.4987 15.9815 10.4987 16.1557C10.4987 16.33 10.5344 16.4725 10.5779 16.4725C10.6215 16.4725 10.6571 16.6151 10.6571 16.7893C10.6571 16.9636 10.6928 17.1061 10.7363 17.1061C10.7799 17.1061 10.8155 17.213 10.8155 17.3437C10.8155 17.4744 10.8512 17.5813 10.8947 17.5813C10.9383 17.5813 10.9739 17.7239 10.9739 17.8981C10.9739 18.0723 11.0096 18.2149 11.0531 18.2149C11.0967 18.2149 11.1323 18.3574 11.1323 18.5317C11.1323 18.7059 11.168 18.8485 11.2115 18.8485C11.2551 18.8485 11.2907 18.991 11.2907 19.1653C11.2907 19.3395 11.3263 19.482 11.3699 19.482C11.4135 19.482 11.4491 19.6246 11.4491 19.7988C11.4491 19.9731 11.4847 20.1156 11.5283 20.1156C11.5719 20.1156 11.6075 20.2582 11.6075 20.4324C11.6075 20.6067 11.6431 20.7492 11.6867 20.7492C11.7303 20.7492 11.7659 20.8918 11.7659 21.066C11.7659 21.2402 11.8015 21.3828 11.8451 21.3828C11.8887 21.3828 11.9243 21.5253 11.9243 21.6996C11.9243 21.8738 11.9599 22.0164 12.0035 22.0164C12.047 22.0164 12.0827 22.1233 12.0827 22.254C12.0827 22.3846 12.1183 22.4916 12.1619 22.4916C12.2054 22.4916 12.2411 22.6341 12.2411 22.8084C12.2411 22.9826 12.2767 23.1251 12.3203 23.1251C12.3638 23.1251 12.3995 23.2677 12.3995 23.4419C12.3995 23.6162 12.4351 23.7587 12.4787 23.7587C12.5222 23.7587 12.5579 23.9013 12.5579 24.0755C12.5579 24.2497 12.5935 24.3923 12.6371 24.3923C12.6806 24.3923 12.7163 24.5349 12.7163 24.7091C12.7163 24.8833 12.7519 25.0259 12.7955 25.0259C12.839 25.0259 12.8747 25.1328 12.8747 25.2635V25.5011H16.2462C19.9012 25.5011 19.8441 25.5079 19.8441 25.0711C19.8441 24.9591 19.8797 24.8675 19.9233 24.8675C19.9668 24.8675 20.0025 24.7962 20.0025 24.7091C20.0025 24.622 20.0381 24.5507 20.0817 24.5507C20.1252 24.5507 20.1608 24.4794 20.1608 24.3923C20.1608 24.3052 20.1965 24.2339 20.24 24.2339C20.2836 24.2339 20.3192 24.127 20.3192 23.9963C20.3192 23.8656 20.3549 23.7587 20.3984 23.7587C20.442 23.7587 20.4776 23.6874 20.4776 23.6003C20.4776 23.5132 20.5133 23.4419 20.5568 23.4419C20.6004 23.4419 20.636 23.335 20.636 23.2043C20.636 23.0737 20.6717 22.9667 20.7152 22.9667C20.7588 22.9667 20.7944 22.8955 20.7944 22.8084C20.7944 22.7212 20.8301 22.65 20.8736 22.65C20.9172 22.65 20.9528 22.5787 20.9528 22.4916C20.9528 22.4044 20.9885 22.3332 21.032 22.3332C21.0756 22.3332 21.1112 22.2262 21.1112 22.0956C21.1112 21.9649 21.1469 21.858 21.1904 21.858C21.234 21.858 21.2696 21.7867 21.2696 21.6996C21.2696 21.6125 21.3053 21.5412 21.3488 21.5412C21.3924 21.5412 21.428 21.4699 21.428 21.3828C21.428 21.2957 21.4637 21.2244 21.5072 21.2244C21.5508 21.2244 21.5864 21.1175 21.5864 20.9868C21.5864 20.8561 21.622 20.7492 21.6656 20.7492C21.7092 20.7492 21.7448 20.6779 21.7448 20.5908C21.7448 20.5037 21.7804 20.4324 21.824 20.4324C21.8676 20.4324 21.9032 20.3255 21.9032 20.1948C21.9032 20.0642 21.9388 19.9572 21.9824 19.9572C22.026 19.9572 22.0616 19.886 22.0616 19.7988C22.0616 19.7117 22.0972 19.6404 22.1408 19.6404C22.1843 19.6404 22.22 19.5692 22.22 19.482C22.22 19.3949 22.2556 19.3237 22.2992 19.3237C22.3427 19.3237 22.3784 19.2167 22.3784 19.0861C22.3784 18.9554 22.414 18.8485 22.4576 18.8485C22.5011 18.8485 22.5368 18.7772 22.5368 18.6901C22.5368 18.603 22.5724 18.5317 22.616 18.5317C22.6595 18.5317 22.6952 18.4248 22.6952 18.2941C22.6952 18.1634 22.7308 18.0565 22.7744 18.0565C22.8179 18.0565 22.8536 17.9852 22.8536 17.8981C22.8536 17.811 22.8892 17.7397 22.9328 17.7397C22.9763 17.7397 23.012 17.6684 23.012 17.5813C23.012 17.4942 23.0476 17.4229 23.0912 17.4229C23.1347 17.4229 23.1704 17.316 23.1704 17.1853C23.1704 17.0546 23.206 16.9477 23.2496 16.9477C23.2931 16.9477 23.3288 16.8764 23.3288 16.7893C23.3288 16.7022 23.3644 16.6309 23.408 16.6309C23.4515 16.6309 23.4872 16.524 23.4872 16.3933C23.4872 16.2627 23.5228 16.1557 23.5663 16.1557C23.6099 16.1557 23.6455 16.0845 23.6455 15.9974C23.6455 15.9102 23.6812 15.839 23.7247 15.839C23.7683 15.839 23.8039 15.7677 23.8039 15.6806C23.8039 15.5934 23.8396 15.5222 23.8831 15.5222C23.9267 15.5222 23.9623 15.4152 23.9623 15.2846C23.9623 15.1539 23.998 15.047 24.0415 15.047C24.0851 15.047 24.1207 14.9757 24.1207 14.8886C24.1207 14.8015 24.1564 14.7302 24.1999 14.7302C24.2435 14.7302 24.2791 14.6589 24.2791 14.5718C24.2791 14.4847 24.3148 14.4134 24.3583 14.4134C24.4019 14.4134 24.4375 14.3065 24.4375 14.1758C24.4375 14.0451 24.4732 13.9382 24.5167 13.9382C24.5603 13.9382 24.5959 13.8669 24.5959 13.7798C24.5959 13.6927 24.6316 13.6214 24.6751 13.6214C24.7187 13.6214 24.7543 13.5145 24.7543 13.3838C24.7543 13.2532 24.79 13.1462 24.8335 13.1462C24.8771 13.1462 24.9127 13.075 24.9127 12.9878C24.9127 12.9007 24.9483 12.8294 24.9919 12.8294C25.0355 12.8294 25.0711 12.7582 25.0711 12.6711C25.0711 12.5839 25.1067 12.5127 25.1503 12.5127C25.1939 12.5127 25.2295 12.4057 25.2295 12.2751C25.2295 12.1444 25.2651 12.0375 25.3087 12.0375C25.3523 12.0375 25.3879 11.9662 25.3879 11.8791C25.3879 11.792 25.4235 11.7207 25.4671 11.7207C25.5107 11.7207 25.5463 11.6138 25.5463 11.4831C25.5463 11.3524 25.5819 11.2455 25.6255 11.2455C25.669 11.2455 25.7047 11.1742 25.7047 11.0871C25.7047 11 25.7403 10.9287 25.7839 10.9287C25.8274 10.9287 25.8631 10.8574 25.8631 10.7703C25.8631 10.6832 25.8987 10.6119 25.9423 10.6119C25.9858 10.6119 26.0215 10.505 26.0215 10.3743C26.0215 10.2436 26.0571 10.1367 26.1007 10.1367C26.1442 10.1367 26.1799 10.0654 26.1799 9.97833C26.1799 9.89121 26.2155 9.81993 26.2591 9.81993C26.3026 9.81993 26.3383 9.74866 26.3383 9.66154C26.3383 9.57442 26.3739 9.50314 26.4175 9.50314C26.461 9.50314 26.4967 9.39623 26.4967 9.26555C26.4967 9.13487 26.5323 9.02796 26.5759 9.02796C26.6194 9.02796 26.6551 8.95668 26.6551 8.86956C26.6551 8.78244 26.6907 8.71117 26.7343 8.71117C26.7778 8.71117 26.8135 8.60425 26.8135 8.47357C26.8135 8.3429 26.8491 8.23598 26.8927 8.23598C26.9362 8.23598 26.9718 8.1647 26.9718 8.07759C26.9718 7.99047 27.0075 7.91919 27.051 7.91919C27.0946 7.91919 27.1302 7.84791 27.1302 7.76079C27.1302 7.67368 27.1659 7.6024 27.2094 7.6024C27.253 7.6024 27.2886 7.49548 27.2886 7.36481C27.2886 7.23413 27.3243 7.12721 27.3678 7.12721C27.4114 7.12721 27.447 7.05594 27.447 6.96882C27.447 6.8817 27.4827 6.81042 27.5262 6.81042C27.5698 6.81042 27.6054 6.70351 27.6054 6.57283C27.6054 6.44215 27.6411 6.33524 27.6846 6.33524C27.7282 6.33524 27.7638 6.26396 27.7638 6.17684C27.7638 6.08972 27.7995 6.01845 27.843 6.01845C27.8866 6.01845 27.9222 5.94717 27.9222 5.86005C27.9222 5.77293 27.9579 5.70166 28.0014 5.70166C28.045 5.70166 28.0806 5.59474 28.0806 5.46406C28.0806 5.33339 28.1163 5.22647 28.1598 5.22647C28.2034 5.22647 28.239 5.15519 28.239 5.06807C28.239 4.98096 28.2747 4.90968 28.3182 4.90968C28.3618 4.90968 28.3974 4.8384 28.3974 4.75128C28.3974 4.66417 28.433 4.59289 28.4766 4.59289C28.5202 4.59289 28.5558 4.48597 28.5558 4.3553C28.5558 4.22462 28.5914 4.1177 28.635 4.1177C28.6786 4.1177 28.7142 4.04642 28.7142 3.95931C28.7142 3.87219 28.7498 3.80091 28.7934 3.80091C28.837 3.80091 28.8726 3.69399 28.8726 3.56332C28.8726 3.43264 28.9082 3.32573 28.9518 3.32573C28.9953 3.32573 29.031 3.25445 29.031 3.16733C29.031 3.08021 29.0666 3.00893 29.1102 3.00893C29.1537 3.00893 29.1894 2.93766 29.1894 2.85054C29.1894 2.76342 29.225 2.69214 29.2686 2.69214C29.3121 2.69214 29.3478 2.58523 29.3478 2.45455C29.3478 2.32387 29.3834 2.21696 29.427 2.21696C29.4705 2.21696 29.5062 2.14568 29.5062 2.05856C29.5062 1.97145 29.5418 1.90017 29.5854 1.90017C29.6289 1.90017 29.6646 1.79325 29.6646 1.66257C29.6646 1.5319 29.7002 1.42498 29.7438 1.42498C29.7873 1.42498 29.823 1.3537 29.823 1.26659C29.823 1.17947 29.8586 1.10819 29.9022 1.10819C29.9457 1.10819 29.9814 1.07255 29.9814 1.02899C29.9814 0.977435 28.8311 0.949795 26.689 0.949795C23.2229 0.949795 23.1704 0.955022 23.1704 1.30056C23.1704 1.36899 23.1347 1.42498 23.0912 1.42498C23.0476 1.42498 23.012 1.5319 23.012 1.66257C23.012 1.79325 22.9763 1.90017 22.9328 1.90017C22.8892 1.90017 22.8536 1.97145 22.8536 2.05856C22.8536 2.14568 22.8179 2.21696 22.7744 2.21696C22.7308 2.21696 22.6952 2.32387 22.6952 2.45455C22.6952 2.58523 22.6595 2.69214 22.616 2.69214C22.5724 2.69214 22.5368 2.76342 22.5368 2.85054C22.5368 2.93766 22.5011 3.00893 22.4576 3.00893C22.414 3.00893 22.3784 3.11585 22.3784 3.24653C22.3784 3.3772 22.3427 3.48412 22.2992 3.48412C22.2556 3.48412 22.22 3.59104 22.22 3.72171C22.22 3.85239 22.1843 3.95931 22.1408 3.95931C22.0972 3.95931 22.0616 4.03058 22.0616 4.1177C22.0616 4.20482 22.026 4.2761 21.9824 4.2761C21.9388 4.2761 21.9032 4.38301 21.9032 4.51369C21.9032 4.64437 21.8676 4.75128 21.824 4.75128C21.7804 4.75128 21.7448 4.82256 21.7448 4.90968C21.7448 4.9968 21.7092 5.06807 21.6656 5.06807C21.622 5.06807 21.5864 5.17499 21.5864 5.30567C21.5864 5.43634 21.5508 5.54326 21.5072 5.54326C21.4637 5.54326 21.428 5.61454 21.428 5.70166C21.428 5.78877 21.3924 5.86005 21.3488 5.86005C21.3053 5.86005 21.2696 5.96697 21.2696 6.09764C21.2696 6.22832 21.234 6.33524 21.1904 6.33524C21.1469 6.33524 21.1112 6.40651 21.1112 6.49363C21.1112 6.58075 21.0756 6.65203 21.032 6.65203C20.9885 6.65203 20.9528 6.75894 20.9528 6.88962C20.9528 7.0203 20.9172 7.12721 20.8736 7.12721C20.8301 7.12721 20.7944 7.19849 20.7944 7.28561C20.7944 7.37273 20.7588 7.444 20.7152 7.444C20.6717 7.444 20.636 7.55092 20.636 7.6816C20.636 7.81227 20.6004 7.91919 20.5568 7.91919C20.5133 7.91919 20.4776 7.99047 20.4776 8.07759C20.4776 8.1647 20.442 8.23598 20.3984 8.23598C20.3549 8.23598 20.3192 8.3429 20.3192 8.47357C20.3192 8.60425 20.2836 8.71117 20.24 8.71117C20.1965 8.71117 20.1608 8.78244 20.1608 8.86956C20.1608 8.95668 20.1252 9.02796 20.0817 9.02796C20.0381 9.02796 20.0025 9.13487 20.0025 9.26555C20.0025 9.39623 19.9668 9.50314 19.9233 9.50314C19.8797 9.50314 19.8441 9.57442 19.8441 9.66154C19.8441 9.74866 19.8084 9.81993 19.7649 9.81993C19.7213 9.81993 19.6857 9.92685 19.6857 10.0575C19.6857 10.1882 19.65 10.2951 19.6065 10.2951C19.5629 10.2951 19.5273 10.3664 19.5273 10.4535C19.5273 10.5406 19.4916 10.6119 19.4481 10.6119C19.4045 10.6119 19.3689 10.7188 19.3689 10.8495C19.3689 10.9802 19.3332 11.0871 19.2897 11.0871C19.2461 11.0871 19.2105 11.194 19.2105 11.3247C19.2105 11.4554 19.1748 11.5623 19.1313 11.5623C19.0877 11.5623 19.0521 11.6336 19.0521 11.7207C19.0521 11.8078 19.0164 11.8791 18.9729 11.8791C18.9293 11.8791 18.8937 11.986 18.8937 12.1167C18.8937 12.2473 18.858 12.3543 18.8145 12.3543C18.7709 12.3543 18.7353 12.4255 18.7353 12.5127C18.7353 12.5998 18.6997 12.6711 18.6561 12.6711C18.6125 12.6711 18.5769 12.778 18.5769 12.9086C18.5769 13.0393 18.5413 13.1462 18.4977 13.1462C18.4541 13.1462 18.4185 13.2175 18.4185 13.3046C18.4185 13.3917 18.3829 13.463 18.3393 13.463C18.2957 13.463 18.2601 13.5699 18.2601 13.7006C18.2601 13.8313 18.2245 13.9382 18.1809 13.9382C18.1373 13.9382 18.1017 14.0095 18.1017 14.0966C18.1017 14.1837 18.0661 14.255 18.0225 14.255C17.979 14.255 17.9433 14.3619 17.9433 14.4926C17.9433 14.6233 17.9077 14.7302 17.8641 14.7302C17.8206 14.7302 17.7849 14.8015 17.7849 14.8886C17.7849 14.9757 17.7493 15.047 17.7057 15.047C17.6622 15.047 17.6265 15.1539 17.6265 15.2846C17.6265 15.4152 17.5909 15.5222 17.5473 15.5222C17.5038 15.5222 17.4681 15.5934 17.4681 15.6806C17.4681 15.7677 17.4325 15.839 17.3889 15.839C17.3454 15.839 17.3097 15.9459 17.3097 16.0765C17.3097 16.2072 17.2741 16.3141 17.2305 16.3141C17.187 16.3141 17.1513 16.3854 17.1513 16.4725C17.1513 16.5597 17.1157 16.6309 17.0721 16.6309C17.0286 16.6309 16.9929 16.7379 16.9929 16.8685C16.9929 16.9992 16.9573 17.1061 16.9137 17.1061C16.8702 17.1061 16.8345 17.1774 16.8345 17.2645C16.8345 17.3701 16.7817 17.4229 16.6762 17.4229C16.5353 17.4229 16.5178 17.3701 16.5178 16.9477C16.5178 16.6838 16.4826 16.4725 16.4386 16.4725C16.395 16.4725 16.3594 16.2943 16.3594 16.0765C16.3594 15.8588 16.3237 15.6806 16.2802 15.6806C16.2366 15.6806 16.201 15.5024 16.201 15.2846C16.201 15.0668 16.1653 14.8886 16.1218 14.8886C16.0777 14.8886 16.0426 14.6774 16.0426 14.4134C16.0426 14.1494 16.0074 13.9382 15.9634 13.9382C15.9198 13.9382 15.8842 13.76 15.8842 13.5422C15.8842 13.3244 15.8485 13.1462 15.805 13.1462C15.7614 13.1462 15.7258 12.968 15.7258 12.7502C15.7258 12.5325 15.6901 12.3543 15.6466 12.3543C15.603 12.3543 15.5674 12.1761 15.5674 11.9583C15.5674 11.7405 15.5317 11.5623 15.4882 11.5623C15.4442 11.5623 15.409 11.3511 15.409 11.0871C15.409 10.8231 15.3738 10.6119 15.3298 10.6119C15.2862 10.6119 15.2506 10.4337 15.2506 10.2159C15.2506 9.99813 15.215 9.81993 15.1714 9.81993C15.1278 9.81993 15.0922 9.64174 15.0922 9.42395C15.0922 9.20615 15.0566 9.02796 15.013 9.02796C14.969 9.02796 14.9338 8.81674 14.9338 8.55277C14.9338 8.28881 14.8986 8.07759 14.8546 8.07759C14.811 8.07759 14.7754 7.89939 14.7754 7.6816C14.7754 7.4638 14.7398 7.28561 14.6962 7.28561C14.6527 7.28561 14.617 7.10741 14.617 6.88962C14.617 6.67183 14.5814 6.49363 14.5378 6.49363C14.4938 6.49363 14.4586 6.28241 14.4586 6.01845C14.4586 5.75448 14.4235 5.54326 14.3794 5.54326C14.3359 5.54326 14.3002 5.36507 14.3002 5.14727C14.3002 4.92948 14.2646 4.75128 14.221 4.75128C14.1775 4.75128 14.1418 4.57309 14.1418 4.3553C14.1418 4.1375 14.1062 3.95931 14.0626 3.95931C14.0191 3.95931 13.9834 3.78111 13.9834 3.56332C13.9834 3.34552 13.9478 3.16733 13.9042 3.16733C13.8607 3.16733 13.825 3.06041 13.825 2.92974C13.825 2.79906 13.7894 2.69214 13.7458 2.69214C13.7023 2.69214 13.6666 2.62871 13.6666 2.55125C13.6666 2.47372 13.5954 2.35896 13.5082 2.29616C13.4211 2.23335 13.3498 2.13475 13.3498 2.07709C13.3498 1.94111 12.9921 1.58338 12.8561 1.58338C12.7985 1.58338 12.6999 1.5121 12.6371 1.42498C12.5743 1.33786 12.4595 1.26659 12.382 1.26659C12.3045 1.26659 12.2411 1.23095 12.2411 1.18739C12.2411 1.14383 12.1342 1.10819 12.0035 1.10819C11.8728 1.10819 11.7659 1.07255 11.7659 1.02899C11.7659 0.976881 9.78595 0.949795 5.98447 0.949795C0.255862 0.949795 0.203037 0.951221 0.203037 1.10819ZM32.6741 1.26659C32.6741 1.44082 32.6384 1.58338 32.5949 1.58338C32.5513 1.58338 32.5157 1.76157 32.5157 1.97937C32.5157 2.19716 32.48 2.37535 32.4365 2.37535C32.3929 2.37535 32.3573 2.51791 32.3573 2.69214C32.3573 2.86638 32.3217 3.00893 32.2781 3.00893C32.2345 3.00893 32.1989 3.18713 32.1989 3.40492C32.1989 3.62272 32.1633 3.80091 32.1197 3.80091C32.0761 3.80091 32.0405 3.97911 32.0405 4.1969C32.0405 4.41469 32.0049 4.59289 31.9613 4.59289C31.9177 4.59289 31.8821 4.77108 31.8821 4.98888C31.8821 5.20667 31.8465 5.38486 31.8029 5.38486C31.7593 5.38486 31.7237 5.52742 31.7237 5.70166C31.7237 5.87589 31.6881 6.01845 31.6445 6.01845C31.601 6.01845 31.5653 6.19664 31.5653 6.41443C31.5653 6.63223 31.5297 6.81042 31.4861 6.81042C31.4426 6.81042 31.4069 6.98862 31.4069 7.20641C31.4069 7.4242 31.3713 7.6024 31.3277 7.6024C31.2842 7.6024 31.2485 7.74496 31.2485 7.91919C31.2485 8.09342 31.2129 8.23598 31.1693 8.23598C31.1258 8.23598 31.0901 8.41418 31.0901 8.63197C31.0901 8.84976 31.0545 9.02796 31.0109 9.02796C30.9674 9.02796 30.9317 9.20615 30.9317 9.42395C30.9317 9.64174 30.8961 9.81993 30.8525 9.81993C30.809 9.81993 30.7733 9.96249 30.7733 10.1367C30.7733 10.311 30.7377 10.4535 30.6941 10.4535C30.6506 10.4535 30.6149 10.6317 30.6149 10.8495C30.6149 11.0673 30.5793 11.2455 30.5357 11.2455C30.4922 11.2455 30.4565 11.4237 30.4565 11.6415C30.4565 11.8593 30.4209 12.0375 30.3773 12.0375C30.3338 12.0375 30.2982 12.18 30.2982 12.3543C30.2982 12.5285 30.2625 12.6711 30.219 12.6711C30.1754 12.6711 30.1398 12.8492 30.1398 13.067C30.1398 13.2848 30.1041 13.463 30.0606 13.463C30.017 13.463 29.9814 13.6412 29.9814 13.859C29.9814 14.0768 29.9457 14.255 29.9022 14.255C29.8586 14.255 29.823 14.3976 29.823 14.5718C29.823 14.746 29.7873 14.8886 29.7438 14.8886C29.7002 14.8886 29.6646 15.0668 29.6646 15.2846C29.6646 15.5024 29.6289 15.6806 29.5854 15.6806C29.5418 15.6806 29.5062 15.8588 29.5062 16.0765C29.5062 16.2943 29.4705 16.4725 29.427 16.4725C29.3834 16.4725 29.3478 16.6151 29.3478 16.7893C29.3478 16.9636 29.3121 17.1061 29.2686 17.1061C29.225 17.1061 29.1894 17.2843 29.1894 17.5021C29.1894 17.7199 29.1537 17.8981 29.1102 17.8981C29.0666 17.8981 29.031 18.0763 29.031 18.2941C29.031 18.5119 28.9953 18.6901 28.9518 18.6901C28.9082 18.6901 28.8726 18.8326 28.8726 19.0069C28.8726 19.1811 28.837 19.3237 28.7934 19.3237C28.7498 19.3237 28.7142 19.5018 28.7142 19.7196C28.7142 19.9374 28.6786 20.1156 28.635 20.1156C28.5914 20.1156 28.5558 20.2938 28.5558 20.5116C28.5558 20.7294 28.5202 20.9076 28.4766 20.9076C28.433 20.9076 28.3974 21.0502 28.3974 21.2244C28.3974 21.3986 28.3618 21.5412 28.3182 21.5412C28.2747 21.5412 28.239 21.7194 28.239 21.9372C28.239 22.155 28.2034 22.3332 28.1598 22.3332C28.1163 22.3332 28.0806 22.5114 28.0806 22.7292C28.0806 22.9469 28.045 23.1251 28.0014 23.1251C27.9579 23.1251 27.9222 23.2677 27.9222 23.4419C27.9222 23.6162 27.8866 23.7587 27.843 23.7587C27.7995 23.7587 27.7638 23.9369 27.7638 24.1547C27.7638 24.3725 27.7282 24.5507 27.6846 24.5507C27.6411 24.5507 27.6054 24.7289 27.6054 24.9467C27.6054 25.1645 27.5698 25.3427 27.5262 25.3427C27.4827 25.3427 27.447 25.3783 27.447 25.4219C27.447 25.4734 28.5445 25.5011 30.581 25.5011C34.1031 25.5011 33.9412 25.5294 33.9412 24.9127C33.9412 24.7136 33.9769 24.5507 34.0204 24.5507C34.064 24.5507 34.0996 24.4081 34.0996 24.2339C34.0996 24.0597 34.1353 23.9171 34.1788 23.9171C34.2224 23.9171 34.258 23.7389 34.258 23.5211C34.258 23.3033 34.2937 23.1251 34.3372 23.1251C34.3808 23.1251 34.4164 22.9469 34.4164 22.7292C34.4164 22.5114 34.4521 22.3332 34.4956 22.3332C34.5392 22.3332 34.5748 22.1906 34.5748 22.0164C34.5748 21.8421 34.6105 21.6996 34.654 21.6996C34.6976 21.6996 34.7332 21.5214 34.7332 21.3036C34.7332 21.0858 34.7689 20.9076 34.8124 20.9076C34.856 20.9076 34.8916 20.7294 34.8916 20.5116C34.8916 20.2938 34.9273 20.1156 34.9708 20.1156C35.0144 20.1156 35.05 19.9731 35.05 19.7988C35.05 19.6246 35.0857 19.482 35.1292 19.482C35.1728 19.482 35.2084 19.3039 35.2084 19.0861C35.2084 18.8683 35.244 18.6901 35.2876 18.6901C35.3312 18.6901 35.3668 18.5119 35.3668 18.2941C35.3668 18.0763 35.4024 17.8981 35.446 17.8981C35.4896 17.8981 35.5252 17.7555 35.5252 17.5813C35.5252 17.4071 35.5608 17.2645 35.6044 17.2645C35.648 17.2645 35.6836 17.0863 35.6836 16.8685C35.6836 16.6507 35.7192 16.4725 35.7628 16.4725C35.8063 16.4725 35.842 16.2943 35.842 16.0765C35.842 15.8588 35.8776 15.6806 35.9212 15.6806C35.9647 15.6806 36.0004 15.538 36.0004 15.3638C36.0004 15.1895 36.036 15.047 36.0796 15.047C36.1231 15.047 36.1588 14.8688 36.1588 14.651C36.1588 14.4332 36.1944 14.255 36.238 14.255C36.2815 14.255 36.3172 14.0768 36.3172 13.859C36.3172 13.6412 36.3528 13.463 36.3964 13.463C36.4399 13.463 36.4756 13.3205 36.4756 13.1462C36.4756 12.972 36.5112 12.8294 36.5548 12.8294C36.5983 12.8294 36.634 12.6513 36.634 12.4335C36.634 12.2157 36.6696 12.0375 36.7132 12.0375C36.7567 12.0375 36.7924 11.8593 36.7924 11.6415C36.7924 11.4237 36.828 11.2455 36.8716 11.2455C36.9151 11.2455 36.9508 11.1029 36.9508 10.9287C36.9508 10.7545 36.9864 10.6119 37.03 10.6119C37.0735 10.6119 37.1091 10.4337 37.1091 10.2159C37.1091 9.99813 37.1448 9.81993 37.1883 9.81993C37.2319 9.81993 37.2675 9.64174 37.2675 9.42395C37.2675 9.20615 37.3032 9.02796 37.3467 9.02796C37.3903 9.02796 37.4259 8.8854 37.4259 8.71117C37.4259 8.53693 37.4616 8.39438 37.5051 8.39438C37.5487 8.39438 37.5843 8.21618 37.5843 7.99839C37.5843 7.78059 37.62 7.6024 37.6635 7.6024C37.7071 7.6024 37.7427 7.4242 37.7427 7.20641C37.7427 6.98862 37.7784 6.81042 37.8219 6.81042C37.8655 6.81042 37.9011 6.66787 37.9011 6.49363C37.9011 6.3194 37.9368 6.17684 37.9803 6.17684C38.0239 6.17684 38.0595 5.99865 38.0595 5.78085C38.0595 5.56306 38.0952 5.38486 38.1387 5.38486C38.1823 5.38486 38.2179 5.20667 38.2179 4.98888C38.2179 4.77108 38.2536 4.59289 38.2971 4.59289C38.3407 4.59289 38.3763 4.45033 38.3763 4.2761C38.3763 4.10186 38.412 3.95931 38.4555 3.95931C38.4991 3.95931 38.5347 3.78111 38.5347 3.56332C38.5347 3.34552 38.5703 3.16733 38.6139 3.16733C38.6575 3.16733 38.6931 2.98914 38.6931 2.77134C38.6931 2.55355 38.7287 2.37535 38.7723 2.37535C38.8159 2.37535 38.8515 2.2328 38.8515 2.05856C38.8515 1.88433 38.8871 1.74177 38.9307 1.74177C38.9743 1.74177 39.0099 1.56358 39.0099 1.34578V0.949795H35.842H32.6741V1.26659ZM67.6795 1.02899C67.6795 1.07255 67.5725 1.10819 67.4419 1.10819C67.3112 1.10819 67.2043 1.14383 67.2043 1.18739C67.2043 1.23095 67.133 1.26659 67.0459 1.26659C66.9587 1.26659 66.8875 1.30222 66.8875 1.34578C66.8875 1.38934 66.8331 1.42498 66.7666 1.42498C66.6094 1.42498 65.9371 2.09729 65.9371 2.2545C65.9371 2.32094 65.9015 2.37535 65.8579 2.37535C65.8143 2.37535 65.7787 2.44663 65.7787 2.53375C65.7787 2.62087 65.7431 2.69214 65.6995 2.69214C65.656 2.69214 65.6203 2.76342 65.6203 2.85054C65.6203 2.93766 65.5847 3.00893 65.5411 3.00893C65.4976 3.00893 65.4619 3.08021 65.4619 3.16733C65.4619 3.25445 65.4263 3.32573 65.3827 3.32573C65.3392 3.32573 65.3035 3.43264 65.3035 3.56332C65.3035 3.69399 65.2679 3.80091 65.2243 3.80091C65.1808 3.80091 65.1451 3.87219 65.1451 3.95931C65.1451 4.04642 65.1095 4.1177 65.0659 4.1177C65.0224 4.1177 64.9867 4.18898 64.9867 4.2761C64.9867 4.36321 64.9511 4.43449 64.9075 4.43449C64.864 4.43449 64.8283 4.54141 64.8283 4.67209C64.8283 4.80276 64.7927 4.90968 64.7491 4.90968C64.7056 4.90968 64.6699 4.98096 64.6699 5.06807C64.6699 5.15519 64.6343 5.22647 64.5907 5.22647C64.5472 5.22647 64.5115 5.29775 64.5115 5.38486C64.5115 5.47198 64.4759 5.54326 64.4323 5.54326C64.3888 5.54326 64.3531 5.65018 64.3531 5.78085C64.3531 5.91153 64.3175 6.01845 64.2739 6.01845C64.2304 6.01845 64.1948 6.08972 64.1948 6.17684C64.1948 6.26396 64.1591 6.33524 64.1156 6.33524C64.072 6.33524 64.0364 6.44215 64.0364 6.57283C64.0364 6.70351 64.0007 6.81042 63.9572 6.81042C63.9136 6.81042 63.878 6.8817 63.878 6.96882C63.878 7.05594 63.8423 7.12721 63.7988 7.12721C63.7552 7.12721 63.7196 7.19849 63.7196 7.28561C63.7196 7.37273 63.6839 7.444 63.6404 7.444C63.5968 7.444 63.5612 7.55092 63.5612 7.6816C63.5612 7.81227 63.5255 7.91919 63.482 7.91919C63.4384 7.91919 63.4028 7.99047 63.4028 8.07759C63.4028 8.1647 63.3671 8.23598 63.3236 8.23598C63.28 8.23598 63.2444 8.3429 63.2444 8.47357C63.2444 8.60425 63.2087 8.71117 63.1652 8.71117C63.1216 8.71117 63.086 8.78244 63.086 8.86956C63.086 8.95668 63.0503 9.02796 63.0068 9.02796C62.9632 9.02796 62.9276 9.09924 62.9276 9.18635C62.9276 9.27347 62.892 9.34475 62.8484 9.34475C62.8048 9.34475 62.7692 9.45166 62.7692 9.58234C62.7692 9.71302 62.7336 9.81993 62.69 9.81993C62.6464 9.81993 62.6108 9.89121 62.6108 9.97833C62.6108 10.0654 62.5752 10.1367 62.5316 10.1367C62.488 10.1367 62.4524 10.208 62.4524 10.2951C62.4524 10.3822 62.4168 10.4535 62.3732 10.4535C62.3296 10.4535 62.294 10.5604 62.294 10.6911C62.294 10.8218 62.2584 10.9287 62.2148 10.9287C62.1713 10.9287 62.1356 11 62.1356 11.0871C62.1356 11.1742 62.1 11.2455 62.0564 11.2455C62.0129 11.2455 61.9772 11.3524 61.9772 11.4831C61.9772 11.6138 61.9416 11.7207 61.898 11.7207C61.8545 11.7207 61.8188 11.792 61.8188 11.8791C61.8188 11.9662 61.7832 12.0375 61.7396 12.0375C61.6961 12.0375 61.6604 12.1087 61.6604 12.1959C61.6604 12.283 61.6248 12.3543 61.5812 12.3543C61.5377 12.3543 61.502 12.4612 61.502 12.5919C61.502 12.7225 61.4664 12.8294 61.4228 12.8294C61.3793 12.8294 61.3436 12.9007 61.3436 12.9878C61.3436 13.075 61.308 13.1462 61.2644 13.1462C61.2209 13.1462 61.1852 13.2532 61.1852 13.3838C61.1852 13.5145 61.1496 13.6214 61.106 13.6214C61.0625 13.6214 61.0268 13.6927 61.0268 13.7798C61.0268 13.8669 60.9912 13.9382 60.9476 13.9382C60.9041 13.9382 60.8685 14.0095 60.8685 14.0966C60.8685 14.1837 60.8328 14.255 60.7893 14.255C60.7457 14.255 60.7101 14.3619 60.7101 14.4926C60.7101 14.6233 60.6744 14.7302 60.6309 14.7302C60.5873 14.7302 60.5517 14.8015 60.5517 14.8886C60.5517 14.9757 60.516 15.047 60.4725 15.047C60.4289 15.047 60.3933 15.1539 60.3933 15.2846C60.3933 15.4152 60.3576 15.5222 60.3141 15.5222C60.2705 15.5222 60.2349 15.5934 60.2349 15.6806C60.2349 15.7677 60.1992 15.839 60.1557 15.839C60.1121 15.839 60.0765 15.9102 60.0765 15.9974C60.0765 16.0845 60.0408 16.1557 59.9973 16.1557C59.9537 16.1557 59.9181 16.2627 59.9181 16.3933C59.9181 16.524 59.8824 16.6309 59.8389 16.6309C59.7953 16.6309 59.7597 16.7022 59.7597 16.7893C59.7597 16.8764 59.724 16.9477 59.6805 16.9477C59.6369 16.9477 59.6013 17.019 59.6013 17.1061C59.6013 17.1932 59.5656 17.2645 59.5221 17.2645C59.4785 17.2645 59.4429 17.3714 59.4429 17.5021C59.4429 17.6328 59.4073 17.7397 59.3637 17.7397C59.3201 17.7397 59.2845 17.811 59.2845 17.8981C59.2845 17.9852 59.2489 18.0565 59.2053 18.0565C59.1617 18.0565 59.1261 18.1634 59.1261 18.2941C59.1261 18.4248 59.0905 18.5317 59.0469 18.5317C59.0033 18.5317 58.9677 18.603 58.9677 18.6901C58.9677 18.7772 58.9321 18.8485 58.8885 18.8485C58.845 18.8485 58.8093 18.9197 58.8093 19.0069C58.8093 19.094 58.7737 19.1653 58.7301 19.1653C58.6866 19.1653 58.6509 19.2722 58.6509 19.4029C58.6509 19.5335 58.6153 19.6404 58.5717 19.6404C58.5282 19.6404 58.4925 19.7117 58.4925 19.7988C58.4925 19.886 58.4569 19.9572 58.4133 19.9572C58.3698 19.9572 58.3341 20.0642 58.3341 20.1948C58.3341 20.3255 58.2985 20.4324 58.2549 20.4324C58.2114 20.4324 58.1757 20.5037 58.1757 20.5908C58.1757 20.6779 58.1401 20.7492 58.0965 20.7492C58.053 20.7492 58.0173 20.8205 58.0173 20.9076C58.0173 20.9947 57.9817 21.066 57.9381 21.066C57.8946 21.066 57.8589 21.1729 57.8589 21.3036C57.8589 21.4343 57.8233 21.5412 57.7797 21.5412C57.7362 21.5412 57.7005 21.6125 57.7005 21.6996C57.7005 21.7867 57.6649 21.858 57.6213 21.858C57.5778 21.858 57.5421 21.9293 57.5421 22.0164C57.5421 22.1035 57.5065 22.1748 57.463 22.1748C57.4194 22.1748 57.3838 22.2817 57.3838 22.4124C57.3838 22.543 57.3481 22.65 57.3046 22.65C57.261 22.65 57.2254 22.7212 57.2254 22.8084C57.2254 22.8955 57.1897 22.9667 57.1462 22.9667C57.1026 22.9667 57.067 23.0737 57.067 23.2043C57.067 23.335 57.0313 23.4419 56.9878 23.4419C56.9442 23.4419 56.9086 23.5132 56.9086 23.6003C56.9086 23.6874 56.8729 23.7587 56.8294 23.7587C56.7858 23.7587 56.7502 23.83 56.7502 23.9171C56.7502 24.0042 56.7145 24.0755 56.671 24.0755C56.6274 24.0755 56.5918 24.1824 56.5918 24.3131C56.5918 24.4438 56.5561 24.5507 56.5126 24.5507C56.469 24.5507 56.4334 24.622 56.4334 24.7091C56.4334 24.7962 56.3977 24.8675 56.3542 24.8675C56.3106 24.8675 56.275 24.9744 56.275 25.1051C56.275 25.2358 56.2393 25.3427 56.1958 25.3427C56.1522 25.3427 56.1166 25.3783 56.1166 25.4219C56.1166 25.4734 57.2782 25.5011 59.4429 25.5011C62.7164 25.5011 62.7692 25.4985 62.7692 25.3427C62.7692 25.2556 62.8048 25.1843 62.8484 25.1843C62.892 25.1843 62.9276 25.113 62.9276 25.0259C62.9276 24.9388 62.9632 24.8675 63.0068 24.8675C63.0503 24.8675 63.086 24.7606 63.086 24.6299C63.086 24.4992 63.1216 24.3923 63.1652 24.3923C63.2087 24.3923 63.2444 24.2854 63.2444 24.1547C63.2444 24.024 63.28 23.9171 63.3236 23.9171C63.3671 23.9171 63.4028 23.8102 63.4028 23.6795C63.4028 23.5488 63.4384 23.4419 63.482 23.4419C63.5255 23.4419 63.5612 23.3707 63.5612 23.2835C63.5612 23.1964 63.5968 23.1251 63.6404 23.1251C63.6839 23.1251 63.7196 23.0182 63.7196 22.8875C63.7196 22.7569 63.7552 22.65 63.7988 22.65C63.8423 22.65 63.878 22.543 63.878 22.4124C63.878 22.2817 63.9136 22.1748 63.9572 22.1748C64.0007 22.1748 64.0364 22.1035 64.0364 22.0164C64.0364 21.86 64.0892 21.858 68.1546 21.858H72.2729V22.0956C72.2729 22.2262 72.3086 22.3332 72.3521 22.3332C72.3957 22.3332 72.4313 22.4757 72.4313 22.65C72.4313 22.8242 72.4669 22.9667 72.5105 22.9667C72.5541 22.9667 72.5897 23.1449 72.5897 23.3627C72.5897 23.5805 72.6253 23.7587 72.6689 23.7587C72.7125 23.7587 72.7481 23.9369 72.7481 24.1547C72.7481 24.3725 72.7837 24.5507 72.8273 24.5507C72.8709 24.5507 72.9065 24.7136 72.9065 24.9127C72.9065 25.5266 72.7711 25.5011 76.0292 25.5011C78.8727 25.5011 78.9255 25.4982 78.9255 25.3427C78.9255 25.2556 78.8899 25.1843 78.8463 25.1843C78.8028 25.1843 78.7671 25.0417 78.7671 24.8675C78.7671 24.6933 78.7315 24.5507 78.6879 24.5507C78.6444 24.5507 78.6087 24.3725 78.6087 24.1547C78.6087 23.9369 78.5731 23.7587 78.5295 23.7587C78.486 23.7587 78.4503 23.5805 78.4503 23.3627C78.4503 23.1449 78.4147 22.9667 78.3711 22.9667C78.3276 22.9667 78.2919 22.7886 78.2919 22.5708C78.2919 22.353 78.2563 22.1748 78.2127 22.1748C78.1692 22.1748 78.1335 22.0322 78.1335 21.858C78.1335 21.6837 78.0979 21.5412 78.0543 21.5412C78.0108 21.5412 77.9751 21.363 77.9751 21.1452C77.9751 20.9274 77.9395 20.7492 77.896 20.7492C77.8524 20.7492 77.8167 20.571 77.8167 20.3532C77.8167 20.1354 77.7811 19.9572 77.7376 19.9572C77.694 19.9572 77.6584 19.779 77.6584 19.5612C77.6584 19.3435 77.6227 19.1653 77.5792 19.1653C77.5356 19.1653 77.5 18.9871 77.5 18.7693C77.5 18.5515 77.4643 18.3733 77.4208 18.3733C77.3772 18.3733 77.3416 18.2307 77.3416 18.0565C77.3416 17.8823 77.3059 17.7397 77.2624 17.7397C77.2188 17.7397 77.1832 17.5615 77.1832 17.3437C77.1832 17.1259 77.1475 16.9477 77.104 16.9477C77.0604 16.9477 77.0248 16.7695 77.0248 16.5517C77.0248 16.3339 76.9891 16.1557 76.9456 16.1557C76.902 16.1557 76.8664 15.9776 76.8664 15.7598C76.8664 15.542 76.8307 15.3638 76.7872 15.3638C76.7436 15.3638 76.708 15.1856 76.708 14.9678C76.708 14.75 76.6723 14.5718 76.6288 14.5718C76.5852 14.5718 76.5496 14.4292 76.5496 14.255C76.5496 14.0808 76.5139 13.9382 76.4704 13.9382C76.4268 13.9382 76.3912 13.76 76.3912 13.5422C76.3912 13.3244 76.3556 13.1462 76.312 13.1462C76.2684 13.1462 76.2328 12.968 76.2328 12.7502C76.2328 12.5325 76.1972 12.3543 76.1536 12.3543C76.11 12.3543 76.0744 12.1761 76.0744 11.9583C76.0744 11.7405 76.0388 11.5623 75.9952 11.5623C75.9516 11.5623 75.916 11.4197 75.916 11.2455C75.916 11.0713 75.8804 10.9287 75.8368 10.9287C75.7933 10.9287 75.7576 10.7505 75.7576 10.5327C75.7576 10.3149 75.722 10.1367 75.6784 10.1367C75.6349 10.1367 75.5992 9.95853 75.5992 9.74074C75.5992 9.52294 75.5636 9.34475 75.52 9.34475C75.4765 9.34475 75.4408 9.16655 75.4408 8.94876C75.4408 8.73097 75.4052 8.55277 75.3616 8.55277C75.3181 8.55277 75.2824 8.37458 75.2824 8.15678C75.2824 7.93899 75.2468 7.76079 75.2032 7.76079C75.1597 7.76079 75.124 7.61824 75.124 7.444C75.124 7.26977 75.0884 7.12721 75.0448 7.12721C75.0013 7.12721 74.9656 6.94902 74.9656 6.73123C74.9656 6.51343 74.93 6.33524 74.8864 6.33524C74.8429 6.33524 74.8072 6.15704 74.8072 5.93925C74.8072 5.72145 74.7716 5.54326 74.728 5.54326C74.6845 5.54326 74.6488 5.36507 74.6488 5.14727C74.6488 4.92948 74.6132 4.75128 74.5696 4.75128C74.5261 4.75128 74.4904 4.57309 74.4904 4.3553C74.4904 4.1375 74.4548 3.95931 74.4113 3.95931C74.3677 3.95931 74.3321 3.81675 74.3321 3.64252C74.3321 3.46828 74.2964 3.32573 74.2529 3.32573C74.2093 3.32573 74.1737 3.14753 74.1737 2.92974C74.1737 2.71194 74.138 2.53375 74.0945 2.53375C74.0509 2.53375 74.0153 2.35555 74.0153 2.13776C74.0153 1.91997 73.9796 1.74177 73.9361 1.74177C73.8925 1.74177 73.8569 1.56358 73.8569 1.34578V0.949795H70.7682C68.7618 0.949795 67.6795 0.977515 67.6795 1.02899ZM69.4218 8.15678C69.4218 8.37458 69.4574 8.55277 69.501 8.55277C69.5446 8.55277 69.5802 8.73097 69.5802 8.94876C69.5802 9.16655 69.6158 9.34475 69.6594 9.34475C69.7029 9.34475 69.7386 9.52294 69.7386 9.74074C69.7386 9.95853 69.7742 10.1367 69.8178 10.1367C69.8613 10.1367 69.897 10.3149 69.897 10.5327C69.897 10.7505 69.9326 10.9287 69.9762 10.9287C70.0197 10.9287 70.0554 11.0713 70.0554 11.2455C70.0554 11.4197 70.091 11.5623 70.1346 11.5623C70.1781 11.5623 70.2138 11.7405 70.2138 11.9583C70.2138 12.1761 70.2494 12.3543 70.293 12.3543C70.3365 12.3543 70.3722 12.5325 70.3722 12.7502C70.3722 12.968 70.4078 13.1462 70.4514 13.1462C70.4949 13.1462 70.5306 13.3244 70.5306 13.5422C70.5306 13.76 70.5662 13.9382 70.6098 13.9382C70.6533 13.9382 70.689 14.1164 70.689 14.3342C70.689 14.552 70.7246 14.7302 70.7682 14.7302C70.8117 14.7302 70.8474 14.8727 70.8474 15.047C70.8474 15.2212 70.883 15.3638 70.9266 15.3638C70.9701 15.3638 71.0058 15.542 71.0058 15.7598C71.0058 15.9776 71.0414 16.1557 71.085 16.1557C71.1285 16.1557 71.1641 16.2983 71.1641 16.4725V16.7893H68.5506C65.9899 16.7893 65.9371 16.7862 65.9371 16.6309C65.9371 16.5438 65.9727 16.4725 66.0163 16.4725C66.0599 16.4725 66.0955 16.4013 66.0955 16.3141C66.0955 16.227 66.1311 16.1557 66.1747 16.1557C66.2183 16.1557 66.2539 16.0488 66.2539 15.9182C66.2539 15.7875 66.2895 15.6806 66.3331 15.6806C66.3766 15.6806 66.4123 15.5736 66.4123 15.443C66.4123 15.3123 66.4479 15.2054 66.4915 15.2054C66.535 15.2054 66.5707 15.0985 66.5707 14.9678C66.5707 14.8371 66.6063 14.7302 66.6499 14.7302C66.6934 14.7302 66.7291 14.6233 66.7291 14.4926C66.7291 14.3619 66.7647 14.255 66.8083 14.255C66.8518 14.255 66.8875 14.1837 66.8875 14.0966C66.8875 14.0095 66.9231 13.9382 66.9667 13.9382C67.0102 13.9382 67.0459 13.8313 67.0459 13.7006C67.0459 13.5699 67.0815 13.463 67.1251 13.463C67.1686 13.463 67.2043 13.3561 67.2043 13.2254C67.2043 13.0948 67.2399 12.9878 67.2835 12.9878C67.327 12.9878 67.3627 12.8809 67.3627 12.7502C67.3627 12.6196 67.3983 12.5127 67.4419 12.5127C67.4854 12.5127 67.5211 12.4414 67.5211 12.3543C67.5211 12.2671 67.5567 12.1959 67.6003 12.1959C67.6438 12.1959 67.6795 12.0889 67.6795 11.9583C67.6795 11.8276 67.7151 11.7207 67.7586 11.7207C67.8022 11.7207 67.8378 11.6138 67.8378 11.4831C67.8378 11.3524 67.8735 11.2455 67.917 11.2455C67.9606 11.2455 67.9962 11.1386 67.9962 11.0079C67.9962 10.8772 68.0319 10.7703 68.0754 10.7703C68.119 10.7703 68.1546 10.699 68.1546 10.6119C68.1546 10.5248 68.1903 10.4535 68.2338 10.4535C68.2774 10.4535 68.313 10.3466 68.313 10.2159C68.313 10.0852 68.3487 9.97833 68.3922 9.97833C68.4358 9.97833 68.4714 9.87141 68.4714 9.74074C68.4714 9.61006 68.5071 9.50314 68.5506 9.50314C68.5942 9.50314 68.6298 9.39623 68.6298 9.26555C68.6298 9.13487 68.6655 9.02796 68.709 9.02796C68.7526 9.02796 68.7882 8.95668 68.7882 8.86956C68.7882 8.78244 68.8239 8.71117 68.8674 8.71117C68.911 8.71117 68.9466 8.60425 68.9466 8.47357C68.9466 8.3429 68.9823 8.23598 69.0258 8.23598C69.0694 8.23598 69.105 8.12906 69.105 7.99839C69.105 7.81362 69.1402 7.76079 69.2634 7.76079C69.4007 7.76079 69.4218 7.81362 69.4218 8.15678Z" fill="#CDCDCD"/>
</svg>
