<svg width="35" height="26" viewBox="0 0 35 26" fill="none" xmlns="http://www.w3.org/2000/svg">
<path d="M21.3194 16C22.3742 16 23.3558 15.6832 24.1838 15.1415C24.9319 15.5546 25.7885 15.7883 26.6982 15.7883C29.6207 15.7883 32 13.3689 32 10.3937C32 7.41859 29.6226 5 26.6982 5C25.6584 5 24.6924 5.31047 23.8723 5.838C23.1143 5.41416 22.2439 5.17163 21.3194 5.17163C18.3863 5.17163 16 7.60069 16 10.5847C15.999 13.5713 18.3863 16 21.3194 16ZM22.583 10.2513H25.6543H26.1295H26.6223C26.6086 10.0106 26.5829 9.77241 26.5373 9.54133H26.0494H25.5526H22.6541C22.7092 9.24903 22.794 8.96878 22.8985 8.69741H25.2592H25.7924H26.299C26.2062 8.4458 26.1008 8.20149 25.9736 7.96824H25.41H24.8321H23.261C23.4425 7.66428 23.6473 7.3785 23.8899 7.12373H24.0258H24.7642H25.4059C25.2067 6.88258 24.988 6.66098 24.7533 6.45736C25.3418 6.15558 25.9952 5.96835 26.6982 5.96835C29.0962 5.96835 31.0479 7.95362 31.0479 10.3937C31.0479 12.8337 29.0962 14.8191 26.6982 14.8191C26.101 14.8191 25.5321 14.6957 25.0136 14.4731C25.1144 14.3734 25.2098 14.2695 25.3024 14.1627H24.6361H24.4497H24.3729C24.3011 14.1054 24.237 14.0408 24.1698 13.9802C24.1599 13.9711 24.15 13.9616 24.1403 13.9525C23.9257 13.7586 23.7244 13.5508 23.5489 13.3187H24.7397H25.3498H25.9047C26.0261 13.109 26.1373 12.8935 26.231 12.6662H25.6978H25.1576H23.1391C22.9973 12.3986 22.8829 12.1181 22.7942 11.8223H25.495H25.9919H26.4946C26.5497 11.5841 26.5911 11.3414 26.6148 11.0931H26.114H25.638H22.6327C22.6023 10.8755 22.5667 10.6578 22.5667 10.4317C22.5654 10.37 22.5811 10.3124 22.583 10.2513Z" fill="#363636"/>
<rect x="0.6" y="0.6" width="33.8" height="24.8" rx="3.4" stroke="#363636" stroke-width="1.2"/>
</svg>
