<svg width="21" height="21" viewBox="0 0 21 21" fill="none" xmlns="http://www.w3.org/2000/svg">
<path fill-rule="evenodd" clip-rule="evenodd" d="M0.676758 17.0284C0.956156 17.2648 1.25705 17.5442 1.60092 17.8236L2.58956 18.5543C6.65159 21.2408 12.0031 21.6707 16.538 19.7794C18.021 19.1561 19.6974 18.103 20.7505 17.0069C20.686 16.4266 19.9553 14.4493 19.6544 13.869C19.1815 12.9663 18.6442 11.9562 17.6771 11.5908C15.4634 10.6882 15.0121 12.6654 10.7351 12.6654C9.44558 12.6654 8.19903 12.4505 7.10293 12.0637C5.92085 11.6338 5.2331 10.9891 3.77163 11.5693C2.46061 12.0852 1.60092 14.0839 1.17108 15.352C1.02063 15.8248 0.762727 16.5555 0.676758 17.0284ZM2.26718 16.577C2.54658 16.7705 2.69702 16.9854 3.0409 17.1788C3.3203 17.3507 3.5997 17.5442 3.92208 17.7376C7.38232 19.7794 11.7667 20.1232 15.5279 18.6833C16.2371 18.4254 16.8819 18.1245 17.4837 17.7591C17.892 17.5227 18.8592 16.8994 19.16 16.577C19.0956 15.9108 18.5153 14.6642 18.2359 14.1484C16.495 11.0105 16.1726 14.0409 10.7351 14.0409C9.27364 14.0409 7.74769 13.783 6.41518 13.2672C5.77041 13.0308 4.73878 12.3001 3.90059 13.0953C3.3203 13.6541 2.46061 15.6529 2.26718 16.577Z" fill="#363636"/>
<path fill-rule="evenodd" clip-rule="evenodd" d="M10.0904 0.135349C7.21046 0.479224 4.76035 3.05829 5.1687 6.38958C5.51258 9.24804 8.11313 11.6337 11.4014 11.2468C14.2599 10.9244 16.667 8.30239 16.2802 5.03557C15.9578 2.1986 13.3357 -0.251511 10.0904 0.135349ZM10.1764 1.51085C8.04866 1.83323 6.17884 3.74604 6.5442 6.30361C6.8451 8.38835 8.80089 10.2367 11.3155 9.87132C13.5507 9.54893 15.2271 7.48568 14.9047 5.12154C14.6038 3.0153 12.648 1.16697 10.1764 1.51085Z" fill="#363636"/>
</svg>
