<svg width="121" height="121" viewBox="0 0 121 121" fill="none" xmlns="http://www.w3.org/2000/svg">
<path fill-rule="evenodd" clip-rule="evenodd" d="M3.60217 15.9581H8.76517V4.9893H11.6758V1.11766H0.714844V4.9893H3.60217V15.9581ZM62.1824 20.9852V105.579L82.4336 105.577V76.4719H101.216V57.2737H82.4336V40.1834H103.233V20.9852H62.1824ZM58.0162 105.579V20.9852H17.2617V40.1834H37.765V105.579H58.0162ZM9.49338 15.9581H14.421L14.9372 14.6237H19.6784L20.1946 15.9581H25.1234L19.1855 1.11766H15.4312L9.49338 15.9581ZM16.2516 11.3529L17.3084 8.74938L18.3641 11.3529H16.2516ZM25.8271 15.9581H30.9913V4.9893H33.9008V1.11766H22.9409V4.9893H25.8271V15.9581ZM36.0133 15.9581H41.1763V4.9893H44.0869V1.11766H33.1271V4.9893H36.0133V15.9581ZM43.9226 8.54943C43.9226 9.61758 44.138 10.6257 44.5676 11.575C44.9983 12.5242 45.5855 13.3514 46.3282 14.0554C47.0719 14.7605 47.9433 15.3172 48.9446 15.7244C49.947 16.1327 51.0105 16.3369 52.1372 16.3369C53.264 16.3369 54.3274 16.1327 55.3287 15.7244C56.33 15.3172 57.2025 14.7605 57.9463 14.0554C58.6889 13.3514 59.2751 12.5242 59.7058 11.575C60.1365 10.6257 60.3518 9.61758 60.3518 8.54943C60.3518 7.46655 60.1365 6.45418 59.7058 5.51232C59.2751 4.57046 58.6889 3.74751 57.9463 3.04243C57.2025 2.3384 56.33 1.7817 55.3287 1.37444C54.3274 0.966121 53.264 0.761963 52.1372 0.761963C51.0105 0.761963 49.947 0.966121 48.9446 1.37444C47.9433 1.7817 47.0719 2.3384 46.3282 3.04243C45.5855 3.74751 44.9983 4.57046 44.5676 5.51232C44.138 6.45418 43.9226 7.46655 43.9226 8.54943ZM48.8514 8.54943C48.8514 8.11902 48.9369 7.71491 49.1089 7.33606C49.2821 6.95826 49.5163 6.62782 49.8138 6.34684C50.1113 6.06481 50.4588 5.84171 50.8584 5.67859C51.2569 5.51548 51.6832 5.43444 52.1372 5.43444C52.5913 5.43444 53.0175 5.51548 53.416 5.67859C53.8146 5.84171 54.1631 6.06481 54.4606 6.34684C54.7581 6.62782 54.9924 6.95826 55.1644 7.33606C55.3365 7.71491 55.4231 8.11902 55.4231 8.54943C55.4231 8.97985 55.3365 9.38395 55.1644 9.76175C54.9924 10.1395 54.7581 10.47 54.4606 10.752C54.1631 11.0341 53.8146 11.2561 53.416 11.4192C53.0175 11.5823 52.5913 11.6644 52.1372 11.6644C51.6832 11.6644 51.2569 11.5823 50.8584 11.4192C50.4588 11.2561 50.1113 11.0341 49.8138 10.752C49.5163 10.47 49.2821 10.1395 49.1089 9.76175C48.9369 9.38395 48.8514 8.97985 48.8514 8.54943ZM61.2899 8.54943C61.2899 9.61758 61.5052 10.6257 61.9359 11.575C62.3655 12.5242 62.9528 13.3514 63.6954 14.0554C64.4392 14.7605 65.3117 15.3172 66.313 15.7244C67.3143 16.1327 68.3778 16.3369 69.5045 16.3369C70.6312 16.3369 71.6947 16.1327 72.696 15.7244C73.6973 15.3172 74.5698 14.7605 75.3136 14.0554C76.0562 13.3514 76.6434 12.5242 77.073 11.575C77.5037 10.6257 77.7191 9.61758 77.7191 8.54943C77.7191 7.46655 77.5037 6.45418 77.073 5.51232C76.6434 4.57046 76.0562 3.74751 75.3136 3.04243C74.5698 2.3384 73.6973 1.7817 72.696 1.37444C71.6947 0.966121 70.6312 0.761963 69.5045 0.761963C68.3778 0.761963 67.3143 0.966121 66.313 1.37444C65.3117 1.7817 64.4392 2.3384 63.6954 3.04243C62.9528 3.74751 62.3655 4.57046 61.9359 5.51232C61.5052 6.45418 61.2899 7.46655 61.2899 8.54943ZM66.2186 8.54943C66.2186 8.11902 66.3052 7.71491 66.4773 7.33606C66.6494 6.95826 66.8836 6.62782 67.1811 6.34684C67.4786 6.06481 67.826 5.84171 68.2257 5.67859C68.6242 5.51548 69.0505 5.43444 69.5045 5.43444C69.9585 5.43444 70.3848 5.51548 70.7833 5.67859C71.1829 5.84171 71.5304 6.06481 71.8279 6.34684C72.1254 6.62782 72.3596 6.95826 72.5317 7.33606C72.7037 7.71491 72.7903 8.11902 72.7903 8.54943C72.7903 8.97985 72.7037 9.38395 72.5317 9.76175C72.3596 10.1395 72.1254 10.47 71.8279 10.752C71.5304 11.0341 71.1829 11.2561 70.7833 11.4192C70.3848 11.5823 69.9585 11.6644 69.5045 11.6644C69.0505 11.6644 68.6242 11.5823 68.2257 11.4192C67.826 11.2561 67.4786 11.0341 67.1811 10.752C66.8836 10.47 66.6494 10.1395 66.4773 9.76175C66.3052 9.38395 66.2186 8.97985 66.2186 8.54943ZM79.0568 15.9581H84.0555V10.3511H88.2094V6.65834H84.0555V5.01139H88.2804V1.11766H79.0568V15.9581ZM89.4538 15.9581H98.8418V12.0643H94.4525V10.3511H98.6064V6.65834H94.4525V5.01139H98.6775V1.11766H89.4538V15.9581ZM100.32 15.9581H109.707V12.0643H105.319V10.3511H109.473V6.65834H105.319V5.01139H109.544V1.11766H100.32V15.9581ZM111.186 15.9581H120.715V12.1096H116.35V1.11766H111.186V15.9581ZM6.27303 19.9623V115.046H115.169V19.9623H120.715V119.72V120.305H120.099H1.34315H0.727055V119.72L0.714844 19.9623H6.27303Z" fill="#363636"/>
<path fill-rule="evenodd" clip-rule="evenodd" d="M6.27148 115.045H115.167V112.187H6.27148V115.045Z" fill="#F6D062"/>
</svg>
