<svg width="23" height="23" viewBox="0 0 23 23" fill="none" xmlns="http://www.w3.org/2000/svg">
<path d="M4.50195 2.91699C4.50195 4.02156 3.60652 4.91699 2.50195 4.91699C1.39738 4.91699 0.501953 4.02156 0.501953 2.91699C0.501953 1.81242 1.39738 0.916992 2.50195 0.916992C3.60652 0.916992 4.50195 1.81242 4.50195 2.91699Z" fill="#363636"/>
<path d="M4.50195 11.917C4.50195 13.0216 3.60652 13.917 2.50195 13.917C1.39738 13.917 0.501953 13.0216 0.501953 11.917C0.501953 10.8124 1.39738 9.91699 2.50195 9.91699C3.60652 9.91699 4.50195 10.8124 4.50195 11.917Z" fill="#363636"/>
<path d="M4.50195 20.917C4.50195 22.0216 3.60652 22.917 2.50195 22.917C1.39738 22.917 0.501953 22.0216 0.501953 20.917C0.501953 19.8124 1.39738 18.917 2.50195 18.917C3.60652 18.917 4.50195 19.8124 4.50195 20.917Z" fill="#363636"/>
<path d="M13.502 2.91699C13.502 4.02156 12.6065 4.91699 11.502 4.91699C10.3974 4.91699 9.50195 4.02156 9.50195 2.91699C9.50195 1.81242 10.3974 0.916992 11.502 0.916992C12.6065 0.916992 13.502 1.81242 13.502 2.91699Z" fill="#363636"/>
<path d="M13.502 11.917C13.502 13.0216 12.6065 13.917 11.502 13.917C10.3974 13.917 9.50195 13.0216 9.50195 11.917C9.50195 10.8124 10.3974 9.91699 11.502 9.91699C12.6065 9.91699 13.502 10.8124 13.502 11.917Z" fill="#363636"/>
<path d="M13.502 20.917C13.502 22.0216 12.6065 22.917 11.502 22.917C10.3974 22.917 9.50195 22.0216 9.50195 20.917C9.50195 19.8124 10.3974 18.917 11.502 18.917C12.6065 18.917 13.502 19.8124 13.502 20.917Z" fill="#363636"/>
<path d="M22.502 2.91699C22.502 4.02156 21.6065 4.91699 20.502 4.91699C19.3974 4.91699 18.502 4.02156 18.502 2.91699C18.502 1.81242 19.3974 0.916992 20.502 0.916992C21.6065 0.916992 22.502 1.81242 22.502 2.91699Z" fill="#363636"/>
<path d="M22.502 11.917C22.502 13.0216 21.6065 13.917 20.502 13.917C19.3974 13.917 18.502 13.0216 18.502 11.917C18.502 10.8124 19.3974 9.91699 20.502 9.91699C21.6065 9.91699 22.502 10.8124 22.502 11.917Z" fill="#363636"/>
<path d="M22.502 20.917C22.502 22.0216 21.6065 22.917 20.502 22.917C19.3974 22.917 18.502 22.0216 18.502 20.917C18.502 19.8124 19.3974 18.917 20.502 18.917C21.6065 18.917 22.502 19.8124 22.502 20.917Z" fill="#363636"/>
</svg>
