<svg width="30" height="27" viewBox="0 0 30 27" fill="none" xmlns="http://www.w3.org/2000/svg">
<path d="M27.9916 23.4925C27.7255 23.829 27.2229 23.9131 26.8385 23.6607C26.4837 23.4083 26.395 22.9316 26.6611 22.5951C28.7603 19.7908 26.1289 16.5097 22.9061 16.7901C21.3686 16.9303 19.772 17.996 18.7963 20.5479C18.6189 21.0247 18.2641 21.1929 17.7319 20.9966C15.13 19.959 12.7942 18.6129 10.902 16.9303C9.09838 15.3319 7.70874 13.453 6.79217 11.2376C6.70346 10.8169 6.8513 10.4804 7.32437 10.2C8.59574 9.86345 9.42362 9.41476 9.92625 8.90998C10.3698 8.4052 10.5472 7.78825 10.5767 7.03108C10.6359 6.02153 10.3106 4.98393 9.71928 4.17068C7.08783 0.5531 2.1206 3.38547 2.09104 7.76021C2.06147 10.2841 3.21458 13.0604 4.45639 14.9673C6.28953 17.7997 9.06881 20.2675 12.2325 22.0342C15.3666 23.7729 18.8554 24.8105 22.1374 24.8105C22.5809 24.8105 22.9357 25.175 22.9357 25.5957C22.9357 26.0163 22.5809 26.3529 22.1374 26.3529C18.5598 26.3529 14.7752 25.2311 11.4046 23.3522C8.03397 21.4733 5.04772 18.8373 3.06674 15.7525C1.70667 13.6773 0.435294 10.5926 0.464861 7.76021C0.494428 1.81505 7.5609 -1.55014 11.0498 3.30134C11.8185 4.39502 12.262 5.7411 12.2029 7.08717C12.1733 8.18086 11.8777 9.10628 11.1385 9.91954C10.5767 10.5365 9.77842 11.0132 8.65488 11.4339C9.45318 13.0884 10.6063 14.5467 11.9959 15.8086C13.563 17.2108 15.4848 18.3605 17.6136 19.2579C18.8554 16.5938 20.8068 15.416 22.7583 15.2477C27.3707 14.8551 30.8891 19.5944 27.9916 23.4925Z" fill="#363636" stroke="#363636" stroke-width="0.5"/>
</svg>
