<svg width="28" height="27" viewBox="0 0 28 27" fill="none" xmlns="http://www.w3.org/2000/svg">
<path d="M14.4034 0.0274048C10.7412 0.0274048 10.2827 0.0421347 8.84474 0.108419C7.41041 0.172863 6.42903 0.401177 5.57285 0.734442C4.68537 1.07875 3.93415 1.54091 3.18476 2.29029C2.43538 3.03968 1.97322 3.7909 1.62891 4.67838C1.29565 5.5364 1.06733 6.51594 1.00289 7.95027C0.936605 9.38828 0.921875 9.84859 0.921875 13.509C0.921875 17.1712 0.936605 17.6297 1.00289 19.0677C1.06733 20.5039 1.29565 21.4834 1.62891 22.3414C1.97322 23.227 2.43538 23.9801 3.18476 24.7295C3.93415 25.4789 4.68537 25.9392 5.57285 26.2835C6.42903 26.6168 7.41041 26.8451 8.84474 26.9114C10.2827 26.9758 10.7412 26.9924 14.4034 26.9924C18.0657 26.9924 18.5241 26.9758 19.9622 26.9114C21.3983 26.8451 22.3779 26.6168 23.234 26.2835C24.1215 25.9392 24.8727 25.4789 25.6221 24.7295C26.3734 23.9801 26.8337 23.227 27.178 22.3414C27.5112 21.4834 27.7396 20.5039 27.804 19.0677C27.8703 17.6297 27.885 17.1712 27.885 13.509C27.885 9.84859 27.8703 9.38828 27.804 7.95027C27.7396 6.51594 27.5112 5.5364 27.178 4.67838C26.8337 3.7909 26.3734 3.03968 25.6221 2.29029C24.8727 1.54091 24.1215 1.07875 23.234 0.734442C22.3779 0.401177 21.3983 0.172863 19.9622 0.108419C18.5241 0.0421347 18.0657 0.0274048 14.4034 0.0274048ZM14.4034 2.456C18.0031 2.456 18.4302 2.47073 19.8517 2.53518C21.1663 2.59594 21.8807 2.81504 22.3558 2.99917C22.9836 3.24405 23.4329 3.53681 23.9061 4.00817C24.3774 4.47953 24.6684 4.92879 24.9132 5.55849C25.0974 6.03354 25.3183 6.74794 25.3772 8.06074C25.4435 9.48218 25.4564 9.90935 25.4564 13.509C25.4564 17.1086 25.4435 17.5358 25.3772 18.9572C25.3183 20.2719 25.0974 20.9863 24.9132 21.4613C24.6684 22.091 24.3774 22.5403 23.9061 23.0116C23.4329 23.483 22.9836 23.7757 22.3558 24.0188C21.8807 24.2047 21.1663 24.4239 19.8517 24.4846C18.4302 24.5491 18.0031 24.562 14.4034 24.562C10.8038 24.562 10.3766 24.5491 8.95521 24.4846C7.64056 24.4239 6.928 24.2047 6.45296 24.0188C5.82326 23.7757 5.374 23.483 4.90264 23.0116C4.42944 22.5403 4.13852 22.091 3.89364 21.4613C3.70951 20.9863 3.48857 20.2719 3.42965 18.9572C3.36336 17.5358 3.35047 17.1086 3.35047 13.509C3.35047 9.90935 3.36336 9.48218 3.42965 8.06074C3.48857 6.74794 3.70951 6.03354 3.89364 5.55849C4.13852 4.92879 4.42944 4.47953 4.90264 4.00817C5.374 3.53681 5.82326 3.24405 6.45296 2.99917C6.928 2.81504 7.64056 2.59594 8.95521 2.53518C10.3766 2.47073 10.8038 2.456 14.4034 2.456Z" fill="#363636"/>
<path d="M14.4034 18.0035C11.9214 18.0035 9.90897 15.991 9.90897 13.509C9.90897 11.027 11.9214 9.01453 14.4034 9.01453C16.8854 9.01453 18.8979 11.027 18.8979 13.509C18.8979 15.991 16.8854 18.0035 14.4034 18.0035ZM14.4034 6.58593C10.5792 6.58593 7.48037 9.68658 7.48037 13.509C7.48037 17.3333 10.5792 20.4321 14.4034 20.4321C18.2277 20.4321 21.3265 17.3333 21.3265 13.509C21.3265 9.68658 18.2277 6.58593 14.4034 6.58593Z" fill="#363636"/>
<path d="M23.2175 6.31154C23.2175 7.20639 22.4939 7.93 21.6009 7.93C20.7079 7.93 19.9824 7.20639 19.9824 6.31154C19.9824 5.41854 20.7079 4.69493 21.6009 4.69493C22.4939 4.69493 23.2175 5.41854 23.2175 6.31154Z" fill="#363636"/>
</svg>
