<svg width="30" height="29" viewBox="0 0 30 29" fill="none" xmlns="http://www.w3.org/2000/svg">
<path d="M16.7915 28.0276C12.8928 28.4655 9.17364 27.3465 6.32654 25.2056C3.47944 23.0648 1.50443 19.9021 1.04274 16.2286C0.78624 14.1121 1.04274 12.0686 1.73527 10.1954C2.12002 9.17358 2.63301 8.97896 3.06905 9.12493C3.42814 9.24657 3.76159 9.5385 3.35119 10.5846C2.70996 12.2632 2.45346 14.1365 2.68431 16.034C3.0947 19.294 4.83887 22.0916 7.35252 23.9892C9.86617 25.8625 13.1493 26.8356 16.5863 26.4707C20.0234 26.0814 22.9731 24.4028 24.9737 22.0187C26.9488 19.6345 27.9747 16.5449 27.59 13.285C27.1796 10.0007 25.4098 7.20303 22.8961 5.32979C20.3825 3.43222 17.125 2.45911 13.688 2.84835C11.7642 3.06731 9.99442 3.6755 8.4811 4.57563C7.81421 4.96487 7.24992 4.86756 6.99343 4.52697C6.78823 4.21071 6.76258 3.74848 7.60902 3.2376C9.32753 2.21583 11.3282 1.53465 13.4828 1.29138C17.3815 0.853475 21.075 1.97255 23.9221 4.08907C26.7692 6.22992 28.7699 9.39253 29.2316 13.0904C29.6676 16.7882 28.5134 20.2914 26.2562 22.9918C23.9991 25.6922 20.6646 27.5897 16.7915 28.0276ZM6.60868 16.8855C6.27524 16.5936 6.24959 16.107 6.55738 15.7907C6.86518 15.4745 7.40382 15.4502 7.73726 15.7421L11.0717 18.7101L21.1007 9.34388C21.4341 9.05195 21.9471 9.05195 22.2549 9.36821C22.5883 9.66014 22.5883 10.171 22.2549 10.463L11.0974 20.8753L6.60868 16.8855Z" fill="#F8CD4F" stroke="#F8CD4F" stroke-width="0.5"/>
</svg>
