<svg width="29" height="28" viewBox="0 0 29 28" fill="none" xmlns="http://www.w3.org/2000/svg">
<path d="M13.9188 6.34627C13.9188 5.94385 14.2724 5.57496 14.732 5.57496C15.1916 5.57496 15.5452 5.94385 15.5452 6.34627V13.7575L20.0002 17.8823C20.3184 18.1841 20.3537 18.6872 20.0355 18.989C19.7173 19.2908 19.187 19.2908 18.8687 18.989L13.9188 14.3947V6.34627ZM14.6966 0.812988C18.5505 0.812988 22.0509 2.28853 24.5612 4.70305C27.1069 7.08404 28.6626 10.404 28.6626 14.0929C28.6626 16.172 28.1676 18.1506 27.2483 19.8944C26.7887 20.8669 26.223 21.0011 25.834 20.7999C25.5158 20.6322 25.1976 20.3304 25.728 19.3579C26.5765 17.7817 27.0362 15.9708 27.0362 14.0929C27.0362 10.84 25.6573 7.92241 23.4298 5.80971C21.2023 3.66346 18.0909 2.3556 14.6966 2.3556C11.267 2.3556 8.19097 3.66346 5.92813 5.77617C3.70065 7.92241 2.32173 10.84 2.32173 14.0929C2.32173 17.3122 3.70065 20.2633 5.92813 22.376C8.19097 24.4887 11.267 25.7966 14.6966 25.7966C16.5705 25.7966 18.3737 25.3942 20.0002 24.6899C20.6719 24.3546 21.2377 24.5222 21.4144 24.8911C21.5912 25.2265 21.5559 25.696 20.6719 26.0649C18.8687 26.9032 16.818 27.3392 14.6966 27.3392C10.8074 27.3392 7.30705 25.8636 4.79671 23.4827C2.25101 21.0681 0.695312 17.7482 0.695312 14.0929C0.695312 10.4375 2.25101 7.11757 4.79671 4.70305C7.3424 2.28853 10.8427 0.812988 14.6966 0.812988Z" fill="#F8CD4F" stroke="#F8CD4F" stroke-width="0.5"/>
</svg>
