<svg width="27" height="26" viewBox="0 0 27 26" fill="none" xmlns="http://www.w3.org/2000/svg">
<path d="M1.4927 1.49646H15.7268V2.79941H2.13189V24.1131H23.3682V10.4777H24.6466V24.7646C24.6466 25.1244 24.3604 25.4164 24.0074 25.4164H1.4927C1.13968 25.4164 0.853516 25.1244 0.853516 24.7646V2.14794C0.853516 1.78812 1.13968 1.49646 1.4927 1.49646Z" fill="#363636"/>
<path d="M13.4201 18.2723L7.142 20.2029C6.80401 20.3055 6.44853 20.1095 6.34793 19.765C6.3099 19.6346 6.31389 19.5014 6.35161 19.3811L8.18543 12.7841C8.28051 12.4383 8.63292 12.2367 8.97214 12.3336C9.09421 12.3686 9.19819 12.4377 9.27671 12.5278L13.6973 17.1981C13.9415 17.4567 13.9335 17.868 13.6798 18.1169C13.6038 18.1913 13.5145 18.2429 13.4197 18.2716L13.4201 18.2723ZM7.8913 18.6133L12.0534 17.3332L9.11108 14.2249L7.8913 18.6133Z" fill="#363636"/>
<path d="M12.7714 18.0941L8.33825 13.4103C8.09656 13.1543 8.10177 12.7485 8.34837 12.4991L20.0337 0.368596C20.2803 0.112881 20.684 0.109443 20.9349 0.361093L20.9631 0.390791L25.9091 5.2678C26.1615 5.51664 26.1683 5.92678 25.9241 6.18406L25.9054 6.20313L25.9066 6.20438L13.6753 18.1195C13.4201 18.3671 13.0165 18.3567 12.7739 18.0966L12.7714 18.0941ZM9.68716 12.9639L13.2539 16.7321L24.5485 5.72953L20.5009 1.73814L9.68716 12.9639Z" fill="#363636"/>
<path d="M17.6161 3.77689C17.3735 3.51712 17.3833 3.10572 17.6385 2.85814C17.8937 2.61086 18.2973 2.62118 18.5399 2.88096L23.2473 7.90114C23.4899 8.16092 23.4798 8.57231 23.2246 8.81989C22.9697 9.06717 22.5661 9.05685 22.3232 8.79676L17.6161 3.77689Z" fill="#363636"/>
<path d="M14.117 13.0945C13.8649 13.3446 13.4613 13.339 13.2156 13.0817C12.9702 12.8248 12.9758 12.4134 13.2282 12.163L17.9911 7.41914C18.2435 7.16906 18.6471 7.17469 18.8925 7.43196C19.1379 7.68924 19.1324 8.10063 18.8799 8.35072L14.117 13.0945Z" fill="#363636"/>
</svg>
