<svg width="0" height="0" class="hidden">
    <symbol id="phone" viewBox="0 0 30 27" xmlns="http://www.w3.org/2000/svg">
        <path d="M27.992 23.492a.867.867 0 0 1-1.154.169c-.354-.253-.443-.73-.177-1.066 2.1-2.804-.532-6.085-3.755-5.805-1.537.14-3.134 1.206-4.11 3.758-.177.477-.532.645-1.064.449-2.602-1.038-4.938-2.384-6.83-4.067-1.804-1.598-3.193-3.477-4.11-5.692-.089-.421.06-.758.532-1.038 1.272-.337 2.1-.785 2.602-1.29.444-.505.621-1.122.65-1.879.06-1.01-.265-2.047-.857-2.86C7.088.553 2.121 3.385 2.091 7.76c-.03 2.523 1.124 5.3 2.365 7.206 1.834 2.833 4.613 5.3 7.776 7.067 3.135 1.739 6.623 2.777 9.905 2.777.444 0 .799.364.799.785 0 .42-.355.757-.799.757-3.577 0-7.362-1.122-10.732-3-3.371-1.88-6.357-4.516-8.338-7.6C1.707 13.676.435 10.592.465 7.76.495 1.815 7.56-1.55 11.05 3.301c.768 1.094 1.212 2.44 1.153 3.786-.03 1.094-.325 2.02-1.064 2.833-.562.617-1.36 1.093-2.484 1.514.798 1.654 1.951 3.113 3.34 4.375 1.568 1.402 3.49 2.551 5.619 3.449 1.241-2.664 3.193-3.842 5.144-4.01 4.613-.393 8.131 4.346 5.234 8.245z"
              stroke-width=".5" />
    </symbol>

    <symbol id="insta" viewBox="0 0 29 29" xmlns="http://www.w3.org/2000/svg">
        <path d="M9.297 2.711a6.4 6.4 0 0 0-6.416 6.416v10.746a6.4 6.4 0 0 0 6.416 6.416h10.745a6.4 6.4 0 0 0 6.417-6.416V9.127a6.4 6.4 0 0 0-6.416-6.416H9.296zm14.997 3.994a1.82 1.82 0 0 1-1.83 1.83 1.82 1.82 0 0 1-1.829-1.83c0-1.005.825-1.804 1.83-1.804 1.005 0 1.83.8 1.83 1.804zm-9.611 2.912a4.894 4.894 0 0 0-4.896 4.896c0 2.68 2.19 4.87 4.896 4.87a4.883 4.883 0 0 0 0-9.766zm0 11.905c-3.891 0-7.035-3.144-7.035-7.01a7.027 7.027 0 0 1 7.035-7.034c3.865 0 7.009 3.144 7.009 7.035a7.016 7.016 0 0 1-7.01 7.009zm5.36 6.854H9.296c-4.69 0-8.503-3.814-8.503-8.503V9.127c0-4.69 3.814-8.503 8.503-8.503h10.745c4.69 0 8.504 3.814 8.504 8.503v10.746c0 4.69-3.814 8.503-8.503 8.503z" />
    </symbol>
    <symbol id="vk" viewBox="0 0 32 19" xmlns="http://www.w3.org/2000/svg">
        <path d="M30.498 1.692c.218-.708 0-1.229-1.002-1.229h-3.354c-.843 0-1.235.448-1.452.94 0 0-1.7 4.135-4.11 6.81-.77.78-1.133 1.027-1.554 1.027-.218 0-.523-.246-.523-.955V1.692c0-.853-.247-1.229-.958-1.229h-5.242c-.538 0-.857.39-.857.766 0 .796 1.205.984 1.321 3.24v4.9c0 1.085-.188 1.273-.61 1.273-1.132 0-3.891-4.135-5.532-8.878-.32-.925-.64-1.3-1.496-1.3h-3.34C.83.463.642.91.642 1.402c0 .882 1.132 5.263 5.271 11.046 2.774 3.948 6.665 6.088 10.209 6.088 2.12 0 2.381-.477 2.381-1.302v-2.978c0-.954.204-1.142.872-1.142.508 0 1.35.245 3.34 2.154 2.265 2.256 2.643 3.268 3.906 3.268h3.355c.943 0 1.423-.477 1.147-1.417-.29-.94-1.38-2.285-2.818-3.904-.784-.911-1.945-1.894-2.294-2.4-.508-.622-.363-.911 0-1.475 0 0 4.066-5.711 4.487-7.649z" />
    </symbol>
    <symbol id="G" viewBox="0 0 33 21" xmlns="http://www.w3.org/2000/svg">
        <path fill-rule="evenodd" clip-rule="evenodd" d="M28.7787 8.45793V4.98096H26.3007V8.45793H22.8281V10.9359H26.3007V14.4085H28.7787V10.9359H32.2513V8.45793H28.7787Z"/>
        <path fill-rule="evenodd" clip-rule="evenodd" d="M10.8965 8.19173V12.166H16.2145C16.0531 12.9993 15.7172 13.7671 15.1239 14.4128C12.9906 16.7424 9.01626 16.7162 6.739 14.3735C4.46173 12.0308 4.48791 8.2528 6.79571 5.94064C8.99009 3.7419 12.5238 3.64592 14.6614 5.7356L14.6571 5.73996L17.5582 2.83884C13.6711 -0.694846 7.68131 -0.638132 3.8946 3.09187C-0.0186356 6.95712 -0.0622614 13.2654 3.80298 17.1786C7.66386 21.0919 14.3561 21.1311 17.977 17.2441C20.1627 14.897 20.7909 11.5291 20.2674 8.19173H10.8965Z"/>
    </symbol>
    <symbol id="fb" viewBox="0 0 18 34" xmlns="http://www.w3.org/2000/svg">
        <path d="M11.4504 33.0058V18.1588H16.4319L17.1799 12.3727H11.4504V8.67983C11.4504 7.00466 11.9155 5.86379 14.3167 5.86379L17.381 5.86065V0.687439C16.8499 0.615153 15.0333 0.458008 12.915 0.458008C8.49918 0.458008 5.47572 3.15461 5.47572 8.10782V12.3727H0.478516V18.1588H5.47572V33.0058H11.4504Z" />
    </symbol>
    <symbol id="telega" viewBox="0 0 29 26" xmlns="http://www.w3.org/2000/svg">
        <path d="M28.4524 0.357424C27.9577 -0.0559772 27.1807 -0.115127 26.3774 0.202724H26.3761C25.5311 0.536825 2.45941 10.2895 1.52018 10.6879C1.34935 10.7464 -0.142593 11.295 0.0110866 12.517C0.148277 13.6188 1.34737 14.0751 1.4938 14.1277L7.35935 16.107C7.74849 17.3836 9.18306 22.0935 9.50031 23.0997C9.69818 23.7269 10.0207 24.5511 10.586 24.7208C11.082 24.9093 11.5753 24.737 11.8945 24.49L15.4806 21.2121L21.2697 25.6613L21.4075 25.7426C21.8006 25.9142 22.1772 26 22.5367 26C22.8144 26 23.0808 25.9487 23.3354 25.846C24.2028 25.4949 24.5497 24.6805 24.586 24.5882L28.9101 2.43808C29.1739 1.25508 28.8072 0.653175 28.4524 0.357424ZM12.5324 16.8987L10.5536 22.0987L8.57493 15.5987L23.745 4.54864L12.5324 16.8987Z" />
    </symbol>


    <symbol id="logo-top" viewBox="0 0 121 121" xmlns="http://www.w3.org/2000/svg">
        <path d="M3.60217 15.9581H8.76517V4.9893H11.6758V1.11766H0.714844V4.9893H3.60217V15.9581ZM62.1824 20.9852V105.579L82.4336 105.577V76.4719H101.216V57.2737H82.4336V40.1834H103.233V20.9852H62.1824ZM58.0162 105.579V20.9852H17.2617V40.1834H37.765V105.579H58.0162ZM9.49338 15.9581H14.421L14.9372 14.6237H19.6784L20.1946 15.9581H25.1234L19.1855 1.11766H15.4312L9.49338 15.9581ZM16.2516 11.3529L17.3084 8.74938L18.3641 11.3529H16.2516ZM25.8271 15.9581H30.9913V4.9893H33.9008V1.11766H22.9409V4.9893H25.8271V15.9581ZM36.0133 15.9581H41.1763V4.9893H44.0869V1.11766H33.1271V4.9893H36.0133V15.9581ZM43.9226 8.54943C43.9226 9.61758 44.138 10.6257 44.5676 11.575C44.9983 12.5242 45.5855 13.3514 46.3282 14.0554C47.0719 14.7605 47.9433 15.3172 48.9446 15.7244C49.947 16.1327 51.0105 16.3369 52.1372 16.3369C53.264 16.3369 54.3274 16.1327 55.3287 15.7244C56.33 15.3172 57.2025 14.7605 57.9463 14.0554C58.6889 13.3514 59.2751 12.5242 59.7058 11.575C60.1365 10.6257 60.3518 9.61758 60.3518 8.54943C60.3518 7.46655 60.1365 6.45418 59.7058 5.51232C59.2751 4.57046 58.6889 3.74751 57.9463 3.04243C57.2025 2.3384 56.33 1.7817 55.3287 1.37444C54.3274 0.966121 53.264 0.761963 52.1372 0.761963C51.0105 0.761963 49.947 0.966121 48.9446 1.37444C47.9433 1.7817 47.0719 2.3384 46.3282 3.04243C45.5855 3.74751 44.9983 4.57046 44.5676 5.51232C44.138 6.45418 43.9226 7.46655 43.9226 8.54943ZM48.8514 8.54943C48.8514 8.11902 48.9369 7.71491 49.1089 7.33606C49.2821 6.95826 49.5163 6.62782 49.8138 6.34684C50.1113 6.06481 50.4588 5.84171 50.8584 5.67859C51.2569 5.51548 51.6832 5.43444 52.1372 5.43444C52.5913 5.43444 53.0175 5.51548 53.416 5.67859C53.8146 5.84171 54.1631 6.06481 54.4606 6.34684C54.7581 6.62782 54.9924 6.95826 55.1644 7.33606C55.3365 7.71491 55.4231 8.11902 55.4231 8.54943C55.4231 8.97985 55.3365 9.38395 55.1644 9.76175C54.9924 10.1395 54.7581 10.47 54.4606 10.752C54.1631 11.0341 53.8146 11.2561 53.416 11.4192C53.0175 11.5823 52.5913 11.6644 52.1372 11.6644C51.6832 11.6644 51.2569 11.5823 50.8584 11.4192C50.4588 11.2561 50.1113 11.0341 49.8138 10.752C49.5163 10.47 49.2821 10.1395 49.1089 9.76175C48.9369 9.38395 48.8514 8.97985 48.8514 8.54943ZM61.2899 8.54943C61.2899 9.61758 61.5052 10.6257 61.9359 11.575C62.3655 12.5242 62.9528 13.3514 63.6954 14.0554C64.4392 14.7605 65.3117 15.3172 66.313 15.7244C67.3143 16.1327 68.3778 16.3369 69.5045 16.3369C70.6312 16.3369 71.6947 16.1327 72.696 15.7244C73.6973 15.3172 74.5698 14.7605 75.3136 14.0554C76.0562 13.3514 76.6434 12.5242 77.073 11.575C77.5037 10.6257 77.7191 9.61758 77.7191 8.54943C77.7191 7.46655 77.5037 6.45418 77.073 5.51232C76.6434 4.57046 76.0562 3.74751 75.3136 3.04243C74.5698 2.3384 73.6973 1.7817 72.696 1.37444C71.6947 0.966121 70.6312 0.761963 69.5045 0.761963C68.3778 0.761963 67.3143 0.966121 66.313 1.37444C65.3117 1.7817 64.4392 2.3384 63.6954 3.04243C62.9528 3.74751 62.3655 4.57046 61.9359 5.51232C61.5052 6.45418 61.2899 7.46655 61.2899 8.54943ZM66.2186 8.54943C66.2186 8.11902 66.3052 7.71491 66.4773 7.33606C66.6494 6.95826 66.8836 6.62782 67.1811 6.34684C67.4786 6.06481 67.826 5.84171 68.2257 5.67859C68.6242 5.51548 69.0505 5.43444 69.5045 5.43444C69.9585 5.43444 70.3848 5.51548 70.7833 5.67859C71.1829 5.84171 71.5304 6.06481 71.8279 6.34684C72.1254 6.62782 72.3596 6.95826 72.5317 7.33606C72.7037 7.71491 72.7903 8.11902 72.7903 8.54943C72.7903 8.97985 72.7037 9.38395 72.5317 9.76175C72.3596 10.1395 72.1254 10.47 71.8279 10.752C71.5304 11.0341 71.1829 11.2561 70.7833 11.4192C70.3848 11.5823 69.9585 11.6644 69.5045 11.6644C69.0505 11.6644 68.6242 11.5823 68.2257 11.4192C67.826 11.2561 67.4786 11.0341 67.1811 10.752C66.8836 10.47 66.6494 10.1395 66.4773 9.76175C66.3052 9.38395 66.2186 8.97985 66.2186 8.54943ZM79.0568 15.9581H84.0555V10.3511H88.2094V6.65834H84.0555V5.01139H88.2804V1.11766H79.0568V15.9581ZM89.4538 15.9581H98.8418V12.0643H94.4525V10.3511H98.6064V6.65834H94.4525V5.01139H98.6775V1.11766H89.4538V15.9581ZM100.32 15.9581H109.707V12.0643H105.319V10.3511H109.473V6.65834H105.319V5.01139H109.544V1.11766H100.32V15.9581ZM111.186 15.9581H120.715V12.1096H116.35V1.11766H111.186V15.9581ZM6.27303 19.9623V115.046H115.169V19.9623H120.715V119.72V120.305H120.099H1.34315H0.727055V119.72L0.714844 19.9623H6.27303Z" fill="#363636"/>
        <path d="M6.27148 115.045H115.167V112.187H6.27148V115.045Z" fill="#F6D062"/>
    </symbol>
    <symbol id="logo" viewBox="0 0 121 121" xmlns="http://www.w3.org/2000/svg">
        <path d="M3.60217 15.9581H8.76517V4.9893H11.6758V1.11766H0.714844V4.9893H3.60217V15.9581ZM62.1824 20.9852V105.579L82.4336 105.577V76.4719H101.216V57.2737H82.4336V40.1834H103.233V20.9852H62.1824ZM58.0162 105.579V20.9852H17.2617V40.1834H37.765V105.579H58.0162ZM9.49338 15.9581H14.421L14.9372 14.6237H19.6784L20.1946 15.9581H25.1234L19.1855 1.11766H15.4312L9.49338 15.9581ZM16.2516 11.3529L17.3084 8.74938L18.3641 11.3529H16.2516ZM25.8271 15.9581H30.9913V4.9893H33.9008V1.11766H22.9409V4.9893H25.8271V15.9581ZM36.0133 15.9581H41.1763V4.9893H44.0869V1.11766H33.1271V4.9893H36.0133V15.9581ZM43.9226 8.54943C43.9226 9.61758 44.138 10.6257 44.5676 11.575C44.9983 12.5242 45.5855 13.3514 46.3282 14.0554C47.0719 14.7605 47.9433 15.3172 48.9446 15.7244C49.947 16.1327 51.0105 16.3369 52.1372 16.3369C53.264 16.3369 54.3274 16.1327 55.3287 15.7244C56.33 15.3172 57.2025 14.7605 57.9463 14.0554C58.6889 13.3514 59.2751 12.5242 59.7058 11.575C60.1365 10.6257 60.3518 9.61758 60.3518 8.54943C60.3518 7.46655 60.1365 6.45418 59.7058 5.51232C59.2751 4.57046 58.6889 3.74751 57.9463 3.04243C57.2025 2.3384 56.33 1.7817 55.3287 1.37444C54.3274 0.966121 53.264 0.761963 52.1372 0.761963C51.0105 0.761963 49.947 0.966121 48.9446 1.37444C47.9433 1.7817 47.0719 2.3384 46.3282 3.04243C45.5855 3.74751 44.9983 4.57046 44.5676 5.51232C44.138 6.45418 43.9226 7.46655 43.9226 8.54943ZM48.8514 8.54943C48.8514 8.11902 48.9369 7.71491 49.1089 7.33606C49.2821 6.95826 49.5163 6.62782 49.8138 6.34684C50.1113 6.06481 50.4588 5.84171 50.8584 5.67859C51.2569 5.51548 51.6832 5.43444 52.1372 5.43444C52.5913 5.43444 53.0175 5.51548 53.416 5.67859C53.8146 5.84171 54.1631 6.06481 54.4606 6.34684C54.7581 6.62782 54.9924 6.95826 55.1644 7.33606C55.3365 7.71491 55.4231 8.11902 55.4231 8.54943C55.4231 8.97985 55.3365 9.38395 55.1644 9.76175C54.9924 10.1395 54.7581 10.47 54.4606 10.752C54.1631 11.0341 53.8146 11.2561 53.416 11.4192C53.0175 11.5823 52.5913 11.6644 52.1372 11.6644C51.6832 11.6644 51.2569 11.5823 50.8584 11.4192C50.4588 11.2561 50.1113 11.0341 49.8138 10.752C49.5163 10.47 49.2821 10.1395 49.1089 9.76175C48.9369 9.38395 48.8514 8.97985 48.8514 8.54943ZM61.2899 8.54943C61.2899 9.61758 61.5052 10.6257 61.9359 11.575C62.3655 12.5242 62.9528 13.3514 63.6954 14.0554C64.4392 14.7605 65.3117 15.3172 66.313 15.7244C67.3143 16.1327 68.3778 16.3369 69.5045 16.3369C70.6312 16.3369 71.6947 16.1327 72.696 15.7244C73.6973 15.3172 74.5698 14.7605 75.3136 14.0554C76.0562 13.3514 76.6434 12.5242 77.073 11.575C77.5037 10.6257 77.7191 9.61758 77.7191 8.54943C77.7191 7.46655 77.5037 6.45418 77.073 5.51232C76.6434 4.57046 76.0562 3.74751 75.3136 3.04243C74.5698 2.3384 73.6973 1.7817 72.696 1.37444C71.6947 0.966121 70.6312 0.761963 69.5045 0.761963C68.3778 0.761963 67.3143 0.966121 66.313 1.37444C65.3117 1.7817 64.4392 2.3384 63.6954 3.04243C62.9528 3.74751 62.3655 4.57046 61.9359 5.51232C61.5052 6.45418 61.2899 7.46655 61.2899 8.54943ZM66.2186 8.54943C66.2186 8.11902 66.3052 7.71491 66.4773 7.33606C66.6494 6.95826 66.8836 6.62782 67.1811 6.34684C67.4786 6.06481 67.826 5.84171 68.2257 5.67859C68.6242 5.51548 69.0505 5.43444 69.5045 5.43444C69.9585 5.43444 70.3848 5.51548 70.7833 5.67859C71.1829 5.84171 71.5304 6.06481 71.8279 6.34684C72.1254 6.62782 72.3596 6.95826 72.5317 7.33606C72.7037 7.71491 72.7903 8.11902 72.7903 8.54943C72.7903 8.97985 72.7037 9.38395 72.5317 9.76175C72.3596 10.1395 72.1254 10.47 71.8279 10.752C71.5304 11.0341 71.1829 11.2561 70.7833 11.4192C70.3848 11.5823 69.9585 11.6644 69.5045 11.6644C69.0505 11.6644 68.6242 11.5823 68.2257 11.4192C67.826 11.2561 67.4786 11.0341 67.1811 10.752C66.8836 10.47 66.6494 10.1395 66.4773 9.76175C66.3052 9.38395 66.2186 8.97985 66.2186 8.54943ZM79.0568 15.9581H84.0555V10.3511H88.2094V6.65834H84.0555V5.01139H88.2804V1.11766H79.0568V15.9581ZM89.4538 15.9581H98.8418V12.0643H94.4525V10.3511H98.6064V6.65834H94.4525V5.01139H98.6775V1.11766H89.4538V15.9581ZM100.32 15.9581H109.707V12.0643H105.319V10.3511H109.473V6.65834H105.319V5.01139H109.544V1.11766H100.32V15.9581ZM111.186 15.9581H120.715V12.1096H116.35V1.11766H111.186V15.9581ZM6.27303 19.9623V115.046H115.169V19.9623H120.715V119.72V120.305H120.099H1.34315H0.727055V119.72L0.714844 19.9623H6.27303Z" />
        <path d="M6.27148 115.045H115.167V112.187H6.27148V115.045Z" />
    </symbol>
    <symbol id="cart" viewBox="0 0 41 32" xmlns="http://www.w3.org/2000/svg">
        <path d="M1.48496 0.535889C0.912506 0.535889 0.447388 0.97565 0.447388 1.5169C0.447388 2.05814 0.912506 2.4979 1.48496 2.4979H5.81415C8.78376 9.53409 11.7176 16.5364 14.6514 23.5726C14.1147 23.7756 13.6496 24.0462 13.2561 24.4183C12.5047 25.1625 12.0396 26.1435 12.0396 27.2599C12.0396 28.3762 12.5047 29.391 13.2561 30.1014C14.0432 30.8118 15.0808 31.2854 16.2615 31.2854C17.4421 31.2854 18.4797 30.8118 19.2668 30.1014C20.0182 29.391 20.5191 28.3762 20.5191 27.2599C20.5191 26.448 20.2329 25.7038 19.8035 25.0611H30.0719C29.6426 25.7038 29.3921 26.448 29.3921 27.2599C29.3921 28.3762 29.8573 29.3572 30.6444 30.1014C31.3957 30.8118 32.4691 31.2854 33.614 31.2854C34.7947 31.2854 35.868 30.8118 36.6194 30.1014C37.4065 29.3572 37.8716 28.3762 37.8716 27.2599C37.8716 26.1435 37.4065 25.1625 36.6194 24.4183C35.9038 23.7418 34.2222 23.099 33.1846 23.099H16.6908L15.4028 19.9869H35.2598C35.7249 19.9869 36.1185 19.7163 36.2616 19.2765L38.2294 13.1198C38.2652 13.086 38.301 13.0184 38.301 12.9507L40.2688 6.89552C40.3046 6.76021 40.3403 6.62489 40.3403 6.48958C40.3403 5.94834 39.8752 5.50858 39.3028 5.50858H9.32044L7.53152 1.24627C7.42418 0.840339 6.99484 0.535889 6.52972 0.535889H1.48496ZM14.7588 25.8391C15.1523 25.467 15.689 25.2302 16.2615 25.2302C16.8697 25.2302 17.4064 25.467 17.7999 25.8391C18.1577 26.2112 18.4082 26.7186 18.4082 27.2599C18.4082 27.8349 18.1577 28.3424 17.7999 28.7145C17.4064 29.0527 16.8697 29.2895 16.2615 29.2895C15.689 29.2895 15.1523 29.0527 14.7588 28.7145C14.3652 28.3424 14.1147 27.8349 14.1147 27.2599C14.1147 26.7186 14.3652 26.2112 14.7588 25.8391ZM32.1113 25.8391C32.5049 25.467 33.0415 25.2302 33.614 25.2302C34.2222 25.2302 34.7589 25.467 35.1525 25.8391C35.546 26.2112 35.7607 26.7186 35.7607 27.2599C35.7607 27.8349 35.546 28.3424 35.1525 28.7145C34.7589 29.0527 34.2222 29.2895 33.614 29.2895C33.0415 29.2895 32.5049 29.0527 32.1113 28.7145C31.7177 28.3424 31.4673 27.8349 31.4673 27.2599C31.4673 26.7186 31.7177 26.2112 32.1113 25.8391ZM36.512 11.7667H29.7499L30.0719 7.50442H37.8716L36.512 11.7667ZM27.639 11.7667H21.5924L21.1989 7.50442H27.9968L27.639 11.7667ZM19.4815 11.7667H11.9323L10.1433 7.50442H19.1237L19.4815 11.7667ZM12.7909 13.7287H19.6604L20.0182 18.0249H14.5799L12.7909 13.7287ZM21.7355 13.7287H27.4959L27.1739 18.0249H22.1291L21.7355 13.7287ZM29.6068 13.7287H35.868L34.5084 18.0249H29.2848L29.6068 13.7287Z"/>
    </symbol>
    <symbol id="mail" viewBox="0 0 31 23" xmlns="http://www.w3.org/2000/svg">
        <path d="M3.14847 1.22314C10.1472 1.22314 17.1459 1.22314 24.1446 1.22314C24.9142 1.22314 25.2028 1.63375 25.2028 2.02154C25.2028 2.38652 24.8901 2.77431 24.1686 2.77431H3.14847C2.90796 2.77431 2.71556 2.86555 2.57125 3.00242C2.42695 3.13929 2.33075 3.32178 2.33075 3.54989V19.8827C2.33075 20.1108 2.42695 20.2933 2.57125 20.4302C2.71556 20.5671 2.90796 20.6583 3.14847 20.6583H27.8724C28.0889 20.6583 28.3053 20.5671 28.4496 20.4302C28.5939 20.2933 28.6901 20.1108 28.6901 19.8827C28.6901 15.503 28.6901 11.1232 28.6901 6.74346C28.6901 6.03631 29.099 5.73977 29.5078 5.73977C29.9167 5.73977 30.3256 6.0135 30.3256 6.69784V19.8827C30.3256 20.5214 30.037 21.1145 29.604 21.5251C29.1711 21.9585 28.5458 22.2095 27.8724 22.2095H3.14847C2.47505 22.2095 1.84974 21.9585 1.41683 21.5251C0.959868 21.1145 0.695312 20.5214 0.695312 19.8827V3.54989C0.695312 2.91118 0.959868 2.31808 1.41683 1.90748C1.84974 1.47407 2.47505 1.22314 3.14847 1.22314ZM4.15859 5.64852C3.82188 5.37479 3.77378 4.89575 4.06239 4.57639C4.35099 4.23423 4.8801 4.21142 5.21681 4.48515L15.4623 12.7428L25.3471 4.3939C25.6838 4.09736 26.2129 4.14298 26.5015 4.43953C26.7901 4.75888 26.7661 5.26073 26.4294 5.53447L19.1902 11.6707L26.0686 17.9666C26.4053 18.2631 26.4053 18.7422 26.0927 19.0615C25.78 19.3581 25.275 19.3809 24.9623 19.0843L17.9636 12.6972L15.4864 14.7958L12.913 12.72L5.48137 19.5406C5.14466 19.8371 4.6396 19.8143 4.32694 19.5177C4.01429 19.1984 4.01429 18.7194 4.35099 18.4228L11.6624 11.7163L4.15859 5.64852Z" stroke-width="0.5"/>
    </symbol>
    <symbol id="time" viewBox="0 0 29 28" xmlns="http://www.w3.org/2000/svg">
        <path d="M13.9188 6.34627C13.9188 5.94385 14.2724 5.57496 14.732 5.57496C15.1916 5.57496 15.5452 5.94385 15.5452 6.34627V13.7575L20.0002 17.8823C20.3184 18.1841 20.3537 18.6872 20.0355 18.989C19.7173 19.2908 19.187 19.2908 18.8687 18.989L13.9188 14.3947V6.34627ZM14.6966 0.812988C18.5505 0.812988 22.0509 2.28853 24.5612 4.70305C27.1069 7.08404 28.6626 10.404 28.6626 14.0929C28.6626 16.172 28.1676 18.1506 27.2483 19.8944C26.7887 20.8669 26.223 21.0011 25.834 20.7999C25.5158 20.6322 25.1976 20.3304 25.728 19.3579C26.5765 17.7817 27.0362 15.9708 27.0362 14.0929C27.0362 10.84 25.6573 7.92241 23.4298 5.80971C21.2023 3.66346 18.0909 2.3556 14.6966 2.3556C11.267 2.3556 8.19097 3.66346 5.92813 5.77617C3.70065 7.92241 2.32173 10.84 2.32173 14.0929C2.32173 17.3122 3.70065 20.2633 5.92813 22.376C8.19097 24.4887 11.267 25.7966 14.6966 25.7966C16.5705 25.7966 18.3737 25.3942 20.0002 24.6899C20.6719 24.3546 21.2377 24.5222 21.4144 24.8911C21.5912 25.2265 21.5559 25.696 20.6719 26.0649C18.8687 26.9032 16.818 27.3392 14.6966 27.3392C10.8074 27.3392 7.30705 25.8636 4.79671 23.4827C2.25101 21.0681 0.695312 17.7482 0.695312 14.0929C0.695312 10.4375 2.25101 7.11757 4.79671 4.70305C7.3424 2.28853 10.8427 0.812988 14.6966 0.812988Z" stroke-width="0.5"/>
    </symbol>
    <symbol id="arw_small" viewBox="0 0 12 21" xmlns="http://www.w3.org/2000/svg">
        <path d="M0.849609 0.762817V20.7628L11.8496 11.7628L0.849609 0.762817Z" />
    </symbol>
    <symbol id="arw" viewBox="0 0 16 10" fill="none" xmlns="http://www.w3.org/2000/svg">
        <path d="M1 1L8 8.5L15 1" stroke-width="2" stroke-linecap="round"/>
    </symbol>

    <symbol id="more-dots" viewBox="0 0 23 23" xmlns="http://www.w3.org/2000/svg">
        <path d="M4.50195 2.91699C4.50195 4.02156 3.60652 4.91699 2.50195 4.91699C1.39738 4.91699 0.501953 4.02156 0.501953 2.91699C0.501953 1.81242 1.39738 0.916992 2.50195 0.916992C3.60652 0.916992 4.50195 1.81242 4.50195 2.91699Z" />
        <path d="M4.50195 11.917C4.50195 13.0216 3.60652 13.917 2.50195 13.917C1.39738 13.917 0.501953 13.0216 0.501953 11.917C0.501953 10.8124 1.39738 9.91699 2.50195 9.91699C3.60652 9.91699 4.50195 10.8124 4.50195 11.917Z" />
        <path d="M4.50195 20.917C4.50195 22.0216 3.60652 22.917 2.50195 22.917C1.39738 22.917 0.501953 22.0216 0.501953 20.917C0.501953 19.8124 1.39738 18.917 2.50195 18.917C3.60652 18.917 4.50195 19.8124 4.50195 20.917Z"/>
        <path d="M13.502 2.91699C13.502 4.02156 12.6065 4.91699 11.502 4.91699C10.3974 4.91699 9.50195 4.02156 9.50195 2.91699C9.50195 1.81242 10.3974 0.916992 11.502 0.916992C12.6065 0.916992 13.502 1.81242 13.502 2.91699Z"/>
        <path d="M13.502 11.917C13.502 13.0216 12.6065 13.917 11.502 13.917C10.3974 13.917 9.50195 13.0216 9.50195 11.917C9.50195 10.8124 10.3974 9.91699 11.502 9.91699C12.6065 9.91699 13.502 10.8124 13.502 11.917Z"/>
        <path d="M13.502 20.917C13.502 22.0216 12.6065 22.917 11.502 22.917C10.3974 22.917 9.50195 22.0216 9.50195 20.917C9.50195 19.8124 10.3974 18.917 11.502 18.917C12.6065 18.917 13.502 19.8124 13.502 20.917Z"/>
        <path d="M22.502 2.91699C22.502 4.02156 21.6065 4.91699 20.502 4.91699C19.3974 4.91699 18.502 4.02156 18.502 2.91699C18.502 1.81242 19.3974 0.916992 20.502 0.916992C21.6065 0.916992 22.502 1.81242 22.502 2.91699Z"/>
        <path d="M22.502 11.917C22.502 13.0216 21.6065 13.917 20.502 13.917C19.3974 13.917 18.502 13.0216 18.502 11.917C18.502 10.8124 19.3974 9.91699 20.502 9.91699C21.6065 9.91699 22.502 10.8124 22.502 11.917Z"/>
        <path d="M22.502 20.917C22.502 22.0216 21.6065 22.917 20.502 22.917C19.3974 22.917 18.502 22.0216 18.502 20.917C18.502 19.8124 19.3974 18.917 20.502 18.917C21.6065 18.917 22.502 19.8124 22.502 20.917Z"/>
    </symbol>


    <symbol id="soc-copy" viewBox="0 0 32 31" fill="none" xmlns="http://www.w3.org/2000/svg">
        <!-- stroke="#363636" -->
        <rect x="8.24121" y="8.55872" width="22.1841" height="20.6913" stroke-width="2"/>
        <path d="M8.09784 9.42841V24.2526H1.29004V1.7699H23.7727V8.42841H9.09784H8.09784V9.42841Z" stroke-width="2"/>
    </symbol>
    <symbol id="soc-fb" viewBox="0 0 16 29" xmlns="http://www.w3.org/2000/svg">
        <path d="M10.0319 28.3888V15.7266H14.2809L14.9176 10.7928H10.0319V7.64288C10.0319 6.21427 10.4287 5.24001 12.4764 5.24001L15.0904 5.23841V0.824616C14.6377 0.765424 13.0875 0.631042 11.2829 0.631042C7.51546 0.631042 4.93502 2.92993 4.93502 7.15334V10.7928H0.674805V15.7266H4.93502V28.3888H10.0319Z"/>
    </symbol>
    <symbol id="soc-inst" viewBox="0 0 28 27" xmlns="http://www.w3.org/2000/svg">
        <path d="M14.4034 0.0274048C10.7412 0.0274048 10.2827 0.0421347 8.84474 0.108419C7.41041 0.172863 6.42903 0.401177 5.57285 0.734442C4.68537 1.07875 3.93415 1.54091 3.18476 2.29029C2.43538 3.03968 1.97322 3.7909 1.62891 4.67838C1.29565 5.5364 1.06733 6.51594 1.00289 7.95027C0.936605 9.38828 0.921875 9.84859 0.921875 13.509C0.921875 17.1712 0.936605 17.6297 1.00289 19.0677C1.06733 20.5039 1.29565 21.4834 1.62891 22.3414C1.97322 23.227 2.43538 23.9801 3.18476 24.7295C3.93415 25.4789 4.68537 25.9392 5.57285 26.2835C6.42903 26.6168 7.41041 26.8451 8.84474 26.9114C10.2827 26.9758 10.7412 26.9924 14.4034 26.9924C18.0657 26.9924 18.5241 26.9758 19.9622 26.9114C21.3983 26.8451 22.3779 26.6168 23.234 26.2835C24.1215 25.9392 24.8727 25.4789 25.6221 24.7295C26.3734 23.9801 26.8337 23.227 27.178 22.3414C27.5112 21.4834 27.7396 20.5039 27.804 19.0677C27.8703 17.6297 27.885 17.1712 27.885 13.509C27.885 9.84859 27.8703 9.38828 27.804 7.95027C27.7396 6.51594 27.5112 5.5364 27.178 4.67838C26.8337 3.7909 26.3734 3.03968 25.6221 2.29029C24.8727 1.54091 24.1215 1.07875 23.234 0.734442C22.3779 0.401177 21.3983 0.172863 19.9622 0.108419C18.5241 0.0421347 18.0657 0.0274048 14.4034 0.0274048ZM14.4034 2.456C18.0031 2.456 18.4302 2.47073 19.8517 2.53518C21.1663 2.59594 21.8807 2.81504 22.3558 2.99917C22.9836 3.24405 23.4329 3.53681 23.9061 4.00817C24.3774 4.47953 24.6684 4.92879 24.9132 5.55849C25.0974 6.03354 25.3183 6.74794 25.3772 8.06074C25.4435 9.48218 25.4564 9.90935 25.4564 13.509C25.4564 17.1086 25.4435 17.5358 25.3772 18.9572C25.3183 20.2719 25.0974 20.9863 24.9132 21.4613C24.6684 22.091 24.3774 22.5403 23.9061 23.0116C23.4329 23.483 22.9836 23.7757 22.3558 24.0188C21.8807 24.2047 21.1663 24.4239 19.8517 24.4846C18.4302 24.5491 18.0031 24.562 14.4034 24.562C10.8038 24.562 10.3766 24.5491 8.95521 24.4846C7.64056 24.4239 6.928 24.2047 6.45296 24.0188C5.82326 23.7757 5.374 23.483 4.90264 23.0116C4.42944 22.5403 4.13852 22.091 3.89364 21.4613C3.70951 20.9863 3.48857 20.2719 3.42965 18.9572C3.36336 17.5358 3.35047 17.1086 3.35047 13.509C3.35047 9.90935 3.36336 9.48218 3.42965 8.06074C3.48857 6.74794 3.70951 6.03354 3.89364 5.55849C4.13852 4.92879 4.42944 4.47953 4.90264 4.00817C5.374 3.53681 5.82326 3.24405 6.45296 2.99917C6.928 2.81504 7.64056 2.59594 8.95521 2.53518C10.3766 2.47073 10.8038 2.456 14.4034 2.456Z"/>
        <path d="M14.4034 18.0035C11.9214 18.0035 9.90897 15.991 9.90897 13.509C9.90897 11.027 11.9214 9.01453 14.4034 9.01453C16.8854 9.01453 18.8979 11.027 18.8979 13.509C18.8979 15.991 16.8854 18.0035 14.4034 18.0035ZM14.4034 6.58593C10.5792 6.58593 7.48037 9.68658 7.48037 13.509C7.48037 17.3333 10.5792 20.4321 14.4034 20.4321C18.2277 20.4321 21.3265 17.3333 21.3265 13.509C21.3265 9.68658 18.2277 6.58593 14.4034 6.58593Z"/>
        <path d="M23.2175 6.31154C23.2175 7.20639 22.4939 7.93 21.6009 7.93C20.7079 7.93 19.9824 7.20639 19.9824 6.31154C19.9824 5.41854 20.7079 4.69493 21.6009 4.69493C22.4939 4.69493 23.2175 5.41854 23.2175 6.31154Z"/>
    </symbol>
    <symbol id="soc-ml" viewBox="0 0 32 27" xmlns="http://www.w3.org/2000/svg">
        <!-- fill="#363636" stroke="#363636" -->
        <path fill-rule="evenodd" clip-rule="evenodd" d="M0.821617 0.91945C0.821617 0.936176 0.800501 0.949862 0.774677 0.949862C0.713882 0.949862 0.57856 1.08532 0.57856 1.14617C0.57856 1.17202 0.564888 1.19316 0.548178 1.19316C0.531467 1.19316 0.517796 1.22053 0.517796 1.25398C0.517796 1.28743 0.504124 1.3148 0.487413 1.3148C0.467209 1.3148 0.457031 4.64998 0.457031 11.2595C0.457031 17.869 0.467209 21.2041 0.487413 21.2041C0.504124 21.2041 0.517796 21.225 0.517796 21.2505C0.517796 21.3109 0.77571 21.5691 0.836018 21.5691C0.861509 21.5691 0.882381 21.5828 0.882381 21.5995C0.882381 21.6196 2.81672 21.6299 6.62461 21.6299C10.4325 21.6299 12.3668 21.6196 12.3668 21.5995C12.3668 21.5828 12.4015 21.5691 12.4438 21.5691C12.5294 21.5691 12.7314 21.3882 12.7314 21.3116C12.7314 21.2859 12.7451 21.265 12.7618 21.265C12.7785 21.265 12.7922 21.2376 12.7922 21.2041C12.7922 21.1707 12.8059 21.1433 12.8226 21.1433C12.8393 21.1433 12.8529 21.0749 12.8529 20.9912C12.8529 20.9076 12.8393 20.8392 12.8226 20.8392C12.8059 20.8392 12.7922 20.8046 12.7922 20.7624C12.7922 20.6765 12.5523 20.4134 12.474 20.4134C12.4485 20.4134 12.4276 20.3997 12.4276 20.383C12.4276 20.3628 10.6394 20.3526 7.12375 20.3526C2.56759 20.3526 1.81378 20.3465 1.7765 20.3091C1.73907 20.2717 1.73308 19.0631 1.73308 11.5505C1.73308 6.75721 1.74375 2.83539 1.75675 2.83539C1.76978 2.83539 1.80013 2.86276 1.82423 2.89622C1.84832 2.92967 1.88657 2.95704 1.90927 2.95704C1.93196 2.95704 2.00306 3.01178 2.06728 3.07869C2.13151 3.14559 2.20015 3.20034 2.2198 3.20034C2.23949 3.20034 2.29391 3.24139 2.34072 3.29157C2.38754 3.34175 2.44196 3.38281 2.46165 3.38281C2.4813 3.38281 2.54994 3.43755 2.61416 3.50445C2.67839 3.57136 2.74702 3.6261 2.76668 3.6261C2.78637 3.6261 2.84078 3.66716 2.8876 3.71734C2.93442 3.76752 2.98911 3.80857 3.00913 3.80857C3.02915 3.80857 3.08384 3.84963 3.13066 3.89981C3.17748 3.94999 3.23189 3.99104 3.25158 3.99104C3.27124 3.99104 3.33987 4.04578 3.4041 4.11269C3.46833 4.1796 3.53696 4.23434 3.55662 4.23434C3.57631 4.23434 3.63072 4.27539 3.67754 4.32557C3.72436 4.37575 3.77905 4.41681 3.79907 4.41681C3.81909 4.41681 3.87378 4.45786 3.9206 4.50804C3.96741 4.55822 4.02183 4.59928 4.04152 4.59928C4.06117 4.59928 4.12981 4.65402 4.19403 4.72093C4.25826 4.78783 4.3269 4.84257 4.34655 4.84257C4.36624 4.84257 4.42066 4.88363 4.46747 4.93381C4.51429 4.98399 4.56898 5.02504 4.589 5.02504C4.60902 5.02504 4.66371 5.0661 4.71053 5.11628C4.75735 5.16646 4.81176 5.20752 4.83145 5.20752C4.85111 5.20752 4.91974 5.26226 4.98397 5.32916C5.0482 5.39607 5.11683 5.45081 5.13649 5.45081C5.15618 5.45081 5.21059 5.49187 5.25741 5.54205C5.30423 5.59223 5.35892 5.63328 5.37894 5.63328C5.39896 5.63328 5.45365 5.67434 5.50047 5.72452C5.54729 5.7747 5.6017 5.81575 5.62139 5.81575C5.64105 5.81575 5.70968 5.87049 5.77391 5.9374C5.83813 6.00431 5.90677 6.05905 5.92642 6.05905C5.94611 6.05905 6.00053 6.1001 6.04735 6.15028C6.09416 6.20046 6.14885 6.24152 6.16887 6.24152C6.1889 6.24152 6.24358 6.28257 6.2904 6.33275C6.33722 6.38293 6.39164 6.42399 6.41132 6.42399C6.43098 6.42399 6.49961 6.47873 6.56384 6.54564C6.62807 6.61254 6.6967 6.66728 6.71636 6.66728C6.73605 6.66728 6.79046 6.70834 6.83728 6.75852C6.8841 6.8087 6.93879 6.84975 6.95881 6.84975C6.97883 6.84975 7.03352 6.89081 7.08034 6.94099C7.12716 6.99117 7.18157 7.03222 7.20126 7.03222C7.22092 7.03222 7.28955 7.08697 7.35378 7.15387C7.41801 7.22078 7.48664 7.27552 7.5063 7.27552C7.52598 7.27552 7.5804 7.31658 7.62722 7.36675C7.67404 7.41693 7.72872 7.45799 7.74875 7.45799C7.76877 7.45799 7.82346 7.49905 7.87027 7.54923C7.91709 7.59941 7.97151 7.64046 7.9912 7.64046C8.01085 7.64046 8.07949 7.6952 8.14371 7.76211C8.20794 7.82901 8.27657 7.88376 8.29623 7.88376C8.31592 7.88376 8.37033 7.92481 8.41715 7.97499C8.46397 8.02517 8.51866 8.06623 8.53868 8.06623C8.5587 8.06623 8.61339 8.10728 8.66021 8.15746C8.70703 8.20764 8.76144 8.2487 8.78113 8.2487C8.80079 8.2487 8.86942 8.30344 8.93365 8.37034C8.99788 8.43725 9.06651 8.49199 9.08617 8.49199C9.10585 8.49199 9.16027 8.53305 9.20709 8.58323C9.25391 8.63341 9.3086 8.67446 9.32862 8.67446C9.34864 8.67446 9.40333 8.71552 9.45015 8.7657C9.49696 8.81588 9.55138 8.85693 9.57107 8.85693C9.59072 8.85693 9.65936 8.91167 9.72359 8.97858C9.78781 9.04549 9.85645 9.10023 9.8761 9.10023C9.89579 9.10023 9.95021 9.14128 9.99702 9.19146C10.0438 9.24164 10.0985 9.2827 10.1186 9.2827C10.1386 9.2827 10.1933 9.32376 10.2401 9.37393C10.2869 9.42411 10.3413 9.46517 10.361 9.46517C10.3807 9.46517 10.4493 9.51991 10.5135 9.58682C10.5777 9.65372 10.6464 9.70846 10.666 9.70846C10.6857 9.70846 10.7401 9.74952 10.787 9.7997C10.8338 9.84988 10.8885 9.89093 10.9085 9.89093C10.9285 9.89093 10.9832 9.93199 11.03 9.98217C11.0768 10.0324 11.1313 10.0734 11.1509 10.0734C11.1706 10.0734 11.2392 10.1281 11.3035 10.1951C11.3677 10.262 11.4363 10.3167 11.456 10.3167C11.4757 10.3167 11.5301 10.3578 11.5769 10.4079C11.6237 10.4581 11.6784 10.4992 11.6984 10.4992C11.7184 10.4992 11.7731 10.5402 11.82 10.5904C11.8668 10.6406 11.9212 10.6816 11.9409 10.6816C11.9605 10.6816 12.0292 10.7364 12.0934 10.8033C12.1576 10.8702 12.2263 10.9249 12.2459 10.9249C12.2656 10.9249 12.32 10.966 12.3668 11.0162C12.4137 11.0664 12.4683 11.1074 12.4884 11.1074C12.5084 11.1074 12.5631 11.1485 12.6099 11.1986C12.6567 11.2488 12.7111 11.2899 12.7308 11.2899C12.7505 11.2899 12.8191 11.3446 12.8833 11.4115C12.9476 11.4784 13.0162 11.5332 13.0358 11.5332C13.0555 11.5332 13.1099 11.5742 13.1568 11.6244C13.2036 11.6746 13.258 11.7156 13.2777 11.7156C13.2973 11.7156 13.366 11.7704 13.4302 11.8373C13.4944 11.9042 13.5631 11.9589 13.5827 11.9589C13.6024 11.9589 13.6568 12 13.7036 12.0502C13.7505 12.1004 13.8052 12.1414 13.8252 12.1414C13.8452 12.1414 13.8999 12.1825 13.9467 12.2326C13.9935 12.2828 14.0482 12.3239 14.0682 12.3239C14.0883 12.3239 14.1429 12.3649 14.1898 12.4151C14.2366 12.4653 14.291 12.5064 14.3107 12.5064C14.3303 12.5064 14.399 12.5611 14.4632 12.628C14.5274 12.6949 14.5961 12.7496 14.6157 12.7496C14.6354 12.7496 14.6898 12.7907 14.7366 12.8409C14.7835 12.8911 14.8379 12.9321 14.8576 12.9321C14.8772 12.9321 14.9459 12.9869 15.0101 13.0538C15.0743 13.1207 15.1429 13.1754 15.1626 13.1754C15.1823 13.1754 15.2367 13.2165 15.2835 13.2666C15.3303 13.3168 15.385 13.3579 15.405 13.3579C15.4251 13.3579 15.4798 13.3989 15.5266 13.4491C15.5734 13.4993 15.6336 13.5404 15.6603 13.5404C15.687 13.5404 15.7089 13.554 15.7089 13.5708C15.7089 13.5875 15.7362 13.6012 15.7696 13.6012C15.8031 13.6012 15.8304 13.6149 15.8304 13.6316C15.8304 13.6485 15.9114 13.662 16.0127 13.662C16.114 13.662 16.195 13.6485 16.195 13.6316C16.195 13.6149 16.2223 13.6012 16.2557 13.6012C16.2892 13.6012 16.3165 13.5875 16.3165 13.5708C16.3165 13.554 16.3384 13.5404 16.3651 13.5404C16.3918 13.5404 16.452 13.4993 16.4988 13.4491C16.5456 13.3989 16.6 13.3579 16.6197 13.3579C16.6394 13.3579 16.708 13.3031 16.7722 13.2362C16.8365 13.1693 16.9051 13.1146 16.9248 13.1146C16.9444 13.1146 16.9989 13.0735 17.0457 13.0234C17.0925 12.9732 17.1472 12.9321 17.1672 12.9321C17.1872 12.9321 17.2419 12.8911 17.2887 12.8409C17.3356 12.7907 17.39 12.7496 17.4097 12.7496C17.4293 12.7496 17.4979 12.6949 17.5622 12.628C17.6264 12.5611 17.695 12.5064 17.7147 12.5064C17.7344 12.5064 17.7888 12.4653 17.8356 12.4151C17.8824 12.3649 17.9371 12.3239 17.9571 12.3239C17.9772 12.3239 18.0319 12.2828 18.0787 12.2326C18.1255 12.1825 18.1799 12.1414 18.1996 12.1414C18.2193 12.1414 18.2879 12.0867 18.3521 12.0198C18.4163 11.9529 18.485 11.8981 18.5046 11.8981C18.5243 11.8981 18.5787 11.8571 18.6256 11.8069C18.6724 11.7567 18.7271 11.7156 18.7471 11.7156C18.7671 11.7156 18.8218 11.6746 18.8686 11.6244C18.9154 11.5742 18.9698 11.5332 18.9895 11.5332C19.0092 11.5332 19.0778 11.4784 19.142 11.4115C19.2063 11.3446 19.2749 11.2899 19.2946 11.2899C19.3143 11.2899 19.3687 11.2488 19.4155 11.1986C19.4623 11.1485 19.517 11.1074 19.537 11.1074C19.557 11.1074 19.6117 11.0664 19.6585 11.0162C19.7054 10.966 19.7598 10.9249 19.7795 10.9249C19.7991 10.9249 19.8678 10.8702 19.932 10.8033C19.9962 10.7364 20.0648 10.6816 20.0845 10.6816C20.1042 10.6816 20.1586 10.6406 20.2054 10.5904C20.2522 10.5402 20.3069 10.4992 20.327 10.4992C20.347 10.4992 20.4017 10.4581 20.4485 10.4079C20.4953 10.3578 20.5497 10.3167 20.5694 10.3167C20.5891 10.3167 20.6577 10.262 20.7219 10.1951C20.7861 10.1281 20.8548 10.0734 20.8744 10.0734C20.8941 10.0734 20.9485 10.0324 20.9954 9.98217C21.0422 9.93199 21.0969 9.89093 21.1169 9.89093C21.1369 9.89093 21.1916 9.84988 21.2384 9.7997C21.2852 9.74952 21.3396 9.70846 21.3593 9.70846C21.379 9.70846 21.4476 9.65372 21.5119 9.58682C21.5761 9.51991 21.6447 9.46517 21.6644 9.46517C21.6841 9.46517 21.7385 9.42411 21.7853 9.37393C21.8321 9.32376 21.8868 9.2827 21.9068 9.2827C21.9268 9.2827 21.9815 9.24164 22.0284 9.19146C22.0752 9.14128 22.1296 9.10023 22.1493 9.10023C22.1689 9.10023 22.2376 9.04549 22.3018 8.97858C22.366 8.91167 22.4347 8.85693 22.4543 8.85693C22.474 8.85693 22.5284 8.81588 22.5752 8.7657C22.6221 8.71552 22.6767 8.67446 22.6968 8.67446C22.7168 8.67446 22.7715 8.63341 22.8183 8.58323C22.8651 8.53305 22.9195 8.49199 22.9392 8.49199C22.9589 8.49199 23.0275 8.43725 23.0917 8.37034C23.156 8.30344 23.2246 8.2487 23.2442 8.2487C23.2639 8.2487 23.3183 8.20764 23.3652 8.15746C23.412 8.10728 23.4667 8.06623 23.4867 8.06623C23.5067 8.06623 23.5614 8.02517 23.6082 7.97499C23.655 7.92481 23.7095 7.88376 23.7291 7.88376C23.7488 7.88376 23.8174 7.82901 23.8817 7.76211C23.9459 7.6952 24.0145 7.64046 24.0342 7.64046C24.0539 7.64046 24.1083 7.59941 24.1551 7.54923C24.2019 7.49905 24.2566 7.45799 24.2766 7.45799C24.2967 7.45799 24.3513 7.41693 24.3982 7.36675C24.445 7.31658 24.4994 7.27552 24.5191 7.27552C24.5387 7.27552 24.6074 7.22078 24.6716 7.15387C24.7358 7.08697 24.8045 7.03222 24.8241 7.03222C24.8438 7.03222 24.8982 6.99117 24.945 6.94099C24.9919 6.89081 25.0465 6.84975 25.0666 6.84975C25.0866 6.84975 25.1413 6.8087 25.1881 6.75852C25.2349 6.70834 25.2893 6.66728 25.309 6.66728C25.3287 6.66728 25.3973 6.61254 25.4615 6.54564C25.5258 6.47873 25.5944 6.42399 25.6141 6.42399C25.6337 6.42399 25.6882 6.38293 25.735 6.33275C25.7818 6.28257 25.8365 6.24152 25.8565 6.24152C25.8765 6.24152 25.9312 6.20046 25.978 6.15028C26.0249 6.1001 26.0793 6.05905 26.099 6.05905C26.1186 6.05905 26.1872 6.00431 26.2515 5.9374C26.3157 5.87049 26.3843 5.81575 26.404 5.81575C26.4237 5.81575 26.4781 5.7747 26.5249 5.72452C26.5717 5.67434 26.6264 5.63328 26.6464 5.63328C26.6665 5.63328 26.7211 5.59223 26.768 5.54205C26.8148 5.49187 26.8692 5.45081 26.8889 5.45081C26.9085 5.45081 26.9772 5.39607 27.0414 5.32916C27.1056 5.26226 27.1743 5.20752 27.1939 5.20752C27.2136 5.20752 27.268 5.16646 27.3148 5.11628C27.3617 5.0661 27.4161 5.02504 27.4358 5.02504C27.4554 5.02504 27.5241 4.9703 27.5883 4.9034C27.6525 4.83649 27.7211 4.78175 27.7408 4.78175C27.7605 4.78175 27.8149 4.74069 27.8617 4.69052C27.9085 4.64034 27.9632 4.59928 27.9833 4.59928C28.0033 4.59928 28.058 4.55822 28.1048 4.50804C28.1516 4.45786 28.2063 4.41681 28.2263 4.41681C28.2463 4.41681 28.301 4.37575 28.3478 4.32557C28.3947 4.27539 28.4491 4.23434 28.4688 4.23434C28.4884 4.23434 28.5571 4.1796 28.6213 4.11269C28.6855 4.04578 28.7541 3.99104 28.7738 3.99104C28.7935 3.99104 28.8479 3.94999 28.8947 3.89981C28.9415 3.84963 28.996 3.80857 29.0156 3.80857C29.0353 3.80857 29.1039 3.75383 29.1682 3.68693C29.2324 3.62002 29.301 3.56528 29.3207 3.56528C29.3404 3.56528 29.3948 3.52422 29.4416 3.47404C29.4884 3.42386 29.5431 3.38281 29.5631 3.38281C29.5831 3.38281 29.6378 3.34175 29.6847 3.29157C29.7315 3.24139 29.7859 3.20034 29.8056 3.20034C29.8252 3.20034 29.8939 3.14559 29.9581 3.07869C30.0223 3.01178 30.0934 2.95704 30.1161 2.95704C30.1388 2.95704 30.1771 2.92967 30.2011 2.89622C30.2252 2.86276 30.2556 2.83539 30.2686 2.83539C30.2816 2.83539 30.2923 6.97903 30.2923 12.0435C30.2923 21.2166 30.2925 21.2517 30.3531 21.2954C30.3865 21.3195 30.4138 21.3577 30.4138 21.3803C30.4138 21.436 30.4898 21.5082 30.5484 21.5082C30.5746 21.5082 30.5961 21.5219 30.5961 21.5387C30.5961 21.5554 30.6235 21.5691 30.6569 21.5691C30.6903 21.5691 30.7176 21.5828 30.7176 21.5995C30.7176 21.6168 30.8088 21.6299 30.9303 21.6299C31.0518 21.6299 31.143 21.6168 31.143 21.5995C31.143 21.5828 31.1639 21.5691 31.1894 21.5691C31.2497 21.5691 31.5076 21.3109 31.5076 21.2505C31.5076 21.225 31.5213 21.2041 31.538 21.2041C31.5582 21.2041 31.5683 17.869 31.5683 11.2595C31.5683 4.64998 31.5582 1.3148 31.538 1.3148C31.5213 1.3148 31.5076 1.28743 31.5076 1.25398C31.5076 1.22053 31.4939 1.19316 31.4772 1.19316C31.4605 1.19316 31.4468 1.17202 31.4468 1.14617C31.4468 1.08532 31.3115 0.949862 31.2507 0.949862C31.2249 0.949862 31.2038 0.936176 31.2038 0.91945C31.2038 0.899226 26.1198 0.889038 16.0127 0.889038C5.90555 0.889038 0.821617 0.899226 0.821617 0.91945ZM28.9555 2.18291C28.9555 2.21396 28.8065 2.34881 28.7722 2.34881C28.7534 2.34881 28.6855 2.40355 28.6213 2.47045C28.5571 2.53736 28.4884 2.5921 28.4688 2.5921C28.4491 2.5921 28.3947 2.63316 28.3478 2.68334C28.301 2.73351 28.2463 2.77457 28.2263 2.77457C28.2063 2.77457 28.1516 2.81563 28.1048 2.86581C28.058 2.91599 28.0035 2.95704 27.9839 2.95704C27.9642 2.95704 27.8956 3.01178 27.8313 3.07869C27.7671 3.14559 27.6985 3.20034 27.6788 3.20034C27.6591 3.20034 27.6047 3.24139 27.5579 3.29157C27.5111 3.34175 27.4564 3.38281 27.4364 3.38281C27.4164 3.38281 27.3617 3.42386 27.3148 3.47404C27.268 3.52422 27.2136 3.56528 27.1939 3.56528C27.1743 3.56528 27.1056 3.62002 27.0414 3.68693C26.9772 3.75383 26.9085 3.80857 26.8889 3.80857C26.8692 3.80857 26.8148 3.84963 26.768 3.89981C26.7211 3.94999 26.6667 3.99104 26.647 3.99104C26.6274 3.99104 26.5588 4.04578 26.4945 4.11269C26.4303 4.1796 26.3617 4.23434 26.342 4.23434C26.3223 4.23434 26.2679 4.27539 26.2211 4.32557C26.1743 4.37575 26.1196 4.41681 26.0996 4.41681C26.0795 4.41681 26.0249 4.45786 25.978 4.50804C25.9312 4.55822 25.8765 4.59928 25.8565 4.59928C25.8365 4.59928 25.7818 4.64034 25.735 4.69052C25.6882 4.74069 25.6337 4.78175 25.6141 4.78175C25.5944 4.78175 25.5258 4.83649 25.4615 4.9034C25.3973 4.9703 25.3287 5.02504 25.309 5.02504C25.2893 5.02504 25.2349 5.0661 25.1881 5.11628C25.1413 5.16646 25.0866 5.20752 25.0666 5.20752C25.0465 5.20752 24.9919 5.24857 24.945 5.29875C24.8982 5.34893 24.8438 5.38999 24.8241 5.38999C24.8045 5.38999 24.7358 5.44473 24.6716 5.51163C24.6074 5.57854 24.5387 5.63328 24.5191 5.63328C24.4994 5.63328 24.445 5.67434 24.3982 5.72452C24.3513 5.7747 24.2969 5.81575 24.2772 5.81575C24.2576 5.81575 24.1889 5.87049 24.1247 5.9374C24.0605 6.00431 23.9919 6.05905 23.9722 6.05905C23.9525 6.05905 23.8981 6.1001 23.8513 6.15028C23.8045 6.20046 23.7498 6.24152 23.7298 6.24152C23.7097 6.24152 23.655 6.28257 23.6082 6.33275C23.5614 6.38293 23.507 6.42399 23.4873 6.42399C23.4676 6.42399 23.399 6.47873 23.3348 6.54564C23.2706 6.61254 23.2019 6.66728 23.1823 6.66728C23.1626 6.66728 23.1082 6.70834 23.0613 6.75852C23.0145 6.8087 22.9598 6.84975 22.9398 6.84975C22.9198 6.84975 22.8651 6.89081 22.8183 6.94099C22.7715 6.99117 22.7171 7.03222 22.6974 7.03222C22.6777 7.03222 22.6091 7.08697 22.5448 7.15387C22.4806 7.22078 22.412 7.27552 22.3923 7.27552C22.3726 7.27552 22.3182 7.31658 22.2714 7.36675C22.2246 7.41693 22.1699 7.45799 22.1499 7.45799C22.1299 7.45799 22.0752 7.49905 22.0284 7.54923C21.9815 7.59941 21.9271 7.64046 21.9074 7.64046C21.8878 7.64046 21.8191 7.6952 21.7549 7.76211C21.6907 7.82901 21.6221 7.88376 21.6024 7.88376C21.5827 7.88376 21.5283 7.92481 21.4815 7.97499C21.4347 8.02517 21.38 8.06623 21.3599 8.06623C21.3399 8.06623 21.2852 8.10728 21.2384 8.15746C21.1916 8.20764 21.1372 8.2487 21.1175 8.2487C21.0978 8.2487 21.0292 8.30344 20.965 8.37034C20.9007 8.43725 20.8321 8.49199 20.8125 8.49199C20.7928 8.49199 20.7384 8.53305 20.6915 8.58323C20.6447 8.63341 20.59 8.67446 20.57 8.67446C20.55 8.67446 20.4953 8.71552 20.4485 8.7657C20.4017 8.81588 20.3472 8.85693 20.3276 8.85693C20.3079 8.85693 20.2393 8.91167 20.175 8.97858C20.1108 9.04549 20.0422 9.10023 20.0225 9.10023C20.0028 9.10023 19.9484 9.14128 19.9016 9.19146C19.8548 9.24164 19.8001 9.2827 19.7801 9.2827C19.7601 9.2827 19.7054 9.32376 19.6585 9.37393C19.6117 9.42411 19.5573 9.46517 19.5376 9.46517C19.518 9.46517 19.4493 9.51991 19.3851 9.58682C19.3209 9.65372 19.2522 9.70846 19.2326 9.70846C19.2129 9.70846 19.1585 9.74952 19.1117 9.7997C19.0648 9.84988 19.0102 9.89093 18.9901 9.89093C18.9701 9.89093 18.9154 9.93199 18.8686 9.98217C18.8218 10.0324 18.7674 10.0734 18.7477 10.0734C18.728 10.0734 18.6594 10.1281 18.5952 10.1951C18.5309 10.262 18.4623 10.3167 18.4427 10.3167C18.423 10.3167 18.3686 10.3578 18.3217 10.4079C18.2749 10.4581 18.2202 10.4992 18.2002 10.4992C18.1802 10.4992 18.1255 10.5402 18.0787 10.5904C18.0319 10.6406 17.9774 10.6816 17.9578 10.6816C17.9381 10.6816 17.8695 10.7364 17.8052 10.8033C17.741 10.8702 17.6724 10.9249 17.6527 10.9249C17.633 10.9249 17.5786 10.966 17.5318 11.0162C17.485 11.0664 17.4303 11.1074 17.4103 11.1074C17.3902 11.1074 17.3356 11.1485 17.2887 11.1986C17.2419 11.2488 17.1875 11.2899 17.1678 11.2899C17.1482 11.2899 17.0795 11.3446 17.0153 11.4115C16.9511 11.4784 16.8824 11.5332 16.8628 11.5332C16.8431 11.5332 16.7887 11.5742 16.7419 11.6244C16.695 11.6746 16.6404 11.7156 16.6203 11.7156C16.6003 11.7156 16.5456 11.7567 16.4988 11.8069C16.452 11.8571 16.3976 11.8981 16.3779 11.8981C16.3582 11.8981 16.2896 11.9529 16.2254 12.0198C16.066 12.1858 15.9593 12.1858 15.8 12.0198C15.7358 11.9529 15.6672 11.8981 15.6475 11.8981C15.6278 11.8981 15.5734 11.8571 15.5266 11.8069C15.4798 11.7567 15.4251 11.7156 15.405 11.7156C15.385 11.7156 15.3303 11.6746 15.2835 11.6244C15.2367 11.5742 15.1823 11.5332 15.1626 11.5332C15.1429 11.5332 15.0743 11.4784 15.0101 11.4115C14.9459 11.3446 14.8772 11.2899 14.8576 11.2899C14.8379 11.2899 14.7835 11.2488 14.7366 11.1986C14.6898 11.1485 14.6351 11.1074 14.6151 11.1074C14.5951 11.1074 14.5404 11.0664 14.4936 11.0162C14.4468 10.966 14.3923 10.9249 14.3727 10.9249C14.353 10.9249 14.2844 10.8702 14.2201 10.8033C14.1559 10.7364 14.0873 10.6816 14.0676 10.6816C14.0479 10.6816 13.9935 10.6406 13.9467 10.5904C13.8999 10.5402 13.8452 10.4992 13.8252 10.4992C13.8052 10.4992 13.7505 10.4581 13.7036 10.4079C13.6568 10.3578 13.6024 10.3167 13.5827 10.3167C13.5631 10.3167 13.4944 10.262 13.4302 10.1951C13.366 10.1281 13.2973 10.0734 13.2777 10.0734C13.258 10.0734 13.2036 10.0324 13.1568 9.98217C13.1099 9.93199 13.0553 9.89093 13.0352 9.89093C13.0152 9.89093 12.9605 9.84988 12.9137 9.7997C12.8669 9.74952 12.8125 9.70846 12.7928 9.70846C12.7731 9.70846 12.7045 9.65372 12.6403 9.58682C12.576 9.51991 12.5074 9.46517 12.4878 9.46517C12.4681 9.46517 12.4137 9.42411 12.3668 9.37393C12.32 9.32376 12.2653 9.2827 12.2453 9.2827C12.2253 9.2827 12.1706 9.24164 12.1238 9.19146C12.077 9.14128 12.0225 9.10023 12.0029 9.10023C11.9832 9.10023 11.9146 9.04549 11.8503 8.97858C11.7861 8.91167 11.7175 8.85693 11.6978 8.85693C11.6781 8.85693 11.6237 8.81588 11.5769 8.7657C11.5301 8.71552 11.4754 8.67446 11.4554 8.67446C11.4353 8.67446 11.3807 8.63341 11.3338 8.58323C11.287 8.53305 11.2326 8.49199 11.2129 8.49199C11.1933 8.49199 11.1246 8.43725 11.0604 8.37034C10.9962 8.30344 10.9275 8.2487 10.9079 8.2487C10.8882 8.2487 10.8338 8.20764 10.787 8.15746C10.7401 8.10728 10.6855 8.06623 10.6654 8.06623C10.6454 8.06623 10.5907 8.02517 10.5439 7.97499C10.4971 7.92481 10.4427 7.88376 10.423 7.88376C10.4033 7.88376 10.3347 7.82901 10.2705 7.76211C10.2062 7.6952 10.1376 7.64046 10.1179 7.64046C10.0983 7.64046 10.0438 7.59941 9.99702 7.54923C9.95021 7.49905 9.89552 7.45799 9.8755 7.45799C9.85547 7.45799 9.80079 7.41693 9.75397 7.36675C9.70715 7.31658 9.65273 7.27552 9.63305 7.27552C9.61339 7.27552 9.54476 7.22078 9.48053 7.15387C9.4163 7.08697 9.34767 7.03222 9.32801 7.03222C9.30832 7.03222 9.25391 6.99117 9.20709 6.94099C9.16027 6.89081 9.10558 6.84975 9.08556 6.84975C9.06554 6.84975 9.01085 6.8087 8.96403 6.75852C8.91721 6.70834 8.8628 6.66728 8.84311 6.66728C8.82345 6.66728 8.75482 6.61254 8.69059 6.54564C8.62636 6.47873 8.55773 6.42399 8.53807 6.42399C8.51839 6.42399 8.46397 6.38293 8.41715 6.33275C8.37033 6.28257 8.31565 6.24152 8.29562 6.24152C8.2756 6.24152 8.22091 6.20046 8.1741 6.15028C8.12728 6.1001 8.07286 6.05905 8.05317 6.05905C8.03352 6.05905 7.96488 6.00431 7.90066 5.9374C7.83643 5.87049 7.7678 5.81575 7.74814 5.81575C7.72845 5.81575 7.67404 5.7747 7.62722 5.72452C7.5804 5.67434 7.52571 5.63328 7.50569 5.63328C7.48567 5.63328 7.43098 5.59223 7.38416 5.54205C7.33734 5.49187 7.28293 5.45081 7.26324 5.45081C7.24358 5.45081 7.17495 5.39607 7.11072 5.32916C7.04649 5.26226 6.97786 5.20752 6.9582 5.20752C6.93851 5.20752 6.8841 5.16646 6.83728 5.11628C6.79046 5.0661 6.73577 5.02504 6.71575 5.02504C6.69573 5.02504 6.64104 4.98399 6.59422 4.93381C6.54741 4.88363 6.49299 4.84257 6.4733 4.84257C6.45365 4.84257 6.38501 4.78783 6.32079 4.72093C6.25656 4.65402 6.18792 4.59928 6.16827 4.59928C6.14858 4.59928 6.09416 4.55822 6.04735 4.50804C6.00053 4.45786 5.94584 4.41681 5.92582 4.41681C5.9058 4.41681 5.85111 4.37575 5.80429 4.32557C5.75747 4.27539 5.70306 4.23434 5.68337 4.23434C5.66371 4.23434 5.59508 4.1796 5.53085 4.11269C5.46662 4.04578 5.39799 3.99104 5.37833 3.99104C5.35864 3.99104 5.30423 3.94999 5.25741 3.89981C5.21059 3.84963 5.15618 3.80857 5.13649 3.80857C5.11683 3.80857 5.0482 3.75383 4.98397 3.68693C4.91974 3.62002 4.85111 3.56528 4.83145 3.56528C4.81176 3.56528 4.75735 3.52422 4.71053 3.47404C4.66371 3.42386 4.60902 3.38281 4.589 3.38281C4.56898 3.38281 4.51429 3.34175 4.46747 3.29157C4.42066 3.24139 4.36624 3.20034 4.34655 3.20034C4.3269 3.20034 4.25826 3.14559 4.19403 3.07869C4.12981 3.01178 4.06117 2.95704 4.04152 2.95704C4.02183 2.95704 3.96741 2.91599 3.9206 2.86581C3.87378 2.81563 3.81909 2.77457 3.79907 2.77457C3.77905 2.77457 3.72436 2.73351 3.67754 2.68334C3.63072 2.63316 3.57603 2.5921 3.55601 2.5921C3.53599 2.5921 3.4813 2.55104 3.43448 2.50086C3.38766 2.45068 3.33386 2.40963 3.31493 2.40963C3.28099 2.40963 3.0699 2.21402 3.0699 2.18254C3.0699 2.17363 8.89415 2.16633 16.0127 2.16633C23.1312 2.16633 28.9555 2.17379 28.9555 2.18291ZM21.9068 12.8409C21.9068 12.8589 21.7954 12.8713 21.6334 12.8713C21.4714 12.8713 21.3599 12.8837 21.3599 12.9017C21.3599 12.9184 21.2916 12.9321 21.208 12.9321C21.1245 12.9321 21.0561 12.9458 21.0561 12.9625C21.0561 12.9793 21.0014 12.9929 20.9346 12.9929C20.8678 12.9929 20.8131 13.0066 20.8131 13.0234C20.8131 13.0401 20.7584 13.0538 20.6915 13.0538C20.6247 13.0538 20.57 13.0674 20.57 13.0842C20.57 13.1009 20.529 13.1146 20.4789 13.1146C20.4287 13.1146 20.3877 13.1283 20.3877 13.145C20.3877 13.1617 20.3467 13.1754 20.2966 13.1754C20.2464 13.1754 20.2054 13.1891 20.2054 13.2058C20.2054 13.2225 20.1644 13.2362 20.1143 13.2362C20.0641 13.2362 20.0231 13.2499 20.0231 13.2666C20.0231 13.2834 19.9821 13.2971 19.932 13.2971C19.8819 13.2971 19.8408 13.3107 19.8408 13.3275C19.8408 13.3442 19.8135 13.3579 19.7801 13.3579C19.7467 13.3579 19.7193 13.3716 19.7193 13.3883C19.7193 13.405 19.692 13.4187 19.6585 13.4187C19.6251 13.4187 19.5978 13.4324 19.5978 13.4491C19.5978 13.4658 19.5704 13.4795 19.537 13.4795C19.5036 13.4795 19.4763 13.4932 19.4763 13.5099C19.4763 13.5267 19.4489 13.5404 19.4155 13.5404C19.3821 13.5404 19.3547 13.554 19.3547 13.5708C19.3547 13.5875 19.3274 13.6012 19.294 13.6012C19.2605 13.6012 19.2332 13.6149 19.2332 13.6316C19.2332 13.6483 19.2059 13.662 19.1724 13.662C19.139 13.662 19.1117 13.6757 19.1117 13.6924C19.1117 13.7091 19.0873 13.7228 19.0576 13.7228C19.0279 13.7228 18.9839 13.7502 18.9598 13.7836C18.9357 13.8171 18.8946 13.8445 18.8686 13.8445C18.8426 13.8445 18.8016 13.8718 18.7775 13.9053C18.7534 13.9387 18.7124 13.9661 18.6863 13.9661C18.6603 13.9661 18.6193 13.9935 18.5952 14.0269C18.5711 14.0604 18.5328 14.0878 18.5101 14.0878C18.4874 14.0878 18.4163 14.1425 18.3521 14.2094C18.2879 14.2763 18.2205 14.3311 18.2023 14.3311C18.1841 14.3311 17.9848 14.5157 17.7594 14.7413C17.534 14.967 17.3495 15.1665 17.3495 15.1847C17.3495 15.2029 17.2948 15.2704 17.228 15.3347C17.1611 15.3989 17.1064 15.4676 17.1064 15.4873C17.1064 15.507 17.0654 15.5615 17.0153 15.6084C16.9652 15.6552 16.9242 15.7125 16.9242 15.7355C16.9242 15.7585 16.8968 15.7971 16.8634 15.8212C16.83 15.8454 16.8026 15.8894 16.8026 15.9192C16.8026 15.9489 16.789 15.9733 16.7722 15.9733C16.7555 15.9733 16.7419 15.9977 16.7419 16.0274C16.7419 16.0572 16.7145 16.1012 16.6811 16.1254C16.6477 16.1495 16.6203 16.1935 16.6203 16.2233C16.6203 16.2531 16.6067 16.2774 16.5899 16.2774C16.5732 16.2774 16.5596 16.3048 16.5596 16.3382C16.5596 16.3717 16.5459 16.3991 16.5292 16.3991C16.5125 16.3991 16.4988 16.4264 16.4988 16.4599C16.4988 16.4933 16.4851 16.5207 16.4684 16.5207C16.4517 16.5207 16.438 16.5481 16.438 16.5815C16.438 16.615 16.4244 16.6424 16.4077 16.6424C16.3909 16.6424 16.3773 16.6697 16.3773 16.7032C16.3773 16.7366 16.3636 16.764 16.3469 16.764C16.3302 16.764 16.3165 16.7914 16.3165 16.8248C16.3165 16.8583 16.3028 16.8857 16.2861 16.8857C16.2694 16.8857 16.2557 16.9267 16.2557 16.9769C16.2557 17.0271 16.2421 17.0681 16.2254 17.0681C16.2087 17.0681 16.195 17.0955 16.195 17.1289C16.195 17.1624 16.1813 17.1898 16.1646 17.1898C16.1479 17.1898 16.1342 17.2308 16.1342 17.281C16.1342 17.3312 16.1205 17.3722 16.1038 17.3722C16.0871 17.3722 16.0735 17.4133 16.0735 17.4635C16.0735 17.5137 16.0598 17.5547 16.0431 17.5547C16.0264 17.5547 16.0127 17.5958 16.0127 17.6459C16.0127 17.6961 15.999 17.7372 15.9823 17.7372C15.9656 17.7372 15.9519 17.7782 15.9519 17.8284C15.9519 17.8786 15.9383 17.9197 15.9215 17.9197C15.9048 17.9197 15.8912 17.9744 15.8912 18.0413C15.8912 18.1082 15.8775 18.1629 15.8608 18.1629C15.8441 18.1629 15.8304 18.2177 15.8304 18.2846C15.8304 18.3515 15.8167 18.4062 15.8 18.4062C15.7831 18.4062 15.7696 18.4874 15.7696 18.5887C15.7696 18.6901 15.7561 18.7712 15.7392 18.7712C15.7219 18.7712 15.7089 18.8624 15.7089 18.9841C15.7089 19.1057 15.6958 19.197 15.6785 19.197C15.6589 19.197 15.6481 19.5214 15.6481 20.1093C15.6481 20.6973 15.6589 21.0217 15.6785 21.0217C15.6958 21.0217 15.7089 21.1129 15.7089 21.2345C15.7089 21.3562 15.7219 21.4474 15.7392 21.4474C15.756 21.4474 15.7696 21.5159 15.7696 21.5995C15.7696 21.6831 15.7833 21.7515 15.8 21.7515C15.8167 21.7515 15.8304 21.7926 15.8304 21.8428C15.8304 21.893 15.8441 21.934 15.8608 21.934C15.8775 21.934 15.8912 21.9888 15.8912 22.0557C15.8912 22.1226 15.9048 22.1773 15.9215 22.1773C15.9383 22.1773 15.9519 22.2184 15.9519 22.2685C15.9519 22.3187 15.9656 22.3598 15.9823 22.3598C15.999 22.3598 16.0127 22.4008 16.0127 22.451C16.0127 22.5012 16.0264 22.5422 16.0431 22.5422C16.0598 22.5422 16.0735 22.5696 16.0735 22.6031C16.0735 22.6365 16.0871 22.6639 16.1038 22.6639C16.1205 22.6639 16.1342 22.6913 16.1342 22.7247C16.1342 22.7582 16.1479 22.7855 16.1646 22.7855C16.1813 22.7855 16.195 22.8266 16.195 22.8768C16.195 22.927 16.2087 22.968 16.2254 22.968C16.2421 22.968 16.2557 22.9954 16.2557 23.0288C16.2557 23.0623 16.2694 23.0897 16.2861 23.0897C16.3028 23.0897 16.3165 23.114 16.3165 23.1438C16.3165 23.1735 16.3439 23.2176 16.3773 23.2417C16.4107 23.2658 16.438 23.3099 16.438 23.3397C16.438 23.3694 16.4517 23.3938 16.4684 23.3938C16.4851 23.3938 16.4988 23.4181 16.4988 23.4479C16.4988 23.4777 16.5261 23.5217 16.5596 23.5458C16.593 23.57 16.6203 23.611 16.6203 23.6371C16.6203 23.6631 16.6477 23.7042 16.6811 23.7283C16.7145 23.7524 16.7419 23.7907 16.7419 23.8134C16.7419 23.8362 16.7965 23.9073 16.8634 23.9716C16.9302 24.0359 16.9849 24.1034 16.9849 24.1216C16.9849 24.1399 17.1283 24.2983 17.3036 24.4738C17.4788 24.6492 17.6371 24.7927 17.6554 24.7927C17.6736 24.7927 17.741 24.8475 17.8052 24.9144C17.8695 24.9813 17.9406 25.036 17.9633 25.036C17.9859 25.036 18.0242 25.0634 18.0483 25.0968C18.0724 25.1303 18.1134 25.1577 18.1394 25.1577C18.1655 25.1577 18.2065 25.185 18.2306 25.2185C18.2547 25.2519 18.2987 25.2793 18.3284 25.2793C18.3582 25.2793 18.3825 25.293 18.3825 25.3097C18.3825 25.3265 18.4098 25.3401 18.4433 25.3401C18.4767 25.3401 18.504 25.3538 18.504 25.3706C18.504 25.3873 18.5314 25.401 18.5648 25.401C18.5982 25.401 18.6256 25.4146 18.6256 25.4314C18.6256 25.4481 18.6529 25.4618 18.6863 25.4618C18.7197 25.4618 18.7471 25.4755 18.7471 25.4922C18.7471 25.5089 18.7744 25.5226 18.8078 25.5226C18.8413 25.5226 18.8686 25.5363 18.8686 25.553C18.8686 25.5697 18.896 25.5834 18.9294 25.5834C18.9628 25.5834 18.9901 25.5971 18.9901 25.6138C18.9901 25.6306 19.0175 25.6443 19.0509 25.6443C19.0843 25.6443 19.1117 25.6579 19.1117 25.6747C19.1117 25.6914 19.1527 25.7051 19.2028 25.7051C19.2529 25.7051 19.294 25.7188 19.294 25.7355C19.294 25.7522 19.335 25.7659 19.3851 25.7659C19.4352 25.7659 19.4763 25.7796 19.4763 25.7963C19.4763 25.813 19.5173 25.8267 19.5674 25.8267C19.6175 25.8267 19.6585 25.8404 19.6585 25.8571C19.6585 25.8739 19.6996 25.8876 19.7497 25.8876C19.7998 25.8876 19.8408 25.9012 19.8408 25.918C19.8408 25.9347 19.9092 25.9484 19.9928 25.9484C20.0763 25.9484 20.1447 25.9621 20.1447 25.9788C20.1447 25.9955 20.213 26.0092 20.2966 26.0092C20.3801 26.0092 20.4485 26.0229 20.4485 26.0396C20.4485 26.0579 20.57 26.07 20.7523 26.07C20.9346 26.07 21.0561 26.0822 21.0561 26.1004C21.0561 26.1191 21.208 26.1308 21.4511 26.1308C21.6941 26.1308 21.8461 26.1191 21.8461 26.1004C21.8461 26.0819 21.9879 26.07 22.2106 26.07C22.4334 26.07 22.5752 26.0582 22.5752 26.0396C22.5752 26.0227 22.6563 26.0092 22.7575 26.0092C22.8588 26.0092 22.9398 25.9957 22.9398 25.9788C22.9398 25.9621 23.0082 25.9484 23.0917 25.9484C23.1753 25.9484 23.2436 25.9347 23.2436 25.918C23.2436 25.9012 23.2983 25.8876 23.3652 25.8876C23.432 25.8876 23.4867 25.8739 23.4867 25.8571C23.4867 25.8404 23.5277 25.8267 23.5778 25.8267C23.628 25.8267 23.669 25.813 23.669 25.7963C23.669 25.7796 23.71 25.7659 23.7601 25.7659C23.8103 25.7659 23.8513 25.7522 23.8513 25.7355C23.8513 25.7188 23.8923 25.7051 23.9424 25.7051C23.9926 25.7051 24.0336 25.6914 24.0336 25.6747C24.0336 25.6579 24.0746 25.6443 24.1247 25.6443C24.1749 25.6443 24.2159 25.6306 24.2159 25.6138C24.2159 25.5971 24.2432 25.5834 24.2766 25.5834C24.3101 25.5834 24.3374 25.5697 24.3374 25.553C24.3374 25.5363 24.3647 25.5226 24.3982 25.5226C24.4316 25.5226 24.4589 25.5089 24.4589 25.4922C24.4589 25.4755 24.4863 25.4618 24.5197 25.4618C24.5531 25.4618 24.5805 25.4481 24.5805 25.4314C24.5805 25.4146 24.6019 25.401 24.6282 25.401C24.6947 25.401 24.7899 25.3036 24.7397 25.2868C24.7189 25.2799 24.702 25.2343 24.702 25.1856C24.702 25.1368 24.6883 25.0968 24.6716 25.0968C24.6549 25.0968 24.6412 25.0558 24.6412 25.0056C24.6412 24.9554 24.6275 24.9144 24.6108 24.9144C24.5941 24.9144 24.5805 24.887 24.5805 24.8535C24.5805 24.8201 24.5668 24.7927 24.5501 24.7927C24.5334 24.7927 24.5197 24.7517 24.5197 24.7015C24.5197 24.6513 24.506 24.6103 24.4893 24.6103C24.4726 24.6103 24.4589 24.5829 24.4589 24.5494C24.4589 24.516 24.4453 24.4886 24.4285 24.4886C24.4118 24.4886 24.3982 24.5023 24.3982 24.519C24.3982 24.5357 24.3571 24.5494 24.307 24.5494C24.2569 24.5494 24.2159 24.5631 24.2159 24.5798C24.2159 24.5966 24.1885 24.6103 24.1551 24.6103C24.1217 24.6103 24.0943 24.6239 24.0943 24.6407C24.0943 24.6574 24.067 24.6711 24.0336 24.6711C24.0002 24.6711 23.9728 24.6848 23.9728 24.7015C23.9728 24.7182 23.9318 24.7319 23.8817 24.7319C23.8315 24.7319 23.7905 24.7456 23.7905 24.7623C23.7905 24.779 23.7495 24.7927 23.6994 24.7927C23.6492 24.7927 23.6082 24.8064 23.6082 24.8231C23.6082 24.8399 23.5672 24.8535 23.5171 24.8535C23.4669 24.8535 23.4259 24.8672 23.4259 24.884C23.4259 24.9007 23.3712 24.9144 23.3044 24.9144C23.2376 24.9144 23.1829 24.9281 23.1829 24.9448C23.1829 24.9615 23.1282 24.9752 23.0613 24.9752C22.9945 24.9752 22.9398 24.9889 22.9398 25.0056C22.9398 25.0225 22.8588 25.036 22.7575 25.036C22.6563 25.036 22.5752 25.0495 22.5752 25.0664C22.5752 25.0849 22.4436 25.0968 22.241 25.0968C22.0385 25.0968 21.9068 25.1088 21.9068 25.1273C21.9068 25.1455 21.7853 25.1577 21.603 25.1577C21.4207 25.1577 21.2992 25.1455 21.2992 25.1273C21.2992 25.109 21.1777 25.0968 20.9954 25.0968C20.8131 25.0968 20.6915 25.0847 20.6915 25.0664C20.6915 25.0497 20.6232 25.036 20.5396 25.036C20.4561 25.036 20.3877 25.0223 20.3877 25.0056C20.3877 24.9889 20.333 24.9752 20.2662 24.9752C20.1993 24.9752 20.1447 24.9615 20.1447 24.9448C20.1447 24.9281 20.1036 24.9144 20.0535 24.9144C20.0034 24.9144 19.9624 24.9007 19.9624 24.884C19.9624 24.8672 19.9214 24.8535 19.8712 24.8535C19.8211 24.8535 19.7801 24.8399 19.7801 24.8231C19.7801 24.8064 19.7391 24.7927 19.6889 24.7927C19.6388 24.7927 19.5978 24.779 19.5978 24.7623C19.5978 24.7456 19.5704 24.7319 19.537 24.7319C19.5036 24.7319 19.4763 24.7182 19.4763 24.7015C19.4763 24.6848 19.4489 24.6711 19.4155 24.6711C19.3821 24.6711 19.3547 24.6574 19.3547 24.6407C19.3547 24.6239 19.3274 24.6103 19.294 24.6103C19.2605 24.6103 19.2332 24.5966 19.2332 24.5798C19.2332 24.5631 19.2059 24.5494 19.1724 24.5494C19.139 24.5494 19.1117 24.5357 19.1117 24.519C19.1117 24.5023 19.0843 24.4886 19.0509 24.4886C19.0175 24.4886 18.9901 24.4749 18.9901 24.4582C18.9901 24.4415 18.9658 24.4278 18.9361 24.4278C18.9063 24.4278 18.8623 24.4004 18.8382 24.367C18.8141 24.3335 18.7756 24.3061 18.7526 24.3061C18.7296 24.3061 18.6724 24.2651 18.6256 24.2149C18.5787 24.1647 18.5252 24.1237 18.5067 24.1237C18.4626 24.1237 17.8356 23.496 17.8356 23.452C17.8356 23.4334 17.7946 23.3798 17.7445 23.333C17.6943 23.2861 17.6533 23.2289 17.6533 23.2058C17.6533 23.1828 17.626 23.1442 17.5926 23.1201C17.5591 23.096 17.5318 23.0549 17.5318 23.0288C17.5318 23.0028 17.5045 22.9617 17.471 22.9376C17.4376 22.9135 17.4103 22.8694 17.4103 22.8396C17.4103 22.8099 17.3966 22.7855 17.3799 22.7855C17.3632 22.7855 17.3495 22.7582 17.3495 22.7247C17.3495 22.6913 17.3358 22.6639 17.3191 22.6639C17.3024 22.6639 17.2887 22.6365 17.2887 22.6031C17.2887 22.5696 17.2751 22.5422 17.2584 22.5422C17.2416 22.5422 17.228 22.5149 17.228 22.4814C17.228 22.448 17.2143 22.4206 17.1976 22.4206C17.1809 22.4206 17.1672 22.3795 17.1672 22.3294C17.1672 22.2792 17.1535 22.2381 17.1368 22.2381C17.1201 22.2381 17.1064 22.2108 17.1064 22.1773C17.1064 22.1439 17.0928 22.1165 17.0761 22.1165C17.0594 22.1165 17.0457 22.0754 17.0457 22.0252C17.0457 21.9751 17.032 21.934 17.0153 21.934C16.9986 21.934 16.9849 21.893 16.9849 21.8428C16.9849 21.7926 16.9712 21.7515 16.9545 21.7515C16.9378 21.7515 16.9242 21.6968 16.9242 21.6299C16.9242 21.563 16.9105 21.5082 16.8938 21.5082C16.8771 21.5082 16.8634 21.4398 16.8634 21.3562C16.8634 21.2726 16.8497 21.2041 16.833 21.2041C16.8157 21.2041 16.8026 21.1129 16.8026 20.9912C16.8026 20.8696 16.7896 20.7784 16.7722 20.7784C16.7527 20.7784 16.7419 20.4844 16.7419 19.9572C16.7419 19.4301 16.7527 19.1361 16.7722 19.1361C16.7896 19.1361 16.8026 19.0449 16.8026 18.9232C16.8026 18.8016 16.8157 18.7104 16.833 18.7104C16.8499 18.7104 16.8634 18.6293 16.8634 18.5279C16.8634 18.4265 16.8769 18.3454 16.8938 18.3454C16.9105 18.3454 16.9242 18.2907 16.9242 18.2238C16.9242 18.1569 16.9378 18.1021 16.9545 18.1021C16.9712 18.1021 16.9849 18.0474 16.9849 17.9805C16.9849 17.9136 16.9986 17.8588 17.0153 17.8588C17.032 17.8588 17.0457 17.8178 17.0457 17.7676C17.0457 17.7174 17.0594 17.6764 17.0761 17.6764C17.0928 17.6764 17.1064 17.6353 17.1064 17.5851C17.1064 17.5349 17.1201 17.4939 17.1368 17.4939C17.1535 17.4939 17.1672 17.4528 17.1672 17.4027C17.1672 17.3525 17.1809 17.3114 17.1976 17.3114C17.2143 17.3114 17.228 17.284 17.228 17.2506C17.228 17.2171 17.2416 17.1898 17.2584 17.1898C17.2751 17.1898 17.2887 17.1487 17.2887 17.0985C17.2887 17.0484 17.3024 17.0073 17.3191 17.0073C17.3358 17.0073 17.3495 16.9799 17.3495 16.9465C17.3495 16.913 17.3632 16.8857 17.3799 16.8857C17.3966 16.8857 17.4103 16.8583 17.4103 16.8248C17.4103 16.7914 17.4239 16.764 17.4406 16.764C17.4574 16.764 17.471 16.7366 17.471 16.7032C17.471 16.6697 17.4847 16.6424 17.5014 16.6424C17.5181 16.6424 17.5318 16.618 17.5318 16.5883C17.5318 16.5585 17.5591 16.5144 17.5926 16.4903C17.626 16.4662 17.6533 16.4221 17.6533 16.3923C17.6533 16.3626 17.667 16.3382 17.6837 16.3382C17.7004 16.3382 17.7141 16.3139 17.7141 16.2841C17.7141 16.2544 17.7414 16.2103 17.7749 16.1862C17.8083 16.1621 17.8356 16.121 17.8356 16.0949C17.8356 16.0689 17.863 16.0278 17.8964 16.0037C17.9298 15.9796 17.9571 15.9413 17.9571 15.9186C17.9571 15.8959 18.0118 15.8247 18.0787 15.7604C18.1455 15.6961 18.2002 15.6286 18.2002 15.6104C18.2002 15.5921 18.3436 15.4337 18.5189 15.2583C18.6941 15.0828 18.8524 14.9393 18.8706 14.9393C18.8888 14.9393 18.9563 14.8846 19.0205 14.8176C19.0847 14.7507 19.1558 14.696 19.1785 14.696C19.2012 14.696 19.2395 14.6686 19.2636 14.6352C19.2877 14.6017 19.3287 14.5744 19.3547 14.5744C19.3808 14.5744 19.4218 14.547 19.4459 14.5135C19.47 14.4801 19.514 14.4527 19.5437 14.4527C19.5734 14.4527 19.5978 14.439 19.5978 14.4223C19.5978 14.4056 19.6221 14.3919 19.6518 14.3919C19.6816 14.3919 19.7256 14.3645 19.7497 14.3311C19.7738 14.2976 19.8178 14.2702 19.8476 14.2702C19.8773 14.2702 19.9016 14.2566 19.9016 14.2398C19.9016 14.2231 19.9289 14.2094 19.9624 14.2094C19.9958 14.2094 20.0231 14.1957 20.0231 14.179C20.0231 14.1623 20.0641 14.1486 20.1143 14.1486C20.1644 14.1486 20.2054 14.1349 20.2054 14.1182C20.2054 14.1015 20.2328 14.0878 20.2662 14.0878C20.2996 14.0878 20.327 14.0741 20.327 14.0574C20.327 14.0406 20.368 14.0269 20.4181 14.0269C20.4682 14.0269 20.5092 14.0133 20.5092 13.9965C20.5092 13.9798 20.5366 13.9661 20.57 13.9661C20.6034 13.9661 20.6308 13.9524 20.6308 13.9357C20.6308 13.919 20.6855 13.9053 20.7523 13.9053C20.8191 13.9053 20.8738 13.8916 20.8738 13.8749C20.8738 13.8582 20.9148 13.8445 20.965 13.8445C21.0151 13.8445 21.0561 13.8308 21.0561 13.8141C21.0561 13.7973 21.1245 13.7836 21.208 13.7836C21.2916 13.7836 21.3599 13.77 21.3599 13.7532C21.3599 13.7359 21.4511 13.7228 21.5726 13.7228C21.6941 13.7228 21.7853 13.7098 21.7853 13.6924C21.7853 13.6731 22.0284 13.662 22.4537 13.662C22.8791 13.662 23.1221 13.6731 23.1221 13.6924C23.1221 13.7098 23.2133 13.7228 23.3348 13.7228C23.4563 13.7228 23.5475 13.7359 23.5475 13.7532C23.5475 13.77 23.6021 13.7836 23.669 13.7836C23.7358 13.7836 23.7905 13.7973 23.7905 13.8141C23.7905 13.8308 23.8452 13.8445 23.912 13.8445C23.9789 13.8445 24.0336 13.8582 24.0336 13.8749C24.0336 13.8916 24.0746 13.9053 24.1247 13.9053C24.1749 13.9053 24.2159 13.919 24.2159 13.9357C24.2159 13.9524 24.2432 13.9661 24.2766 13.9661C24.3101 13.9661 24.3374 13.9798 24.3374 13.9965C24.3374 14.0133 24.3784 14.0269 24.4285 14.0269C24.4787 14.0269 24.5197 14.0406 24.5197 14.0574C24.5197 14.0741 24.547 14.0878 24.5805 14.0878C24.6139 14.0878 24.6412 14.1015 24.6412 14.1182C24.6412 14.1349 24.6686 14.1486 24.702 14.1486C24.7354 14.1486 24.7627 14.1623 24.7627 14.179C24.7627 14.1957 24.7901 14.2094 24.8235 14.2094C24.8569 14.2094 24.8843 14.2231 24.8843 14.2398C24.8843 14.2566 24.9086 14.2702 24.9383 14.2702C24.9681 14.2702 25.0121 14.2976 25.0362 14.3311C25.0603 14.3645 25.1013 14.3919 25.1273 14.3919C25.1534 14.3919 25.1944 14.4193 25.2185 14.4527C25.2426 14.4862 25.2799 14.5135 25.3015 14.5135C25.3526 14.5135 26.0996 15.2613 26.0996 15.3124C26.0996 15.334 26.1269 15.3714 26.1603 15.3955C26.1937 15.4196 26.2211 15.4606 26.2211 15.4867C26.2211 15.5128 26.2484 15.5538 26.2819 15.5779C26.3153 15.6021 26.3426 15.6461 26.3426 15.6759C26.3426 15.7056 26.3563 15.73 26.373 15.73C26.3897 15.73 26.4034 15.7574 26.4034 15.7908C26.4034 15.8243 26.4171 15.8517 26.4338 15.8517C26.4505 15.8517 26.4641 15.879 26.4641 15.9125C26.4641 15.9459 26.4778 15.9733 26.4945 15.9733C26.5112 15.9733 26.5249 16.0007 26.5249 16.0341C26.5249 16.0676 26.5386 16.0949 26.5553 16.0949C26.572 16.0949 26.5857 16.1223 26.5857 16.1558C26.5857 16.1892 26.5993 16.2166 26.6161 16.2166C26.6328 16.2166 26.6464 16.244 26.6464 16.2774C26.6464 16.3109 26.6601 16.3382 26.6768 16.3382C26.6935 16.3382 26.7072 16.3793 26.7072 16.4295C26.7072 16.4797 26.7209 16.5207 26.7376 16.5207C26.7543 16.5207 26.768 16.5618 26.768 16.6119C26.768 16.6621 26.7816 16.7032 26.7983 16.7032C26.8151 16.7032 26.8287 16.7579 26.8287 16.8248C26.8287 16.8917 26.8424 16.9465 26.8591 16.9465C26.8758 16.9465 26.8895 17.0012 26.8895 17.0681C26.8895 17.135 26.9032 17.1898 26.9199 17.1898C26.9372 17.1898 26.9503 17.281 26.9503 17.4027C26.9503 17.5243 26.9633 17.6155 26.9806 17.6155C27.0001 17.6155 27.011 17.8994 27.011 18.4062C27.011 18.9131 27.0001 19.197 26.9806 19.197C26.9638 19.197 26.9503 19.2781 26.9503 19.3794C26.9503 19.4808 26.9368 19.5619 26.9199 19.5619C26.9032 19.5619 26.8895 19.6166 26.8895 19.6835C26.8895 19.7504 26.8758 19.8052 26.8591 19.8052C26.8424 19.8052 26.8287 19.8462 26.8287 19.8964C26.8287 19.9466 26.8151 19.9877 26.7983 19.9877C26.7816 19.9877 26.768 20.0287 26.768 20.0789C26.768 20.1291 26.7543 20.1701 26.7376 20.1701C26.7209 20.1701 26.7072 20.2112 26.7072 20.2614C26.7072 20.3115 26.6935 20.3526 26.6768 20.3526C26.6601 20.3526 26.6464 20.38 26.6464 20.4134C26.6464 20.4469 26.6328 20.4742 26.6161 20.4742C26.5993 20.4742 26.5857 20.5016 26.5857 20.5351C26.5857 20.5685 26.572 20.5959 26.5553 20.5959C26.5386 20.5959 26.5249 20.6233 26.5249 20.6567C26.5249 20.6902 26.5112 20.7175 26.4945 20.7175C26.4778 20.7175 26.4641 20.7449 26.4641 20.7784C26.4641 20.8118 26.4505 20.8392 26.4338 20.8392C26.4171 20.8392 26.4034 20.8635 26.4034 20.8933C26.4034 20.9231 26.376 20.9671 26.3426 20.9912C26.3092 21.0154 26.2819 21.0528 26.2819 21.0744C26.2819 21.1297 25.7761 21.6299 25.7202 21.6299C25.6949 21.6299 25.6742 21.6436 25.6742 21.6603C25.6742 21.677 25.6469 21.6907 25.6134 21.6907C25.58 21.6907 25.5527 21.7044 25.5527 21.7211C25.5527 21.7379 25.5253 21.7515 25.4919 21.7515C25.4585 21.7515 25.4312 21.7652 25.4312 21.782C25.4312 21.7987 25.4038 21.8124 25.3704 21.8124C25.337 21.8124 25.3096 21.8261 25.3096 21.8428C25.3096 21.861 25.1881 21.8732 25.0058 21.8732C24.8235 21.8732 24.702 21.861 24.702 21.8428C24.702 21.8261 24.681 21.8124 24.6554 21.8124C24.5949 21.8124 24.3982 21.6154 24.3982 21.5549C24.3982 21.5292 24.3845 21.5082 24.3678 21.5082C24.3511 21.5082 24.3374 21.4535 24.3374 21.3866C24.3374 21.3197 24.3237 21.265 24.307 21.265C24.2879 21.265 24.2766 21.0622 24.2766 20.7175C24.2766 20.3729 24.2879 20.1701 24.307 20.1701C24.3239 20.1701 24.3374 20.089 24.3374 19.9877C24.3374 19.8863 24.3509 19.8052 24.3678 19.8052C24.3847 19.8052 24.3982 19.7241 24.3982 19.6227C24.3982 19.5214 24.4116 19.4402 24.4285 19.4402C24.4453 19.4402 24.4589 19.3718 24.4589 19.2882C24.4589 19.2046 24.4726 19.1361 24.4893 19.1361C24.506 19.1361 24.5197 19.0677 24.5197 18.9841C24.5197 18.9004 24.5334 18.832 24.5501 18.832C24.567 18.832 24.5805 18.7509 24.5805 18.6495C24.5805 18.5482 24.5939 18.4671 24.6108 18.4671C24.6275 18.4671 24.6412 18.3986 24.6412 18.315C24.6412 18.2314 24.6549 18.1629 24.6716 18.1629C24.6883 18.1629 24.702 18.0945 24.702 18.0109C24.702 17.9273 24.7157 17.8588 24.7324 17.8588C24.7491 17.8588 24.7627 17.7904 24.7627 17.7068C24.7627 17.6231 24.7764 17.5547 24.7931 17.5547C24.81 17.5547 24.8235 17.4736 24.8235 17.3722C24.8235 17.2709 24.837 17.1898 24.8539 17.1898C24.8706 17.1898 24.8843 17.1213 24.8843 17.0377C24.8843 16.9541 24.8979 16.8857 24.9147 16.8857C24.9314 16.8857 24.945 16.8172 24.945 16.7336C24.945 16.65 24.9587 16.5815 24.9754 16.5815C24.9921 16.5815 25.0058 16.5131 25.0058 16.4295C25.0058 16.2977 24.9977 16.2774 24.945 16.2774C24.9116 16.2774 24.8843 16.2637 24.8843 16.247C24.8843 16.2303 24.8433 16.2166 24.7931 16.2166C24.743 16.2166 24.702 16.2029 24.702 16.1862C24.702 16.1695 24.6473 16.1558 24.5805 16.1558C24.5136 16.1558 24.4589 16.1421 24.4589 16.1254C24.4589 16.1086 24.4179 16.0949 24.3678 16.0949C24.3176 16.0949 24.2766 16.0813 24.2766 16.0645C24.2766 16.0478 24.2083 16.0341 24.1247 16.0341C24.0412 16.0341 23.9728 16.0204 23.9728 16.0037C23.9728 15.986 23.8715 15.9733 23.7298 15.9733C23.588 15.9733 23.4867 15.9606 23.4867 15.9429C23.4867 15.924 23.3145 15.9125 23.031 15.9125C22.7474 15.9125 22.5752 15.924 22.5752 15.9429C22.5752 15.9603 22.4841 15.9733 22.3626 15.9733C22.241 15.9733 22.1499 15.9863 22.1499 16.0037C22.1499 16.0204 22.0952 16.0341 22.0284 16.0341C21.9615 16.0341 21.9068 16.0478 21.9068 16.0645C21.9068 16.0813 21.8521 16.0949 21.7853 16.0949C21.7185 16.0949 21.6638 16.1086 21.6638 16.1254C21.6638 16.1421 21.6228 16.1558 21.5726 16.1558C21.5225 16.1558 21.4815 16.1695 21.4815 16.1862C21.4815 16.2029 21.4405 16.2166 21.3903 16.2166C21.3402 16.2166 21.2992 16.2303 21.2992 16.247C21.2992 16.2637 21.2718 16.2774 21.2384 16.2774C21.205 16.2774 21.1777 16.2911 21.1777 16.3078C21.1777 16.3246 21.1503 16.3382 21.1169 16.3382C21.0835 16.3382 21.0561 16.3519 21.0561 16.3687C21.0561 16.3854 21.0288 16.3991 20.9954 16.3991C20.9619 16.3991 20.9346 16.4127 20.9346 16.4295C20.9346 16.4462 20.9073 16.4599 20.8738 16.4599C20.8404 16.4599 20.8131 16.4736 20.8131 16.4903C20.8131 16.507 20.7887 16.5207 20.759 16.5207C20.7293 16.5207 20.6852 16.5481 20.6612 16.5815C20.6371 16.615 20.596 16.6424 20.57 16.6424C20.544 16.6424 20.503 16.6697 20.4789 16.7032C20.4548 16.7366 20.4162 16.764 20.3932 16.764C20.3702 16.764 20.313 16.8051 20.2662 16.8552C20.2194 16.9054 20.1658 16.9465 20.1473 16.9465C20.1032 16.9465 19.537 17.5132 19.537 17.5573C19.537 17.5759 19.496 17.6295 19.4459 17.6764C19.3957 17.7232 19.3547 17.7805 19.3547 17.8035C19.3547 17.8265 19.3274 17.8651 19.294 17.8892C19.2605 17.9134 19.2332 17.9544 19.2332 17.9805C19.2332 18.0065 19.2059 18.0476 19.1724 18.0717C19.139 18.0958 19.1117 18.1399 19.1117 18.1697C19.1117 18.1994 19.098 18.2238 19.0813 18.2238C19.0646 18.2238 19.0509 18.2511 19.0509 18.2846C19.0509 18.318 19.0372 18.3454 19.0205 18.3454C19.0038 18.3454 18.9901 18.3728 18.9901 18.4062C18.9901 18.4397 18.9765 18.4671 18.9598 18.4671C18.943 18.4671 18.9294 18.4944 18.9294 18.5279C18.9294 18.5613 18.9157 18.5887 18.899 18.5887C18.8823 18.5887 18.8686 18.6161 18.8686 18.6495C18.8686 18.683 18.8549 18.7104 18.8382 18.7104C18.8215 18.7104 18.8078 18.7377 18.8078 18.7712C18.8078 18.8046 18.7942 18.832 18.7775 18.832C18.7608 18.832 18.7471 18.8731 18.7471 18.9232C18.7471 18.9734 18.7334 19.0145 18.7167 19.0145C18.7 19.0145 18.6863 19.0555 18.6863 19.1057C18.6863 19.1559 18.6726 19.197 18.6559 19.197C18.6392 19.197 18.6256 19.2517 18.6256 19.3186C18.6256 19.3855 18.6119 19.4402 18.5952 19.4402C18.5785 19.4402 18.5648 19.5087 18.5648 19.5923C18.5648 19.6759 18.5511 19.7444 18.5344 19.7444C18.5151 19.7444 18.504 19.9877 18.504 20.4134C18.504 20.8392 18.5151 21.0825 18.5344 21.0825C18.5511 21.0825 18.5648 21.1372 18.5648 21.2041C18.5648 21.271 18.5785 21.3258 18.5952 21.3258C18.6119 21.3258 18.6256 21.3668 18.6256 21.417C18.6256 21.4672 18.6392 21.5082 18.6559 21.5082C18.6726 21.5082 18.6863 21.5356 18.6863 21.5691C18.6863 21.6025 18.7 21.6299 18.7167 21.6299C18.7334 21.6299 18.7471 21.6573 18.7471 21.6907C18.7471 21.7242 18.7608 21.7515 18.7775 21.7515C18.7942 21.7515 18.8078 21.7789 18.8078 21.8124C18.8078 21.8458 18.8215 21.8732 18.8382 21.8732C18.8549 21.8732 18.8686 21.8948 18.8686 21.9212C18.8686 21.9476 18.9233 22.0218 18.9901 22.0861C19.057 22.1504 19.1117 22.2187 19.1117 22.2379C19.1117 22.2834 19.1884 22.3598 19.234 22.3598C19.2536 22.3598 19.3079 22.4008 19.3547 22.451C19.4015 22.5012 19.4587 22.5422 19.4817 22.5422C19.5048 22.5422 19.5433 22.5696 19.5674 22.6031C19.5915 22.6365 19.6355 22.6639 19.6653 22.6639C19.695 22.6639 19.7193 22.6776 19.7193 22.6943C19.7193 22.711 19.7603 22.7247 19.8105 22.7247C19.8606 22.7247 19.9016 22.7384 19.9016 22.7551C19.9016 22.7719 19.9426 22.7855 19.9928 22.7855C20.0429 22.7855 20.0839 22.7992 20.0839 22.816C20.0839 22.835 20.2763 22.8464 20.6004 22.8464C20.9245 22.8464 21.1169 22.835 21.1169 22.816C21.1169 22.7992 21.1716 22.7855 21.2384 22.7855C21.3053 22.7855 21.3599 22.7719 21.3599 22.7551C21.3599 22.7384 21.401 22.7247 21.4511 22.7247C21.5012 22.7247 21.5422 22.711 21.5422 22.6943C21.5422 22.6776 21.5696 22.6639 21.603 22.6639C21.6364 22.6639 21.6638 22.6502 21.6638 22.6335C21.6638 22.6168 21.6911 22.6031 21.7245 22.6031C21.758 22.6031 21.7853 22.5894 21.7853 22.5727C21.7853 22.5559 21.8126 22.5422 21.8461 22.5422C21.8795 22.5422 21.9068 22.5286 21.9068 22.5118C21.9068 22.4951 21.9312 22.4814 21.9609 22.4814C21.9906 22.4814 22.0346 22.4541 22.0587 22.4206C22.0828 22.3871 22.1214 22.3598 22.1444 22.3598C22.1674 22.3598 22.2246 22.3187 22.2714 22.2685C22.3182 22.2184 22.3719 22.1773 22.3906 22.1773C22.4346 22.1773 22.7575 21.8546 22.7575 21.8106C22.7575 21.7922 22.8122 21.7246 22.8791 21.6603C22.9459 21.596 23.0006 21.5249 23.0006 21.5021C23.0006 21.4794 23.0279 21.4411 23.0613 21.417C23.0948 21.3929 23.1221 21.3547 23.1221 21.3321C23.1221 21.2913 23.1931 21.2041 23.2263 21.2041C23.2358 21.2041 23.2436 21.2726 23.2436 21.3562C23.2436 21.4398 23.2573 21.5082 23.274 21.5082C23.2909 21.5082 23.3044 21.5894 23.3044 21.6907C23.3044 21.7921 23.3179 21.8732 23.3348 21.8732C23.3515 21.8732 23.3652 21.9142 23.3652 21.9644C23.3652 22.0146 23.3788 22.0557 23.3955 22.0557C23.4123 22.0557 23.4259 22.083 23.4259 22.1165C23.4259 22.1499 23.4396 22.1773 23.4563 22.1773C23.473 22.1773 23.4867 22.1981 23.4867 22.2235C23.4867 22.2836 23.8666 22.6639 23.9267 22.6639C23.9521 22.6639 23.9728 22.6776 23.9728 22.6943C23.9728 22.711 24.0002 22.7247 24.0336 22.7247C24.067 22.7247 24.0943 22.7384 24.0943 22.7551C24.0943 22.7719 24.1354 22.7855 24.1855 22.7855C24.2356 22.7855 24.2766 22.7992 24.2766 22.816C24.2766 22.8349 24.4488 22.8464 24.7324 22.8464C25.0159 22.8464 25.1881 22.8349 25.1881 22.816C25.1881 22.7992 25.2565 22.7855 25.34 22.7855C25.4236 22.7855 25.4919 22.7719 25.4919 22.7551C25.4919 22.7384 25.5329 22.7247 25.5831 22.7247C25.6332 22.7247 25.6742 22.711 25.6742 22.6943C25.6742 22.6776 25.7016 22.6639 25.735 22.6639C25.7684 22.6639 25.7957 22.6502 25.7957 22.6335C25.7957 22.6168 25.8231 22.6031 25.8565 22.6031C25.8899 22.6031 25.9173 22.5894 25.9173 22.5727C25.9173 22.5559 25.9446 22.5422 25.978 22.5422C26.0115 22.5422 26.0388 22.5286 26.0388 22.5118C26.0388 22.4951 26.0631 22.4814 26.0928 22.4814C26.1226 22.4814 26.1666 22.4541 26.1907 22.4206C26.2148 22.3871 26.2558 22.3598 26.2819 22.3598C26.3079 22.3598 26.3489 22.3324 26.373 22.299C26.3971 22.2655 26.4345 22.2381 26.4561 22.2381C26.5073 22.2381 27.0718 21.673 27.0718 21.6218C27.0718 21.6002 27.0991 21.5628 27.1326 21.5387C27.166 21.5145 27.1933 21.4735 27.1933 21.4474C27.1933 21.4214 27.2207 21.3803 27.2541 21.3562C27.2875 21.3321 27.3148 21.291 27.3148 21.265C27.3148 21.2389 27.3422 21.1978 27.3756 21.1737C27.409 21.1496 27.4364 21.1055 27.4364 21.0758C27.4364 21.046 27.45 21.0217 27.4668 21.0217C27.4835 21.0217 27.4971 20.9943 27.4971 20.9608C27.4971 20.9274 27.5108 20.9 27.5275 20.9C27.5442 20.9 27.5579 20.8726 27.5579 20.8392C27.5579 20.8057 27.5716 20.7784 27.5883 20.7784C27.605 20.7784 27.6187 20.7373 27.6187 20.6871C27.6187 20.6369 27.6323 20.5959 27.649 20.5959C27.6658 20.5959 27.6794 20.5685 27.6794 20.5351C27.6794 20.5016 27.6931 20.4742 27.7098 20.4742C27.7265 20.4742 27.7402 20.4332 27.7402 20.383C27.7402 20.3328 27.7539 20.2918 27.7706 20.2918C27.7873 20.2918 27.801 20.2507 27.801 20.2005C27.801 20.1504 27.8146 20.1093 27.8313 20.1093C27.8481 20.1093 27.8617 20.0546 27.8617 19.9877C27.8617 19.9208 27.8754 19.866 27.8921 19.866C27.9088 19.866 27.9225 19.7976 27.9225 19.714C27.9225 19.6303 27.9362 19.5619 27.9529 19.5619C27.9698 19.5619 27.9833 19.4808 27.9833 19.3794C27.9833 19.2781 27.9967 19.197 28.0136 19.197C28.0332 19.197 28.044 18.8928 28.044 18.3454C28.044 17.798 28.0332 17.4939 28.0136 17.4939C27.9967 17.4939 27.9833 17.4128 27.9833 17.3114C27.9833 17.2101 27.9698 17.1289 27.9529 17.1289C27.9362 17.1289 27.9225 17.0605 27.9225 16.9769C27.9225 16.8933 27.9088 16.8248 27.8921 16.8248C27.8754 16.8248 27.8617 16.7701 27.8617 16.7032C27.8617 16.6363 27.8481 16.5815 27.8313 16.5815C27.8146 16.5815 27.801 16.5405 27.801 16.4903C27.801 16.4401 27.7873 16.3991 27.7706 16.3991C27.7539 16.3991 27.7402 16.358 27.7402 16.3078C27.7402 16.2576 27.7265 16.2166 27.7098 16.2166C27.6931 16.2166 27.6794 16.1892 27.6794 16.1558C27.6794 16.1223 27.6658 16.0949 27.649 16.0949C27.6323 16.0949 27.6187 16.0539 27.6187 16.0037C27.6187 15.9535 27.605 15.9125 27.5883 15.9125C27.5716 15.9125 27.5579 15.8851 27.5579 15.8517C27.5579 15.8182 27.5442 15.7908 27.5275 15.7908C27.5108 15.7908 27.4971 15.7635 27.4971 15.73C27.4971 15.6966 27.4835 15.6692 27.4668 15.6692C27.45 15.6692 27.4364 15.6418 27.4364 15.6084C27.4364 15.5749 27.4227 15.5475 27.406 15.5475C27.3893 15.5475 27.3756 15.5202 27.3756 15.4867C27.3756 15.4533 27.3619 15.4259 27.3452 15.4259C27.3285 15.4259 27.3148 15.4015 27.3148 15.3718C27.3148 15.342 27.2875 15.2979 27.2541 15.2738C27.2207 15.2497 27.1933 15.2087 27.1933 15.1826C27.1933 15.1565 27.166 15.1155 27.1326 15.0914C27.0991 15.0672 27.0718 15.0286 27.0718 15.0056C27.0718 14.9826 27.0308 14.9253 26.9806 14.8785C26.9305 14.8316 26.8895 14.7781 26.8895 14.7595C26.8895 14.7155 26.1408 13.9661 26.0969 13.9661C26.0783 13.9661 26.0249 13.9251 25.978 13.8749C25.9312 13.8247 25.874 13.7836 25.851 13.7836C25.828 13.7836 25.7894 13.7563 25.7654 13.7228C25.7413 13.6894 25.6972 13.662 25.6675 13.662C25.6378 13.662 25.6134 13.6483 25.6134 13.6316C25.6134 13.6149 25.5891 13.6012 25.5594 13.6012C25.5297 13.6012 25.4856 13.5738 25.4615 13.5404C25.4374 13.5069 25.3934 13.4795 25.3637 13.4795C25.334 13.4795 25.3096 13.4658 25.3096 13.4491C25.3096 13.4324 25.2823 13.4187 25.2489 13.4187C25.2154 13.4187 25.1881 13.405 25.1881 13.3883C25.1881 13.3716 25.1608 13.3579 25.1273 13.3579C25.0939 13.3579 25.0666 13.3442 25.0666 13.3275C25.0666 13.3107 25.0256 13.2971 24.9754 13.2971C24.9253 13.2971 24.8843 13.2834 24.8843 13.2666C24.8843 13.2499 24.8569 13.2362 24.8235 13.2362C24.7901 13.2362 24.7627 13.2225 24.7627 13.2058C24.7627 13.1891 24.7217 13.1754 24.6716 13.1754C24.6215 13.1754 24.5805 13.1617 24.5805 13.145C24.5805 13.1283 24.5394 13.1146 24.4893 13.1146C24.4392 13.1146 24.3982 13.1009 24.3982 13.0842C24.3982 13.0674 24.3571 13.0538 24.307 13.0538C24.2569 13.0538 24.2159 13.0401 24.2159 13.0234C24.2159 13.0066 24.1612 12.9929 24.0943 12.9929C24.0275 12.9929 23.9728 12.9793 23.9728 12.9625C23.9728 12.9458 23.9044 12.9321 23.8209 12.9321C23.7373 12.9321 23.669 12.9184 23.669 12.9017C23.669 12.884 23.5677 12.8713 23.4259 12.8713C23.2841 12.8713 23.1829 12.8586 23.1829 12.8409C23.1829 12.8216 22.9499 12.8105 22.5448 12.8105C22.1398 12.8105 21.9068 12.8216 21.9068 12.8409ZM23.0613 16.9769C23.0613 16.9943 23.1525 17.0073 23.274 17.0073C23.3955 17.0073 23.4867 17.0203 23.4867 17.0377C23.4867 17.0544 23.5277 17.0681 23.5778 17.0681C23.6487 17.0681 23.669 17.0816 23.669 17.1289C23.669 17.1624 23.6553 17.1898 23.6386 17.1898C23.6219 17.1898 23.6082 17.2582 23.6082 17.3418C23.6082 17.4255 23.5946 17.4939 23.5778 17.4939C23.5611 17.4939 23.5475 17.5486 23.5475 17.6155C23.5475 17.6824 23.5338 17.7372 23.5171 17.7372C23.5004 17.7372 23.4867 17.8056 23.4867 17.8892C23.4867 17.9729 23.473 18.0413 23.4563 18.0413C23.4396 18.0413 23.4259 18.1097 23.4259 18.1934C23.4259 18.277 23.4123 18.3454 23.3955 18.3454C23.3788 18.3454 23.3652 18.4138 23.3652 18.4975C23.3652 18.5811 23.3515 18.6495 23.3348 18.6495C23.3181 18.6495 23.3044 18.7043 23.3044 18.7712C23.3044 18.8381 23.2907 18.8928 23.274 18.8928C23.2573 18.8928 23.2436 18.9613 23.2436 19.0449C23.2436 19.1285 23.23 19.197 23.2133 19.197C23.1965 19.197 23.1829 19.2654 23.1829 19.349C23.1829 19.4326 23.1692 19.5011 23.1525 19.5011C23.1358 19.5011 23.1221 19.5421 23.1221 19.5923C23.1221 19.6425 23.1084 19.6835 23.0917 19.6835C23.075 19.6835 23.0613 19.7246 23.0613 19.7748C23.0613 19.825 23.0477 19.866 23.031 19.866C23.0143 19.866 23.0006 19.8934 23.0006 19.9268C23.0006 19.9603 22.9869 19.9877 22.9702 19.9877C22.9535 19.9877 22.9398 20.0287 22.9398 20.0789C22.9398 20.1291 22.9261 20.1701 22.9094 20.1701C22.8927 20.1701 22.8791 20.1945 22.8791 20.2242C22.8791 20.254 22.8517 20.2981 22.8183 20.3222C22.7849 20.3463 22.7575 20.3904 22.7575 20.4201C22.7575 20.4499 22.7439 20.4742 22.7271 20.4742C22.7104 20.4742 22.6968 20.4986 22.6968 20.5283C22.6968 20.5581 22.6694 20.6022 22.636 20.6263C22.6026 20.6504 22.5752 20.6887 22.5752 20.7114C22.5752 20.7341 22.5205 20.8053 22.4537 20.8696C22.3869 20.9339 22.3322 21.0016 22.3322 21.0201C22.3322 21.0642 22.0703 21.3258 22.0262 21.3258C22.0074 21.3258 21.9536 21.3668 21.9068 21.417C21.86 21.4672 21.8028 21.5082 21.7798 21.5082C21.7568 21.5082 21.7182 21.5356 21.6941 21.5691C21.6701 21.6025 21.626 21.6299 21.5963 21.6299C21.5666 21.6299 21.5422 21.6436 21.5422 21.6603C21.5422 21.677 21.5149 21.6907 21.4815 21.6907C21.4481 21.6907 21.4207 21.7044 21.4207 21.7211C21.4207 21.7379 21.3797 21.7515 21.3296 21.7515C21.2794 21.7515 21.2384 21.7652 21.2384 21.782C21.2384 21.8005 21.0966 21.8124 20.8738 21.8124C20.651 21.8124 20.5092 21.8005 20.5092 21.782C20.5092 21.7652 20.4682 21.7515 20.4181 21.7515C20.368 21.7515 20.327 21.7379 20.327 21.7211C20.327 21.7044 20.3026 21.6907 20.2729 21.6907C20.2432 21.6907 20.1991 21.6633 20.175 21.6299C20.1509 21.5964 20.1131 21.5691 20.091 21.5691C20.0356 21.5691 19.9016 21.4302 19.9016 21.3728C19.9016 21.3469 19.8879 21.3258 19.8712 21.3258C19.8545 21.3258 19.8408 21.2984 19.8408 21.265C19.8408 21.2315 19.8272 21.2041 19.8105 21.2041C19.7937 21.2041 19.7801 21.1768 19.7801 21.1433C19.7801 21.1099 19.7664 21.0825 19.7497 21.0825C19.733 21.0825 19.7193 21.0414 19.7193 20.9912C19.7193 20.9411 19.7056 20.9 19.6889 20.9C19.6698 20.9 19.6585 20.6973 19.6585 20.3526C19.6585 20.0079 19.6698 19.8052 19.6889 19.8052C19.7056 19.8052 19.7193 19.7368 19.7193 19.6531C19.7193 19.5695 19.733 19.5011 19.7497 19.5011C19.7664 19.5011 19.7801 19.4463 19.7801 19.3794C19.7801 19.3125 19.7937 19.2578 19.8105 19.2578C19.8272 19.2578 19.8408 19.2167 19.8408 19.1665C19.8408 19.1164 19.8545 19.0753 19.8712 19.0753C19.8879 19.0753 19.9016 19.0479 19.9016 19.0145C19.9016 18.981 19.9153 18.9537 19.932 18.9537C19.9487 18.9537 19.9624 18.9263 19.9624 18.8928C19.9624 18.8594 19.976 18.832 19.9928 18.832C20.0095 18.832 20.0231 18.8046 20.0231 18.7712C20.0231 18.7377 20.0368 18.7104 20.0535 18.7104C20.0702 18.7104 20.0839 18.683 20.0839 18.6495C20.0839 18.6161 20.0976 18.5887 20.1143 18.5887C20.131 18.5887 20.1447 18.5613 20.1447 18.5279C20.1447 18.4944 20.1583 18.4671 20.175 18.4671C20.1918 18.4671 20.2054 18.4427 20.2054 18.413C20.2054 18.3832 20.2328 18.3391 20.2662 18.315C20.2996 18.2909 20.327 18.2535 20.327 18.232C20.327 18.2104 20.484 18.0355 20.676 17.8433C20.868 17.6511 21.0427 17.4939 21.0643 17.4939C21.0858 17.4939 21.1232 17.4665 21.1473 17.4331C21.1714 17.3996 21.2154 17.3722 21.2451 17.3722C21.2748 17.3722 21.2992 17.3586 21.2992 17.3418C21.2992 17.3251 21.3265 17.3114 21.3599 17.3114C21.3934 17.3114 21.4207 17.2977 21.4207 17.281C21.4207 17.2643 21.4481 17.2506 21.4815 17.2506C21.5149 17.2506 21.5422 17.2369 21.5422 17.2202C21.5422 17.2035 21.5696 17.1898 21.603 17.1898C21.6364 17.1898 21.6638 17.1761 21.6638 17.1594C21.6638 17.1426 21.7048 17.1289 21.7549 17.1289C21.805 17.1289 21.8461 17.1153 21.8461 17.0985C21.8461 17.0818 21.8871 17.0681 21.9372 17.0681C21.9873 17.0681 22.0284 17.0544 22.0284 17.0377C22.0284 17.0208 22.1094 17.0073 22.2106 17.0073C22.3119 17.0073 22.3929 16.9938 22.3929 16.9769C22.3929 16.9585 22.5246 16.9465 22.7271 16.9465C22.9297 16.9465 23.0613 16.9585 23.0613 16.9769Z" stroke-width="0.5"/>
    </symbol>
    <symbol id="soc-tg" viewBox="0 0 29 25" xmlns="http://www.w3.org/2000/svg">
        <path d="M8.84889 13.9448L23.0743 5.02029C23.774 4.54893 23.9949 5.07368 23.6782 5.43641L11.8722 16.0567L11.2664 21.3576L8.84889 13.9448ZM26.8931 0.918001L1.92214 10.3728C0.555938 10.7668 0.600128 12.1164 1.60913 12.4405L7.86751 14.394L10.2611 21.7332C10.552 22.5379 10.7896 22.8398 11.2867 22.8472C11.8096 22.8546 12.0085 22.6631 12.5516 22.1825C13.1869 21.5878 14.1535 20.6487 15.6836 19.161L22.1905 23.9703C23.3892 24.6313 24.2546 24.2889 24.5528 22.8582L28.633 2.67455C29.0694 0.919842 28.0401 0.39693 26.8931 0.918001Z" />
    </symbol>
    <symbol id="soc-vb" viewBox="0 0 26 29" xmlns="http://www.w3.org/2000/svg">
        <path d="M20.0167 18.6247C19.5196 19.7497 18.6707 20.4918 17.4813 20.8287C17.0505 20.9502 16.6306 20.8453 16.2385 20.6777C10.8142 18.3688 6.89416 14.5593 4.67547 9.05949C4.51528 8.66363 4.42138 8.24935 4.43611 7.87189C4.43979 6.45598 5.68079 5.14686 7.04331 5.07137C7.41892 5.04927 7.74482 5.17816 8.01732 5.43225C8.97477 6.32893 9.74441 7.36924 10.306 8.55315C10.6116 9.19575 10.4827 9.64869 9.93406 10.109C9.84568 10.1827 9.75177 10.2471 9.65787 10.3152C8.92874 10.8492 8.76671 11.3942 9.1147 12.2356C9.68733 13.6129 10.619 14.6955 11.8747 15.4965C12.3498 15.8003 12.834 16.0857 13.3809 16.2459C13.8798 16.3913 14.2831 16.2348 14.6034 15.8389C14.6403 15.7948 14.6734 15.7487 14.7066 15.7027C15.4062 14.7342 16.1538 14.5666 17.1683 15.1945C18.0374 15.734 18.8567 16.349 19.6337 17.0137C20.1603 17.4629 20.2966 17.9932 20.0167 18.6247ZM16.2514 11.0278C16.2329 11.1788 16.2329 11.2837 16.209 11.3831C16.1611 11.582 16.0378 11.7035 15.8205 11.7054C15.6014 11.709 15.4836 11.5783 15.4246 11.3905C15.386 11.2598 15.3749 11.1198 15.3491 10.9836C15.2092 10.2637 14.7986 9.79231 14.0805 9.59898C13.994 9.57504 13.9019 9.56215 13.8136 9.53822C13.5871 9.47562 13.3072 9.47009 13.2962 9.14051C13.2888 8.86616 13.4969 8.70229 13.8743 8.6802C14.1284 8.66363 14.5243 8.79067 14.7544 8.90115C15.6953 9.36146 16.1354 10.0077 16.2514 11.0278ZM14.736 8.00999C14.2149 7.8277 13.6883 7.68041 13.1397 7.60123C12.8745 7.56257 12.6849 7.42263 12.7346 7.1133C12.7806 6.82055 12.9703 6.70455 13.252 6.73033C15.0398 6.90156 16.4373 7.55152 17.4003 9.10184C17.8496 9.82545 18.1147 10.8529 18.0742 11.6225C18.0466 12.1694 17.9637 12.3093 17.6507 12.3001C17.1978 12.289 17.264 11.9153 17.2291 11.6409C17.1757 11.2174 17.0836 10.805 16.9694 10.3962C16.638 9.21416 15.8978 8.4169 14.736 8.00999ZM12.1509 5.28863C12.1675 4.96826 12.3516 4.84489 12.6517 4.85962C15.2166 4.98115 17.1462 5.74342 18.6302 7.74117C19.4993 8.9122 19.9688 10.492 20.0149 11.9613C20.0149 12.1786 20.0259 12.3977 20.013 12.6149C20.0001 12.858 19.8933 13.0439 19.6208 13.0458C19.3446 13.0495 19.2102 12.9003 19.19 12.6205C19.1182 11.5378 18.9101 10.4846 18.4958 9.47746C17.6949 7.52758 16.1593 6.47808 14.1873 5.96989C13.6644 5.83732 13.1378 5.72685 12.5983 5.68266C12.3553 5.66241 12.1325 5.61085 12.1509 5.28863ZM22.4103 3.27432C21.3939 2.40525 20.2027 1.88234 18.9212 1.54723C15.7063 0.705784 12.4473 0.495883 9.15337 0.943304C7.4852 1.16978 5.87228 1.61167 4.38824 2.44392C2.64458 3.42161 1.44593 4.82832 0.915653 6.78372C0.538199 8.1757 0.354075 9.59346 0.282266 11.0296C0.177316 13.1489 0.245441 15.2534 0.788608 17.3211C1.41647 19.7129 2.78083 21.4768 5.11921 22.414C5.3733 22.5153 5.61266 22.6571 5.86675 22.762C6.10059 22.8596 6.1724 23.0143 6.1724 23.2684C6.15951 24.9236 6.16503 26.5771 6.16503 28.306C6.78001 27.7131 7.20349 27.2767 7.51282 26.9287C8.43344 25.8866 9.30435 25.0212 10.2636 24.0306C10.7516 23.5298 10.5472 23.5537 11.3021 23.5666C12.1896 23.5814 13.5852 23.6163 14.469 23.5464C16.1519 23.4138 17.8238 23.2002 19.4478 22.7123C21.5136 22.0918 23.1671 20.9871 24.0048 18.8991C24.2276 18.3449 24.4412 17.7888 24.583 17.2088C25.3894 13.8872 25.2808 10.5583 24.6069 7.23483C24.2939 5.69187 23.6347 4.32014 22.4103 3.27432Z" />
    </symbol>
    <symbol id="soc-vk" viewBox="0 0 34 21" xmlns="http://www.w3.org/2000/svg">
        <path fill-rule="evenodd" clip-rule="evenodd" d="M16.9225 19.9415H18.9147C18.9147 19.9415 19.5168 19.8752 19.8261 19.5438C20.1078 19.24 20.0986 18.6692 20.0986 18.6692C20.0986 18.6692 20.0599 15.9957 21.3009 15.5999C22.5254 15.2132 24.0959 18.185 25.7623 19.3284C27.0198 20.1938 27.9773 20.0041 27.9773 20.0041L32.4312 19.9415C32.4312 19.9415 34.7604 19.7979 33.6557 17.9677C33.5654 17.8167 33.0131 16.6125 30.3451 14.1361C27.552 11.5436 27.9257 11.9634 31.2897 7.47999C33.339 4.74943 34.1565 3.08311 33.9006 2.37055C33.6575 1.68929 32.1514 1.86973 32.1514 1.86973L27.1377 1.90103C27.1377 1.90103 26.7657 1.84948 26.4896 2.01519C26.2207 2.17537 26.0477 2.55283 26.0477 2.55283C26.0477 2.55283 25.2541 4.66473 24.1954 6.46178C21.9619 10.2529 21.0689 10.4536 20.7044 10.2179C19.8556 9.66923 20.0673 8.01395 20.0673 6.8374C20.0673 3.16412 20.6252 1.63221 18.9828 1.2345C18.4378 1.10377 18.0364 1.01723 16.6426 1.0025C14.8529 0.984092 13.3394 1.00803 12.4814 1.42783C11.9106 1.7077 11.4706 2.33004 11.7394 2.36502C12.0708 2.40921 12.822 2.56756 13.2197 3.10888C13.7334 3.80856 13.715 5.37914 13.715 5.37914C13.715 5.37914 14.0096 9.70421 13.0264 10.24C12.3488 10.6083 11.4227 9.85703 9.4323 6.4176C8.41225 4.65553 7.64261 2.70749 7.64261 2.70749C7.64261 2.70749 7.49347 2.34293 7.22833 2.1496C6.90795 1.91392 6.45869 1.83843 6.45869 1.83843L1.69356 1.86973C1.69356 1.86973 0.979157 1.88998 0.71586 2.20115C0.482022 2.47734 0.697447 3.04812 0.697447 3.04812C0.697447 3.04812 4.4278 11.7756 8.65161 16.1743C12.5256 20.2067 16.9225 19.9415 16.9225 19.9415Z"/>
    </symbol>
    <symbol id="soc-wa" viewBox="0 0 28 27" xmlns="http://www.w3.org/2000/svg">
        <path fill-rule="evenodd" clip-rule="evenodd" d="M20.5556 16.1429C20.2261 15.9625 18.6131 15.0916 18.3093 14.9682C18.0074 14.8448 17.7864 14.7822 17.5507 15.1081C17.3151 15.434 16.6448 16.1632 16.4423 16.3804C16.2379 16.5959 16.0409 16.6161 15.7132 16.4357C15.3854 16.2571 14.3194 15.863 13.0839 14.6736C12.1228 13.7511 11.4912 12.6298 11.3089 12.2874C11.1248 11.9449 11.3071 11.77 11.4802 11.6098C11.6367 11.4662 11.83 11.2323 12.0049 11.0427C12.1798 10.853 12.2406 10.7168 12.3603 10.4977C12.48 10.2786 12.4321 10.0797 12.3548 9.91031C12.2774 9.73908 11.6698 8.06723 11.4157 7.38781C11.1616 6.70655 10.8799 6.80782 10.6847 6.80046C10.4896 6.79309 10.2668 6.75627 10.044 6.7489C9.82121 6.7397 9.4548 6.80966 9.13626 7.13372C8.81589 7.45594 7.92105 8.23478 7.86028 9.88085C7.79768 11.5269 8.93741 13.1638 9.09576 13.3921C9.25595 13.6223 11.2721 17.1924 14.6232 18.6599C17.9761 20.1274 17.9945 19.6799 18.6095 19.6468C19.2244 19.6155 20.6182 18.9121 20.9276 18.1407C21.2351 17.371 21.2608 16.7008 21.1817 16.5572C21.1043 16.4154 20.8834 16.3215 20.5556 16.1429ZM14.4077 24.0787C12.1909 24.0787 10.1269 23.414 8.40345 22.2743L4.2091 23.6165L5.57162 19.5639C4.26618 17.7632 3.49286 15.5519 3.49286 13.1638C3.49286 7.14477 8.39056 2.24891 14.4077 2.24891C20.4268 2.24891 25.3226 7.14477 25.3226 13.1638C25.3226 19.1828 20.4268 24.0787 14.4077 24.0787ZM14.4077 0.0523071C7.16798 0.0523071 1.29626 5.92218 1.29626 13.1638C1.29626 15.6403 1.98488 17.9584 3.17801 19.934L0.812012 26.9676L8.07019 24.6439C9.95009 25.6824 12.1099 26.2753 14.4077 26.2753C21.6493 26.2753 27.5192 20.4054 27.5192 13.1638C27.5192 5.92218 21.6493 0.0523071 14.4077 0.0523071Z"/>
    </symbol>
    <symbol id="like" viewBox="0 0 22 21" xmlns="http://www.w3.org/2000/svg">
        <path d="M2.43039 10.8997L10.903 19.3083L19.3757 10.8997C23.4521 6.8232 18.1927 -2.17695 10.903 3.13043C3.86919 -2.04906 -1.43823 7.03107 2.43039 10.8997Z" stroke-width="2"/>
    </symbol>

    <symbol id="lk" viewBox="0 0 21 21" xmlns="http://www.w3.org/2000/svg">
        <path fill-rule="evenodd" clip-rule="evenodd" d="M0.676758 17.0284C0.956156 17.2648 1.25705 17.5442 1.60092 17.8236L2.58956 18.5543C6.65159 21.2408 12.0031 21.6707 16.538 19.7794C18.021 19.1561 19.6974 18.103 20.7505 17.0069C20.686 16.4266 19.9553 14.4493 19.6544 13.869C19.1815 12.9663 18.6442 11.9562 17.6771 11.5908C15.4634 10.6882 15.0121 12.6654 10.7351 12.6654C9.44558 12.6654 8.19903 12.4505 7.10293 12.0637C5.92085 11.6338 5.2331 10.9891 3.77163 11.5693C2.46061 12.0852 1.60092 14.0839 1.17108 15.352C1.02063 15.8248 0.762727 16.5555 0.676758 17.0284ZM2.26718 16.577C2.54658 16.7705 2.69702 16.9854 3.0409 17.1788C3.3203 17.3507 3.5997 17.5442 3.92208 17.7376C7.38232 19.7794 11.7667 20.1232 15.5279 18.6833C16.2371 18.4254 16.8819 18.1245 17.4837 17.7591C17.892 17.5227 18.8592 16.8994 19.16 16.577C19.0956 15.9108 18.5153 14.6642 18.2359 14.1484C16.495 11.0105 16.1726 14.0409 10.7351 14.0409C9.27364 14.0409 7.74769 13.783 6.41518 13.2672C5.77041 13.0308 4.73878 12.3001 3.90059 13.0953C3.3203 13.6541 2.46061 15.6529 2.26718 16.577Z" />
        <path fill-rule="evenodd" clip-rule="evenodd" d="M10.0904 0.135349C7.21046 0.479224 4.76035 3.05829 5.1687 6.38958C5.51258 9.24804 8.11313 11.6337 11.4014 11.2468C14.2599 10.9244 16.667 8.30239 16.2802 5.03557C15.9578 2.1986 13.3357 -0.251511 10.0904 0.135349ZM10.1764 1.51085C8.04866 1.83323 6.17884 3.74604 6.5442 6.30361C6.8451 8.38835 8.80089 10.2367 11.3155 9.87132C13.5507 9.54893 15.2271 7.48568 14.9047 5.12154C14.6038 3.0153 12.648 1.16697 10.1764 1.51085Z" />
    </symbol>

    <symbol id="search" viewBox="0 0 16 16" xmlns="http://www.w3.org/2000/svg">
        <!-- fill="#8898AA" stroke="#8898AA" -->
        <path d="M10.6753 10.2634C10.9913 9.90439 11.323 10.2478 11.5757 10.482L15.2562 14.0724C15.4141 14.2285 15.4141 14.4939 15.2562 14.65C15.0982 14.8061 14.8455 14.8061 14.6717 14.65L11.007 11.0752C9.93292 12.043 8.49549 12.6206 6.93169 12.6206C5.25732 12.6206 3.7567 11.9494 2.65098 10.8722C1.56106 9.79511 0.881836 8.2965 0.881836 6.64179C0.881836 4.98707 1.56106 3.50408 2.65098 2.41134C3.7567 1.33422 5.25732 0.662964 6.93169 0.662964C8.60606 0.662964 10.1225 1.33422 11.2124 2.41134C12.3023 3.50408 12.9815 4.98707 12.9815 6.64179C12.9815 6.96961 12.9657 7.29743 12.9026 7.60964C12.8552 7.90624 12.634 8.06235 12.4129 8.04673C12.2233 8.03112 12.018 7.92185 12.0812 7.59403C12.1286 7.28182 12.1602 6.96961 12.1602 6.64179C12.1602 5.22123 11.5757 3.92556 10.6279 2.98893C9.69598 2.0523 8.38492 1.47471 6.93169 1.47471C5.49426 1.47471 4.18319 2.0523 3.23543 2.98893C2.28768 3.92556 1.70323 5.22123 1.70323 6.64179C1.70323 8.07796 2.28768 9.37363 3.23543 10.2946C4.18319 11.2313 5.49426 11.8089 6.93169 11.8089C8.38492 11.8089 9.69598 11.2313 10.6279 10.2946L10.6753 10.2634Z" />
    </symbol>

    <symbol id="stock-yes" viewBox="0 0 30 29" xmlns="http://www.w3.org/2000/svg">
        <path d="M16.7915 28.0276C12.8928 28.4655 9.17364 27.3465 6.32654 25.2056C3.47944 23.0648 1.50443 19.9021 1.04274 16.2286C0.78624 14.1121 1.04274 12.0686 1.73527 10.1954C2.12002 9.17358 2.63301 8.97896 3.06905 9.12493C3.42814 9.24657 3.76159 9.5385 3.35119 10.5846C2.70996 12.2632 2.45346 14.1365 2.68431 16.034C3.0947 19.294 4.83887 22.0916 7.35252 23.9892C9.86617 25.8625 13.1493 26.8356 16.5863 26.4707C20.0234 26.0814 22.9731 24.4028 24.9737 22.0187C26.9488 19.6345 27.9747 16.5449 27.59 13.285C27.1796 10.0007 25.4098 7.20303 22.8961 5.32979C20.3825 3.43222 17.125 2.45911 13.688 2.84835C11.7642 3.06731 9.99442 3.6755 8.4811 4.57563C7.81421 4.96487 7.24992 4.86756 6.99343 4.52697C6.78823 4.21071 6.76258 3.74848 7.60902 3.2376C9.32753 2.21583 11.3282 1.53465 13.4828 1.29138C17.3815 0.853475 21.075 1.97255 23.9221 4.08907C26.7692 6.22992 28.7699 9.39253 29.2316 13.0904C29.6676 16.7882 28.5134 20.2914 26.2562 22.9918C23.9991 25.6922 20.6646 27.5897 16.7915 28.0276ZM6.60868 16.8855C6.27524 16.5936 6.24959 16.107 6.55738 15.7907C6.86518 15.4745 7.40382 15.4502 7.73726 15.7421L11.0717 18.7101L21.1007 9.34388C21.4341 9.05195 21.9471 9.05195 22.2549 9.36821C22.5883 9.66014 22.5883 10.171 22.2549 10.463L11.0974 20.8753L6.60868 16.8855Z" stroke-width="0.5"/>
    </symbol>

    <symbol id="stock-no" viewBox="0 0 30 29" xmlns="http://www.w3.org/2000/svg">
        <path d="M16.7915 28.0276C12.8928 28.4655 9.17364 27.3465 6.32654 25.2056C3.47944 23.0648 1.50443 19.9021 1.04274 16.2286C0.78624 14.1121 1.04274 12.0686 1.73527 10.1954C2.12002 9.17358 2.63301 8.97896 3.06905 9.12493C3.42814 9.24657 3.76159 9.5385 3.35119 10.5846C2.70996 12.2632 2.45346 14.1365 2.68431 16.034C3.0947 19.294 4.83887 22.0916 7.35252 23.9892C9.86617 25.8625 13.1493 26.8356 16.5863 26.4707C20.0234 26.0814 22.9731 24.4028 24.9737 22.0187C26.9488 19.6345 27.9747 16.5449 27.59 13.285C27.1796 10.0007 25.4098 7.20303 22.8961 5.32979C20.3825 3.43222 17.125 2.45911 13.688 2.84835C11.7642 3.06731 9.99442 3.6755 8.4811 4.57563C7.81421 4.96487 7.24992 4.86756 6.99343 4.52697C6.78823 4.21071 6.76258 3.74848 7.60902 3.2376C9.32753 2.21583 11.3282 1.53465 13.4828 1.29138C17.3815 0.853475 21.075 1.97255 23.9221 4.08907C26.7692 6.22992 28.7699 9.39253 29.2316 13.0904C29.6676 16.7882 28.5134 20.2914 26.2562 22.9918C23.9991 25.6922 20.6646 27.5897 16.7915 28.0276ZM6.60868 16.8855C6.27524 16.5936 6.24959 16.107 6.55738 15.7907C6.86518 15.4745 7.40382 15.4502 7.73726 15.7421L11.0717 18.7101L21.1007 9.34388C21.4341 9.05195 21.9471 9.05195 22.2549 9.36821C22.5883 9.66014 22.5883 10.171 22.2549 10.463L11.0974 20.8753L6.60868 16.8855Z" stroke-width="0.5"/>
    </symbol>

    <symbol id="point" viewBox="0 0 27 35" xmlns="http://www.w3.org/2000/svg">
        <path d="M14.3509 34.374C14.0462 34.7659 13.4366 34.8094 13.0013 34.5046C12.6094 34.1563 12.5223 33.5468 12.8706 33.1114C16.4407 28.8447 19.4013 25.0134 21.4476 21.4868C23.4503 18.0474 24.5823 14.9562 24.4952 12.0391C24.4082 9.12211 23.2326 6.81461 21.404 5.16017C19.4013 3.37512 16.6149 2.37375 13.5237 2.33021C12.3917 2.33021 11.2162 2.50436 10.0842 2.89621C8.9087 3.33158 7.77672 3.94111 6.64473 4.85541C-1.10499 12.5616 4.46784 19.8324 10.0407 27.1032L10.4761 27.7127C10.8244 28.1481 10.7373 28.7577 10.3019 29.0624C9.86653 29.4107 9.257 29.3236 8.95224 28.8883L8.47332 28.2787C2.42157 20.3113 -3.67372 12.3439 5.3386 3.4622L5.38214 3.37512C6.73181 2.33021 8.08148 1.59007 9.43115 1.11116C10.7808 0.588702 12.174 0.414551 13.5672 0.414551C17.0938 0.458089 20.3156 1.63361 22.6666 3.72342C24.8871 5.68262 26.3238 8.51258 26.4109 11.9956C26.498 15.3045 25.2789 18.744 23.1456 22.4447C21.0122 26.1019 17.9646 30.0203 14.3509 34.374ZM13.9591 7.51121C15.3523 7.51121 16.6149 8.12074 17.5292 9.03503C18.4435 9.94933 19.0095 11.2119 19.0095 12.6051C19.0095 13.9983 18.4435 15.2609 17.5292 16.1752C16.6149 17.0895 15.3523 17.6555 13.9591 17.6555C12.5659 17.6555 11.2597 17.0895 10.3454 16.1752C9.43115 15.2609 8.86516 13.9983 8.86516 12.6051C8.86516 11.2119 9.43115 9.94933 10.3454 9.03503C11.2597 8.12074 12.5659 7.51121 13.9591 7.51121ZM16.1795 10.3847C15.6135 9.81871 14.8298 9.47041 13.9591 9.47041C13.0883 9.47041 12.3046 9.81871 11.7387 10.3847C11.1727 10.9507 10.8244 11.7344 10.8244 12.6051C10.8244 13.4759 11.1727 14.2596 11.7387 14.8256C12.3046 15.3916 13.0883 15.7399 13.9591 15.7399C14.8298 15.7399 15.6135 15.3916 16.1795 14.8256C16.7455 14.2596 17.0938 13.4759 17.0938 12.6051C17.0938 11.7344 16.7455 10.9507 16.1795 10.3847Z" />
    </symbol>
</svg>
