<svg width="16" height="16" viewBox="0 0 16 16" xmlns="http://www.w3.org/2000/svg">
<path d="M10.6753 10.2634C10.9913 9.90439 11.323 10.2478 11.5757 10.482L15.2562 14.0724C15.4141 14.2285 15.4141 14.4939 15.2562 14.65C15.0982 14.8061 14.8455 14.8061 14.6717 14.65L11.007 11.0752C9.93292 12.043 8.49549 12.6206 6.93169 12.6206C5.25732 12.6206 3.7567 11.9494 2.65098 10.8722C1.56106 9.79511 0.881836 8.2965 0.881836 6.64179C0.881836 4.98707 1.56106 3.50408 2.65098 2.41134C3.7567 1.33422 5.25732 0.662964 6.93169 0.662964C8.60606 0.662964 10.1225 1.33422 11.2124 2.41134C12.3023 3.50408 12.9815 4.98707 12.9815 6.64179C12.9815 6.96961 12.9657 7.29743 12.9026 7.60964C12.8552 7.90624 12.634 8.06235 12.4129 8.04673C12.2233 8.03112 12.018 7.92185 12.0812 7.59403C12.1286 7.28182 12.1602 6.96961 12.1602 6.64179C12.1602 5.22123 11.5757 3.92556 10.6279 2.98893C9.69598 2.0523 8.38492 1.47471 6.93169 1.47471C5.49426 1.47471 4.18319 2.0523 3.23543 2.98893C2.28768 3.92556 1.70323 5.22123 1.70323 6.64179C1.70323 8.07796 2.28768 9.37363 3.23543 10.2946C4.18319 11.2313 5.49426 11.8089 6.93169 11.8089C8.38492 11.8089 9.69598 11.2313 10.6279 10.2946L10.6753 10.2634Z" fill="#363636" stroke="#363636"/>
</svg>
